<?xml version="1.0" encoding="utf-8"?>
<!-- Generator: Adobe Illustrator 16.0.1, SVG Export Plug-In . SVG Version: 6.00 Build 0)  -->
<!DOCTYPE svg PUBLIC "-//W3C//DTD SVG 1.1//EN" "http://www.w3.org/Graphics/SVG/1.1/DTD/svg11.dtd">
<svg version="1.1" id="Layer_1" xmlns="http://www.w3.org/2000/svg" xmlns:xlink="http://www.w3.org/1999/xlink" x="0px" y="0px"
	 width="2000px" height="1333px" viewBox="0 0 2000 1333" enable-background="new 0 0 2000 1333" xml:space="preserve">
<rect y="0.5" fill="#FFFFFF" width="2000" height="1333"/>
<g>
	<path id="deck_95_" d="M1329.891,423.273c-12.134,0.012-24.289,27.513-30.796,24.712s-7.362-35.904-5.804-62.037
		c1.562-26.133,5.54-45.293,7.009-66.728c1.468-21.436,0.428-45.144-4.363-64.841c-4.789-19.697-13.33-35.383-8.295-44.463
		c5.034-9.08,23.641-11.555,42.249-11.555c18.607,0,37.217,2.475,42.252,11.555c5.033,9.08-3.506,24.766-8.297,44.463
		c-4.791,19.698-5.686,43.562-4.362,64.841c1.325,21.28,5.373,40.513,7.007,66.728c1.636,26.216,0.729,59.271-5.804,62.037
		S1342.026,423.261,1329.891,423.273z"/>
	<path id="deck_94_" d="M1197.468,771.149l-43.569,22.562l1.049-63.855l1.986-92.189l-2.9-32.616l2.201-84.588l41.233-5.106
		l41.233,5.106l2.199,84.588l-2.9,32.616l1.987,92.189l1.051,63.855L1197.468,771.149z"/>
	<path id="deck_93_" d="M1330.612,529.195l38.81,11.444l7.913,68.333l-7.926,57.444l-2.941,40.758l-5.954,72.7l-29.901-1.604
		l-29.901,1.604l-5.954-72.7l-2.94-40.758l-7.929-57.444l7.917-68.333L1330.612,529.195z"/>
	<path id="deck_92_" d="M1596.557,428.831c-15.31,0.038-30.665,14.501-34.317,3.519c-3.649-10.981,4.404-47.405,2.527-73.224
		c-1.878-25.818-13.688-41.029-13.707-61.464c-0.022-20.433,11.743-46.091,14.505-58.284c2.763-12.191-3.479-10.92,0.188-15.194
		c3.666-4.277,17.236-14.103,30.805-14.103c13.57,0,27.141,9.825,30.805,14.103c3.666,4.274-2.573,3.003,0.19,15.194
		c2.761,12.193,14.874,38.371,14.504,58.284c-0.371,19.915-12.02,35.365-13.706,61.464c-1.688,26.097,6.253,62.363,2.525,73.224
		C1627.146,443.214,1611.867,428.789,1596.557,428.831z"/>
	<path id="deck_91_" d="M798.387,757.212l-40.506,26.1l-1.519-83.119l6.934-8.331l-5.86-88.086l0.833-50.728l40.118-27.289
		l40.117,27.289l0.834,50.728l-5.86,88.086l6.934,8.331l-1.519,83.119L798.387,757.212z"/>
	<path id="deck_90_" d="M1064.44,208.764l-35.151-3.886l-0.684,18.868l-8.834,70.592l10.084,77.869l-1.018,61.02l35.603,8.445
		l35.604-8.445l-1.019-61.02l10.084-77.869l-8.833-70.592l-0.686-18.868L1064.44,208.764z"/>
	<path id="deck_89_" d="M798.386,438.676c-11.776-0.003-23.556,0.221-30.109-9.331c-6.555-9.55-7.883-28.877-7.74-46.057
		c0.143-17.181,1.756-32.212,2.542-49.705c0.785-17.493,0.742-37.443-0.159-58.212c-0.902-20.769-2.661-42.357,3.108-54.041
		c5.768-11.681,19.062-13.458,32.357-13.458c13.296,0,26.59,1.778,32.357,13.458c5.769,11.683,4.01,33.271,3.108,54.041
		c-0.9,20.769-0.911,40.69-0.158,58.212c0.751,17.526,2.382,32.543,2.542,49.705c0.16,17.162-1.18,36.497-7.74,46.057
		C821.936,438.907,810.162,438.677,798.386,438.676L798.386,438.676z"/>
	<path id="deck_88_" d="M266.625,763.67c-19.313,0.03-38.697,20.122-42.122,20.21c-3.424,0.088,9.11-19.833,8.56-45.085
		c-0.549-25.249-14.184-55.833-13.528-83.458c0.655-27.625,15.602-52.289,16.888-66.186c1.286-13.895-11.09-17.019-8.333-29.536
		c2.756-12.519,20.646-34.43,38.536-34.43s35.778,21.911,38.535,34.43c2.757,12.517-9.62,15.641-8.333,29.536
		c1.287,13.897,16.762,38.977,16.887,66.186c0.127,27.208-13.263,57.982-13.529,83.458c-0.263,25.479,12.098,45.271,8.561,45.085
		C305.207,783.693,285.937,763.637,266.625,763.67z"/>
	<path id="deck_87_" d="M1197.471,223.267c-12.376-0.026-24.75,2.124-30.727,9.285c-5.979,7.162-5.559,19.337-4.779,38.82
		c0.779,19.483,1.914,46.277,1.894,70.773c-0.019,24.497-1.19,46.699-1.883,60.021c-0.694,13.326-0.907,17.772,5.091,19.698
		c5.995,1.925,18.197,1.33,30.404,1.33c12.205,0,24.408,0.596,30.405-1.33c5.999-1.926,5.784-6.373,5.094-19.698
		c-0.694-13.323-1.888-35.868-1.888-60.021s1.131-51.103,1.895-70.773c0.769-19.67,1.195-31.74-4.777-38.82
		C1222.227,225.473,1209.847,223.292,1197.471,223.267z"/>
	<path id="deck_86_" d="M532.583,779.122l-29.813,13.146l-6.711-58.072l-5.913-114.128l2.371-46.614l-4.306-13.217l44.373-43.436
		l44.372,43.436l-4.306,13.217l2.371,46.614l-5.913,114.128l-6.711,58.072L532.583,779.122z"/>
	<path id="deck_85_" d="M399.287,447.723c-12.049,0.024-24.129,15.683-29.813,13.146c-5.684-2.54-4.971-23.275-6.71-58.073
		c-1.742-34.798-5.939-83.653-5.914-114.127c0.026-30.472,4.274-42.562,2.371-46.614c-1.903-4.053-9.958-0.067-4.306-13.216
		c5.654-13.15,25.013-43.438,44.373-43.438s38.719,30.287,44.372,43.438c5.653,13.148-2.402,9.163-4.305,13.216
		c-1.903,4.053,2.583,16.456,2.37,46.614c-0.212,30.159-4.299,79.154-5.913,114.127c-1.613,34.974-0.977,55.622-6.711,58.073
		C423.367,463.319,411.335,447.698,399.287,447.723z"/>
	<path id="deck_84_" d="M1463.337,790.792c-16.169,0.012-32.386-1.646-38.318-6.522c-5.932-4.877-1.583-12.973-1.892-41.5
		c-0.309-28.526-5.28-77.487-3.553-110.073c1.727-32.583,10.15-48.79,8.941-61.322c-1.207-12.531-12.043-21.382-7.847-31.524
		c4.198-10.142,23.435-21.573,42.668-21.573c19.234,0,38.469,11.431,42.668,21.573c4.198,10.142-6.64,18.994-7.848,31.524
		c-1.207,12.532,7.589,28.885,8.942,61.322c1.354,32.441-3.445,81.461-3.552,110.073c-0.109,28.612,4.118,36.669-1.893,41.5
		S1479.505,790.779,1463.337,790.792z"/>
	<path id="deck_83_" d="M931.387,200.829l-45.56,26.055l12.327,36.896l-5.366,82.391l2.275,2.36l-7.508,81.842l43.832,15.347
		l43.833-15.347l-7.511-81.842l2.276-2.36l-5.365-82.391l12.327-36.896L931.387,200.829z"/>
	<path id="deck_82_" d="M1729.7,221.129c-20.46,0.05-41.003-36.007-43.637-29.699c-2.637,6.306,12.634,54.973,12.971,82.642
		c0.333,27.668-14.269,34.335-14.341,44.624c-0.07,10.289,14.383,24.197,12.92,54.851c-1.465,30.655-18.847,78.054-16.151,82.061
		c2.694,4.006,25.465-35.381,48.238-35.381c22.772,0,45.544,39.388,48.24,35.381c2.695-4.006-14.689-51.405-16.153-82.061
		c-1.464-30.654,13.609-43.913,12.92-54.851c-0.69-10.938-15.007-17.308-14.34-44.624c0.668-27.316,15.737-76.182,12.971-82.642
		C1770.572,184.966,1750.158,221.079,1729.7,221.129L1729.7,221.129z"/>
	<path id="deck_81_" d="M665.485,429.44c-16.666-0.004-33.363,23.811-37.171,9.287c-3.807-14.524,5.278-67.387,5.007-84.091
		c-0.27-16.706-9.895,2.748-11.737-1.264c-1.842-4.01,4.1-31.486,3.28-60.674c-0.822-29.189-8.405-60.093-2.76-75.191
		c5.644-15.098,24.512-14.389,43.38-14.389c18.869,0,37.737-0.708,43.381,14.389c5.644,15.1-1.939,46.003-2.76,75.191
		c-0.819,29.188,5.384,56.594,3.279,60.674c-2.104,4.081-11.608-15.397-11.736,1.264c-0.128,16.659,8.871,69.534,5.007,84.091
		C698.793,453.284,682.15,429.445,665.485,429.44z"/>
	<path id="deck_80_" d="M532.583,463.421l-39.104-7.931l-4.208-69.292l-4.362-81.171l1.001-51.581l4.674-60.341l41.998-9.977
		l42,9.977l4.675,60.341l1.001,51.581l-4.362,81.171l-4.208,69.292L532.583,463.421z"/>
	<path id="deck_79_" d="M266.613,436.53c-13.867-0.04-27.737,23.292-33.977,19.451c-6.24-3.844-4.852-34.858-5.291-61.782
		c-0.44-26.925-2.708-49.76-3.874-64.213c-1.162-14.454-1.222-20.531-1.526-39.902c-0.306-19.372-0.857-52.042,6.546-72.19
		c7.402-20.148,22.762-27.778,38.121-27.778c15.359,0,30.718,7.63,38.123,27.778c7.403,20.148,6.85,52.819,6.545,72.19
		c-0.306,19.372-0.354,24.932-1.527,39.902c-1.174,14.967-3.439,37.563-3.873,64.213s0.952,57.824-5.291,61.782
		C294.348,459.938,280.482,436.571,266.613,436.53L266.613,436.53z"/>
	<path id="deck_78_" d="M1729.703,531.177c-18.967,0.019-37.935,28.812-44.837,42.278c-6.905,13.467-1.748,11.607,0.593,24.098
		c2.344,12.488,1.873,39.325,1.844,61.003c-0.029,21.676,0.381,38.19,1.422,61.147c1.04,22.955,2.714,52.353,9.648,57.361
		c6.938,5.011,19.135-14.368,31.33-14.368c12.197,0,24.394,19.379,31.328,14.368c6.936-5.009,8.609-34.406,9.65-57.361
		c1.042-22.957,1.426-39.222,1.423-61.147c-0.007-21.925-0.487-48.647,1.844-61.003c2.33-12.358,7.492-10.576,0.592-24.098
		C1767.64,559.932,1748.671,531.158,1729.703,531.177L1729.703,531.177z"/>
	<path id="deck_77_" d="M1606.312,781.446c-18.484-5.285-45.788-14.983-54.255-22.565c-8.468-7.58,1.905-13.041,8.007-26.233
		c6.103-13.192,7.937-34.116,5.24-66.334c-2.699-32.21-9.926-75.713-11.148-99.274c-1.221-23.561,3.566-27.182,12.25-31.687
		c8.685-4.504,21.268-9.891,32.826-11.43c11.562-1.54,22.099,0.771,29.216,7.246c7.119,6.477,10.819,17.121,13.242,38.677
		s3.518,54.45,3.297,84.375c-0.22,29.928-1.933,58.345-2.343,80.622c-0.411,22.277,0.522,38.03-3.83,45.415
		C1634.463,787.642,1624.797,786.731,1606.312,781.446L1606.312,781.446z"/>
	<path id="deck_76_" d="M1030.715,776.688l2.288-51.232l-13.928-55.529l0.142-71.023l11.712-49.542l33.25-21.425l27.784-1.868
		l17.844,44.313l-15.097,70.251l1.381,43.952l1.049,78.867L1059.405,783L1030.715,776.688z"/>
	<path id="deck_75_" d="M662.85,761.772l-42.252,9.092l9.915-66.736l-8.562-38.794l2.384-57.499l10.152-78.487l34.831,24.009
		l41.056-1.199l-15.696,65.089l5.429,5.889l-1.249,76.298l3.691,80.287L662.85,761.772z"/>
	<path id="deck_74_" d="M1459.39,432.634l-38.233-6.522l4.078-47.889l1.493-58.472l-3.81-40.059l5.927-63.302l42.436-18.133
		l32.779,23.04l-7.296,47.437l-4.285,43.246l11.82,84.857l-7.862,51.454L1459.39,432.634z"/>
	<path id="deck_73_" d="M532.571,864.428c-13.997,0.049-28.011,0.923-32.485,7.255c-4.474,6.333,0.593,18.123,0.655,34.779
		c0.062,16.656-4.881,38.178-5.4,56.882c-0.519,18.706,3.385,34.595,3.778,67.224c0.393,32.628-2.725,81.996,2.266,98.553
		c4.99,16.554,18.088,0.297,31.187,0.297c13.098,0,26.197,16.257,31.186-0.297c4.991-16.557,1.873-65.925,2.266-98.553
		c0.394-32.629,4.434-47.87,3.777-67.224c-0.656-19.352-5.535-40.575-5.4-56.882c0.136-16.307,5.16-28.296,0.656-34.779
		C560.553,865.201,546.567,864.378,532.571,864.428L532.571,864.428z"/>
	<path id="deck_72_" d="M1197.469,854.515l-49.531,48.164l17.574,10.021l-13.962,98.164l10.678,42.287l-13.153,93.315l48.395-5.515
		l48.393,5.515l-13.153-93.315l10.678-42.287l-13.96-98.164L1247,902.679L1197.469,854.515z"/>
	<path id="deck_71_" d="M1064.427,884.441c-18.074,0.047-36.175-12.387-41.266-2.987c-5.089,9.4,2.83,40.634,4.314,64.654
		c1.486,24.022-3.464,40.829-3.479,53.626c-0.018,12.797,4.897,21.582,4.971,45.949c0.071,24.368-4.704,64.315,0.396,74.498
		c5.104,10.183,20.084-9.403,35.063-9.403s29.958,19.586,35.062,9.403c5.101-10.181,0.327-50.13,0.398-74.498
		c0.071-24.367,5.175-32.549,4.97-45.949c-0.203-13.399-5.068-29.928-3.48-53.626c1.586-23.694,9.443-55.115,4.313-64.654
		C1100.562,871.915,1082.5,884.396,1064.427,884.441z"/>
	<path id="deck_70_" d="M659.391,1141.909c-18.333,6.996-33.287,14.004-36.168-0.641c-2.88-14.647,6.312-50.947,6.306-74.671
		c-0.008-23.72-9.214-34.861-11.538-49.072c-2.324-14.21,2.236-31.492,3.853-56.764c1.618-25.272,0.294-58.534,7.98-79.188
		c7.686-20.653,24.381-28.698,40.156-30.215c15.774-1.515,30.626,3.5,35.535,23.904c4.908,20.406-0.131,56.203,0.662,83.364
		c0.792,27.161,7.641,45.353,7.448,66.218s-6.646,43.246-6.348,59.391c0.299,16.144,7.135,26.36-0.345,35.017
		C699.449,1127.911,677.724,1134.914,659.391,1141.909L659.391,1141.909z"/>
	<path id="deck_69_" d="M1467.945,1124.562c-14.269,5.009-27.121,16.652-32.662,5.792s-3.771-44.223-6.784-65.139
		c-3.013-20.918-10.809-29.388-9.731-47.211c1.077-17.824,11.027-45.003,12.731-70.867c1.704-25.865-4.838-50.418,1.626-64.753
		c6.463-14.336,25.93-18.453,43.445-15.186c17.518,3.266,33.082,13.919,35.716,21.349c2.635,7.431-7.664,11.64-11.239,32.272
		c-3.574,20.631-0.166,58.321,0.494,85.296c0.655,26.975-0.533,45.432,1.268,63.695c1.802,18.265,6.347,35.748,0.726,43.585
		C1497.914,1121.232,1482.216,1119.554,1467.945,1124.562z"/>
	<path id="deck_68_" d="M926.622,1120.198l-29.687-3.027l-4.055-51.605l-4.777-90.451l10.085-21.548l-3.816-93.779l40.267,5.777
		l38.992,1.694l3.988,69.134l-9.063,89.491l3.805,62.177l0.759,53.134L926.622,1120.198z"/>
	<path id="deck_67_" d="M1608.701,1136.211l-47.037-22.871l6.023-36.126l-12.693-84.002l9.797-45.013l3.822-83.43l26.455,11.354
		l37.605,30.065l7.371,54.891l4.754,39.438l-3.681,59.563l-0.902,68.417L1608.701,1136.211z"/>
	<path id="deck_66_" d="M266.644,1129.482c-18.189,0.056-36.437,10.752-40.88-3.926c-4.444-14.683,4.915-54.737,4.859-70.989
		c-0.057-16.254-9.529-8.705-8.294-27.521c1.234-18.816,13.174-63.995,13.918-89.558c0.744-25.563-9.708-31.511-6.508-42.57
		c3.2-11.062,20.052-27.234,36.906-27.234c16.852,0,33.706,16.173,36.906,27.234c3.199,11.062-7.253,17.008-6.509,42.57
		c0.744,25.562,13.118,71.498,13.918,89.558c0.8,18.059-8.473,10.867-8.294,27.521c0.177,16.652,9.395,56.467,4.858,70.989
		C302.987,1140.075,284.833,1129.422,266.644,1129.482L266.644,1129.482z"/>
	<path id="deck_65_" d="M399.264,1135.85c-19.031,0-38.083-6.291-45.545-15.125c-7.462-8.835-3.333-20.212-2.576-45.255
		c0.757-25.043-1.86-63.753-1.353-90.159c0.508-26.406,4.139-40.508,3.448-54.344c-0.692-13.837-5.705-27.407,1.245-40.407
		c6.951-12.999,25.866-25.429,44.781-25.429c18.916,0,37.831,12.431,44.782,25.429c6.95,12.999,1.936,26.57,1.245,40.407
		c-0.691,13.837,3.108,27.951,3.448,54.344c0.34,26.396-2.199,65.104-1.353,90.159c0.847,25.053,4.921,36.432-2.575,45.255
		C437.313,1129.548,418.295,1135.849,399.264,1135.85L399.264,1135.85z"/>
	<path id="deck_64_" d="M1729.701,1133.384l-33.229-12.284l-3.912-90.587l-3.279-4.364l-0.594-91.887l-3.461-38.884l44.475-27.78
		l44.474,27.78l-3.462,38.884l-0.594,91.887l-3.279,4.364l-3.91,90.587L1729.701,1133.384z"/>
	<path id="deck_63_" d="M1340.357,1122.785c-17.002-2.88-37.295,5.809-43.1,1.135c-5.807-4.672,2.873-22.707,3.539-44.922
		c0.665-22.213-6.684-48.605-7.51-66.523c-0.822-17.918,4.879-27.361,2.941-54.983c-1.938-27.621-11.513-73.422-7.047-85.742
		c4.464-12.322,22.967,8.838,40.227,17.03c17.258,8.191,33.271,3.419,38.264,6.233c4.99,2.812-1.042,13.216-3.704,31.369
		c-2.664,18.153-1.827,44.356-0.547,64.544s3.459,35.398,7.222,61.957c3.764,26.562,8.984,64.186,4.713,75.718
		C1371.082,1140.131,1357.362,1125.667,1340.357,1122.785z"/>
	<path id="deck_62_" d="M798.387,880.964l-44.474,25.434l12.034,36.018l-5.239,80.424l2.221,2.304l-7.331,79.893l42.788,14.981
		l42.788-14.981l-7.332-79.893l2.222-2.304l-5.238-80.424l12.033-36.018L798.387,880.964z"/>
	<path id="deck_61_" d="M932.854,516.279c-12.726-0.084-25.455-2.657-30.607,9.644c-5.153,12.3-2.729,39.477-3.218,50.748
		c-0.49,11.271-3.894,6.636-5.14,36.7c-1.247,30.063-0.336,94.827-0.025,131.407c0.311,36.579,0.022,44.975,6.421,47.42
		c6.399,2.446,19.484-1.059,32.569-1.059c13.086,0,26.172,3.506,32.57,1.059c6.398-2.445,6.109-10.842,6.42-47.42
		s1.245-102.429-0.025-131.407c-1.271-28.979-4.663-24.854-5.14-36.7c-0.476-11.848,1.941-38.679-3.218-50.748
		C958.304,513.854,945.581,516.363,932.854,516.279z"/>
	<path id="deck_60_" d="M399.287,513.808c-11.956,0.013-23.913,8.125-30.906,19.468s-9.02,25.914-9.066,47.512
		s1.885,50.223,2.38,75.044c0.497,24.821-0.445,45.839-1.554,71.167c-1.111,25.327-2.391,54.964,4.105,64.395
		c6.496,9.43,20.769-1.346,35.041-1.346c14.273,0,28.545,10.775,35.041,1.346c6.497-9.431,5.216-39.066,4.106-64.395
		c-1.11-25.327-2.045-46.179-1.555-71.167c0.489-24.988,2.425-53.534,2.38-75.044c-0.044-21.509-2.074-36.133-9.066-47.513
		C423.2,521.897,411.243,513.794,399.287,513.808z"/>
</g>
</svg>
