<?xml version="1.0" encoding="utf-8"?>
<!-- Generator: Adobe Illustrator 16.0.1, SVG Export Plug-In . SVG Version: 6.00 Build 0)  -->
<!DOCTYPE svg PUBLIC "-//W3C//DTD SVG 1.1//EN" "http://www.w3.org/Graphics/SVG/1.1/DTD/svg11.dtd">
<svg version="1.1" id="Layer_1" xmlns="http://www.w3.org/2000/svg" xmlns:xlink="http://www.w3.org/1999/xlink" x="0px" y="0px"
	 width="2000px" height="1333px" viewBox="0 0 2000 1333" enable-background="new 0 0 2000 1333" xml:space="preserve">
<rect y="0.5" fill="#FFFFFF" width="2000" height="1333"/>
<g>
	<path id="deck" d="M1372.891,295.761c-11.106,0.011-22.232,25.184-28.188,22.62c-5.955-2.563-6.739-32.864-5.312-56.784
		c1.43-23.92,5.071-41.458,6.415-61.078c1.344-19.621,0.392-41.321-3.993-59.352c-4.384-18.029-12.201-32.387-7.593-40.698
		c4.607-8.312,21.639-10.576,38.672-10.576c17.032,0,34.066,2.265,38.675,10.576c4.606,8.312-3.209,22.669-7.595,40.698
		c-4.385,18.03-5.203,39.873-3.992,59.352c1.212,19.479,4.917,37.083,6.413,61.078c1.497,23.996,0.667,54.253-5.312,56.784
		C1395.101,320.912,1383.999,295.749,1372.891,295.761z"/>
	<path id="deck_1_" d="M924.861,1244.274l-28.799-8.034l-7.899-81.745l-5.103-5.704l9.542-61.551l4.002-42.814l28.257-34.352
		l28.255,34.352l4.003,42.814l9.542,61.551l-5.104,5.704l-7.899,81.745L924.861,1244.274z"/>
	<path id="deck_4_" d="M1223.947,612.23l-39.88,20.651l0.959-58.449l1.819-84.383l-2.655-29.854l2.015-77.426l37.742-4.674
		l37.742,4.674l2.014,77.426l-2.655,29.854l1.819,84.383l0.961,58.449L1223.947,612.23z"/>
	<path id="deck_6_" d="M1373.612,390.762l35.523,10.475l7.243,62.548l-7.255,52.58l-2.692,37.307l-5.449,66.545l-27.37-1.468
		l-27.369,1.468l-5.45-66.545l-2.692-37.307l-7.257-52.58l7.246-62.548L1373.612,390.762z"/>
	<path id="deck_8_" d="M1672.558,300.848c-14.014,0.035-28.069,13.273-31.412,3.221c-3.341-10.051,4.031-43.391,2.312-67.024
		c-1.719-23.632-12.527-37.555-12.546-56.26c-0.021-18.703,10.748-42.188,13.276-53.349c2.529-11.159-3.184-9.996,0.173-13.908
		c3.354-3.915,15.775-12.908,28.196-12.908s24.842,8.993,28.196,12.908c3.355,3.912-2.355,2.749,0.174,13.908
		c2.527,11.16,13.615,35.122,13.276,53.349c-0.34,18.229-11.002,32.371-12.546,56.26c-1.546,23.888,5.724,57.083,2.312,67.024
		C1700.556,314.013,1686.571,300.809,1672.558,300.848z"/>
	<path id="deck_10_" d="M774.957,599.473l-37.076,23.89l-1.39-76.081l6.347-7.626l-5.364-80.628l0.762-46.433l36.721-24.979
		l36.72,24.979l0.764,46.433l-5.364,80.628l6.347,7.626l-1.391,76.081L774.957,599.473z"/>
	<path id="deck_12_" d="M1073.222,99.413l-32.175-3.557l-0.626,17.271l-8.086,64.615l9.23,71.275l-0.932,55.854l32.588,7.729
		l32.589-7.729l-0.932-55.854l9.23-71.275l-8.086-64.615l-0.628-17.271L1073.222,99.413z"/>
	<path id="deck_14_" d="M1223.947,1232.805l-27.562-8.539l-7.084-42.158l2.328-45.497l-0.146-53.283l2.846-49.465l29.618-12.318
		l29.618,12.318l2.845,49.465l-0.146,53.283l2.328,45.497l-7.084,42.158L1223.947,1232.805z"/>
	<path id="deck_15_" d="M773.551,309.859c-10.779-0.003-21.561,0.202-27.56-8.541c-6-8.741-7.216-26.432-7.085-42.157
		c0.131-15.727,1.608-29.485,2.327-45.497c0.719-16.012,0.679-34.272-0.145-53.283c-0.826-19.011-2.436-38.771,2.845-49.465
		c5.279-10.692,17.449-12.319,29.618-12.319c12.17,0,24.339,1.627,29.618,12.319c5.28,10.693,3.67,30.454,2.845,49.465
		c-0.824,19.01-0.833,37.244-0.145,53.283c0.688,16.042,2.18,29.788,2.327,45.497c0.146,15.709-1.08,33.406-7.084,42.157
		C795.107,310.07,784.33,309.86,773.551,309.859L773.551,309.859z"/>
	<path id="deck_18_" d="M176.312,605.384c-17.678,0.027-35.421,18.418-38.556,18.499c-3.134,0.08,8.339-18.154,7.835-41.269
		c-0.503-23.11-12.983-51.105-12.383-76.391c0.6-25.286,14.281-47.861,15.458-60.582c1.177-12.719-10.151-15.578-7.628-27.035
		c2.523-11.459,18.898-31.515,35.273-31.515s32.749,20.056,35.272,31.515c2.524,11.457-8.805,14.316-7.627,27.035
		c1.178,12.721,15.343,35.677,15.458,60.582c0.116,24.904-12.141,53.072-12.383,76.391c-0.241,23.323,11.073,41.438,7.836,41.269
		C211.628,623.712,193.99,605.354,176.312,605.384z"/>
	<path id="deck_20_" d="M1223.06,112.688c-11.329-0.024-22.655,1.944-28.125,8.499c-5.473,6.556-5.089,17.7-4.376,35.533
		c0.713,17.834,1.753,42.359,1.734,64.781c-0.017,22.423-1.091,42.745-1.725,54.939c-0.635,12.197-0.829,16.268,4.66,18.03
		c5.488,1.763,16.657,1.217,27.831,1.217c11.171,0,22.342,0.546,27.83-1.217c5.491-1.763,5.295-5.833,4.662-18.03
		c-0.636-12.195-1.727-32.831-1.727-54.939s1.033-46.776,1.734-64.781c0.703-18.005,1.093-29.053-4.374-35.533
		C1245.719,114.708,1234.388,112.712,1223.06,112.688z"/>
	<path id="deck_22_" d="M475.629,619.528l-27.289,12.032l-6.143-53.155l-5.412-104.465l2.17-42.668l-3.941-12.098l40.616-39.759
		l40.615,39.759l-3.941,12.098l2.17,42.668l-5.412,104.465l-6.143,53.155L475.629,619.528z"/>
	<path id="deck_24_" d="M324.047,318.14c-11.029,0.022-22.086,14.355-27.29,12.033c-5.203-2.324-4.549-21.305-6.142-53.156
		c-1.594-31.852-5.437-76.57-5.413-104.464c0.024-27.893,3.912-38.959,2.169-42.668c-1.742-3.709-9.115-0.062-3.941-12.097
		c5.175-12.037,22.896-39.76,40.616-39.76s35.441,27.723,40.615,39.76c5.174,12.035-2.199,8.388-3.941,12.097
		c-1.742,3.71,2.364,15.062,2.169,42.668s-3.935,72.452-5.412,104.464c-1.477,32.013-0.895,50.912-6.143,53.156
		C346.088,332.416,335.075,318.117,324.047,318.14z"/>
	<path id="deck_26_" d="M1523.331,630.209c-14.799,0.011-29.643-1.506-35.073-5.97c-5.43-4.464-1.449-11.874-1.731-37.986
		c-0.283-26.111-4.833-70.927-3.252-100.753c1.58-29.824,9.291-44.659,8.185-56.13c-1.104-11.47-11.024-19.572-7.183-28.855
		c3.843-9.283,21.45-19.746,39.055-19.746c17.606,0,35.213,10.463,39.056,19.746s-6.077,17.386-7.183,28.855
		c-1.105,11.471,6.946,26.439,8.185,56.13c1.239,29.694-3.153,74.563-3.251,100.753c-0.1,26.189,3.77,33.564-1.732,37.986
		C1552.904,628.661,1538.131,630.198,1523.331,630.209z"/>
	<path id="deck_28_" d="M923.387,92.15l-41.703,23.849l11.284,33.771l-4.912,75.415l2.083,2.16l-6.873,74.913l40.121,14.048
		l40.122-14.048l-6.875-74.913l2.083-2.16l-4.911-75.415l11.283-33.771L923.387,92.15z"/>
	<path id="deck_30_" d="M1822.396,110.731c-18.728,0.046-37.531-32.958-39.942-27.185c-2.413,5.771,11.564,50.318,11.873,75.645
		c0.305,25.326-13.061,31.429-13.127,40.846c-0.064,9.418,13.165,22.148,11.826,50.207c-1.341,28.06-17.251,71.445-14.784,75.112
		c2.466,3.667,23.31-32.386,44.154-32.386s41.688,36.054,44.156,32.386c2.467-3.667-13.446-47.053-14.786-75.112
		c-1.34-28.059,12.457-40.195,11.826-50.207c-0.632-10.012-13.736-15.843-13.125-40.846s14.404-69.731,11.872-75.645
		C1859.809,77.631,1841.123,110.686,1822.396,110.731L1822.396,110.731z"/>
	<path id="deck_32_" d="M623.717,301.405c-15.254-0.004-30.539,21.795-34.024,8.501c-3.484-13.295,4.831-61.682,4.583-76.972
		c-0.247-15.291-9.058,2.516-10.743-1.156c-1.686-3.671,3.753-28.82,3.002-55.537c-0.752-26.718-7.693-55.005-2.526-68.825
		c5.166-13.819,22.437-13.171,39.708-13.171c17.271,0,34.542-0.648,39.708,13.171c5.166,13.821-1.775,42.108-2.527,68.825
		c-0.75,26.716,4.929,51.802,3.002,55.537c-1.926,3.735-10.625-14.094-10.742,1.156c-0.118,15.249,8.119,63.647,4.583,76.972
		C654.205,323.23,638.971,301.41,623.717,301.405z"/>
	<path id="deck_34_" d="M473.881,332.509l-35.793-7.259l-3.852-63.425l-3.992-74.299l0.917-47.214l4.279-55.232l38.442-9.132
		l38.443,9.132l4.279,55.232l0.917,47.214l-3.992,74.299l-3.852,63.425L473.881,332.509z"/>
	<path id="deck_36_" d="M174.211,307.896c-12.693-0.036-25.389,21.319-31.1,17.804c-5.712-3.519-4.441-31.906-4.843-56.551
		c-0.403-24.646-2.479-45.547-3.545-58.776c-1.064-13.23-1.118-18.793-1.397-36.523c-0.28-17.731-0.785-47.636,5.992-66.078
		c6.776-18.442,20.834-25.426,34.894-25.426c14.059,0,28.117,6.983,34.895,25.426c6.776,18.442,6.271,48.347,5.992,66.078
		c-0.28,17.731-0.324,22.821-1.398,36.523c-1.074,13.7-3.148,34.383-3.545,58.776c-0.397,24.393,0.871,52.928-4.842,56.551
		C199.599,329.321,186.906,307.933,174.211,307.896L174.211,307.896z"/>
	<path id="deck_38_" d="M1822.604,392.575c-17.361,0.018-34.723,26.373-41.041,38.698c-6.32,12.327-1.601,10.625,0.543,22.058
		c2.146,11.431,1.715,35.995,1.688,55.838c-0.027,19.841,0.349,34.957,1.301,55.971c0.953,21.011,2.484,47.92,8.832,52.505
		c6.35,4.586,17.515-13.152,28.678-13.152c11.164,0,22.328,17.738,28.676,13.152c6.348-4.585,7.88-31.494,8.833-52.505
		c0.954-21.014,1.306-35.901,1.302-55.971c-0.006-20.068-0.445-44.528,1.688-55.838c2.132-11.312,6.857-9.681,0.542-22.058
		C1857.329,418.896,1839.966,392.558,1822.604,392.575L1822.604,392.575z"/>
	<path id="deck_42_" d="M1681.518,621.655c-16.919-4.838-41.911-13.716-49.661-20.655c-7.75-6.938,1.744-11.937,7.329-24.012
		c5.586-12.076,7.265-31.229,4.797-60.718c-2.471-29.483-9.086-69.303-10.205-90.869c-1.117-21.566,3.265-24.881,11.213-29.004
		c7.949-4.123,19.468-9.054,30.048-10.462c10.582-1.409,20.228,0.706,26.741,6.633c6.517,5.929,9.903,15.671,12.121,35.402
		s3.221,49.84,3.019,77.23c-0.201,27.394-1.77,53.405-2.146,73.796c-0.376,20.392,0.479,34.811-3.505,41.57
		C1707.285,627.326,1698.438,626.493,1681.518,621.655L1681.518,621.655z"/>
	<path id="deck_44_" d="M1043.413,617.301l2.095-46.896l-12.749-50.827l0.13-65.01l10.721-45.348l30.435-19.611l25.432-1.71
		l16.333,40.562l-13.819,64.303l1.265,40.231l0.96,72.189l-34.539,17.893L1043.413,617.301z"/>
	<path id="deck_45_" d="M622.881,603.646l-38.675,8.323l9.075-61.087l-7.836-35.509l2.182-52.631l9.292-71.842l31.882,21.977
		l37.58-1.098l-14.367,59.578l4.97,5.391l-1.143,69.838l3.379,73.489L622.881,603.646z"/>
	<path id="deck_48_" d="M1519.672,304.329l-34.996-5.97l3.732-43.834l1.367-53.521l-3.487-36.667l5.426-57.942l38.842-16.598
		l30.005,21.089l-6.679,43.42l-3.923,39.584l10.819,77.673l-7.195,47.098L1519.672,304.329z"/>
	<path id="deck_2_" d="M474.228,686.902c-12.812,0.045-25.639,0.845-29.734,6.641s0.542,16.589,0.6,31.834
		c0.057,15.246-4.467,34.945-4.943,52.066c-0.475,17.122,3.098,31.665,3.458,61.531c0.359,29.865-2.494,75.054,2.074,90.208
		c4.567,15.153,16.556,0.272,28.546,0.272c11.989,0,23.979,14.881,28.545-0.272c4.568-15.154,1.714-60.343,2.074-90.208
		c0.361-29.866,4.058-43.816,3.458-61.531c-0.601-17.714-5.067-37.141-4.943-52.066c0.125-14.926,4.723-25.9,0.6-31.834
		C499.84,687.61,487.039,686.856,474.228,686.902L474.228,686.902z"/>
	<path id="deck_5_" d="M1225.275,677.828l-45.338,44.086l16.087,9.173l-12.779,89.853l9.773,38.706l-12.039,85.415l44.296-5.048
		l44.296,5.048l-12.04-85.415l9.773-38.706l-12.778-89.853l16.087-9.173L1225.275,677.828z"/>
	<path id="deck_9_" d="M1075.055,705.222c-16.544,0.042-33.111-11.339-37.771-2.734c-4.658,8.604,2.591,37.193,3.949,59.18
		c1.36,21.988-3.171,37.372-3.186,49.085c-0.016,11.714,4.483,19.755,4.55,42.06c0.065,22.305-4.305,58.87,0.364,68.19
		c4.672,9.32,18.383-8.607,32.094-8.607s27.422,17.928,32.094,8.607c4.669-9.319,0.299-45.886,0.364-68.19s4.737-29.794,4.55-42.06
		c-0.187-12.265-4.64-27.394-3.186-49.085c1.451-21.688,8.643-50.448,3.947-59.18C1108.13,693.756,1091.598,705.18,1075.055,705.222
		z"/>
	<path id="deck_13_" d="M618.868,940.89c-16.781,6.404-30.469,12.818-33.105-0.587c-2.636-13.406,5.778-46.634,5.771-68.348
		c-0.007-21.712-8.434-31.91-10.561-44.918c-2.127-13.007,2.046-28.825,3.526-51.957c1.48-23.133,0.269-53.579,7.304-72.483
		s22.317-26.269,36.756-27.656c14.439-1.387,28.034,3.203,32.526,21.88c4.492,18.679-0.121,51.444,0.605,76.307
		c0.725,24.861,6.994,41.512,6.817,60.611c-0.177,19.098-6.083,39.584-5.81,54.361c0.274,14.776,6.531,24.129-0.316,32.053
		C655.535,928.076,635.649,934.487,618.868,940.89L618.868,940.89z"/>
	<path id="deck_3_" d="M1527.755,925.011c-13.061,4.585-24.825,15.242-29.897,5.302c-5.071-9.94-3.451-40.479-6.209-59.624
		c-2.759-19.146-9.895-26.898-8.908-43.213c0.985-16.315,10.094-41.192,11.653-64.867s-4.428-46.149,1.488-59.271
		c5.916-13.122,23.734-16.891,39.768-13.9c16.034,2.989,30.281,12.74,32.691,19.542c2.411,6.801-7.016,10.653-10.287,29.539
		c-3.272,18.885-0.152,53.384,0.451,78.074c0.601,24.691-0.488,41.586,1.161,58.303c1.649,16.718,5.81,32.722,0.664,39.895
		C1555.186,921.963,1540.816,920.427,1527.755,925.011z"/>
	<path id="deck_7_" d="M919.15,921.018l-27.173-2.772l-3.712-47.235l-4.372-82.793l9.231-19.724l-3.494-85.839l36.857,5.288
		l35.69,1.551l3.65,63.28l-8.295,81.915l3.483,56.912l0.695,48.635L919.15,921.018z"/>
	<path id="deck_11_" d="M1683.955,935.674l-43.054-20.935l5.513-33.067l-11.618-76.89l8.968-41.201l3.498-76.366l24.216,10.393
		l34.421,27.521l6.747,50.243l4.352,36.098l-3.369,54.521l-0.826,62.624L1683.955,935.674z"/>
	<path id="deck_16_" d="M173.853,929.515c-16.649,0.052-33.352,9.842-37.419-3.594c-4.068-13.438,4.499-50.103,4.448-64.979
		c-0.052-14.877-8.722-7.968-7.592-25.19c1.129-17.223,12.059-58.576,12.74-81.974c0.681-23.399-8.887-28.844-5.958-38.967
		c2.929-10.125,18.354-24.929,33.781-24.929c15.426,0,30.852,14.804,33.781,24.929c2.928,10.125-6.639,15.568-5.958,38.967
		c0.681,23.396,12.007,65.443,12.74,81.974s-7.755,9.947-7.592,25.19c0.162,15.243,8.6,51.687,4.447,64.979
		C207.12,939.211,190.502,929.46,173.853,929.515L173.853,929.515z"/>
	<path id="deck_19_" d="M324.011,935.343c-17.419,0-34.859-5.758-41.689-13.844c-6.83-8.087-3.05-18.501-2.357-41.424
		c0.692-22.923-1.703-58.354-1.238-82.525c0.465-24.17,3.789-37.078,3.156-49.742c-0.633-12.666-5.222-25.087,1.14-36.986
		c6.362-11.898,23.676-23.275,40.989-23.275c17.314,0,34.627,11.378,40.99,23.275c6.362,11.898,1.772,24.32,1.14,36.986
		c-0.632,12.665,2.845,25.584,3.156,49.742c0.312,24.16-2.013,59.593-1.238,82.525c0.775,22.932,4.504,33.348-2.357,41.424
		C358.839,929.574,341.431,935.342,324.011,935.343L324.011,935.343z"/>
	<path id="deck_17_" d="M1826.104,933.086l-30.415-11.244l-3.581-82.917l-3.001-3.994l-0.544-84.107l-3.168-35.592l40.709-25.428
		l40.708,25.428l-3.169,35.592l-0.544,84.107l-3.001,3.994l-3.579,82.917L1826.104,933.086z"/>
	<path id="deck_23_" d="M1382.691,923.385c-15.563-2.636-34.138,5.316-39.451,1.038c-5.314-4.276,2.63-20.784,3.239-41.118
		c0.608-20.332-6.118-44.489-6.873-60.891c-0.754-16.401,4.465-25.045,2.691-50.328c-1.773-25.282-10.537-67.205-6.45-78.482
		c4.086-11.278,21.022,8.09,36.82,15.588c15.797,7.498,30.455,3.13,35.024,5.706c4.568,2.574-0.954,12.097-3.391,28.713
		c-2.438,16.616-1.673,40.602-0.501,59.08c1.173,18.478,3.167,32.4,6.611,56.711c3.444,24.312,8.224,58.751,4.313,69.306
		C1410.813,939.262,1398.256,926.022,1382.691,923.385z"/>
	<path id="deck_21_" d="M774.653,702.038l-40.708,23.28l11.015,32.968l-4.795,73.615l2.033,2.108l-6.709,73.128l39.165,13.713
		l39.165-13.713l-6.71-73.128l2.034-2.108l-4.794-73.615l11.014-32.968L774.653,702.038z"/>
	<path id="deck_25_" d="M1523.275,1021.993l-42.5,32.945l5.08,62.178l5.455,21.423l-10.164,88.23l9.588,5.586l32.541-2.118
		l32.541,2.118l9.588-5.586l-10.164-88.23l5.457-21.423l5.078-62.178L1523.275,1021.993z"/>
	<path id="deck_29_" d="M324.002,1004.886c-16.372-0.002-32.768,11.052-36.232,28.647c-3.463,17.596,6.005,41.733,5.952,58.415
		c-0.054,16.68-9.63,25.902-11.562,38.988s3.781,30.036,4.655,46.527c0.874,16.49-3.091,32.522,2.301,46.399
		s20.139,25.599,34.886,25.599s29.495-11.722,34.886-25.599c5.392-13.877,1.426-29.909,2.301-46.399
		c0.875-16.491,6.775-33.458,4.655-46.527c-2.12-13.068-11.61-22.301-11.562-38.988c0.049-16.689,9.458-40.82,5.952-58.415
		S340.373,1004.887,324.002,1004.886z"/>
	<path id="deck_33_" d="M474.24,1014.792c-11.703,0.131-23.441,8.109-27.487,15.551c-4.046,7.443-0.398,14.348-2.982,38.902
		c-2.583,24.555-11.396,66.758-11.211,75.115c0.184,8.357,9.366-17.131,11.729,1.424s-2.092,81.152,1.764,91.959
		s16.021-30.176,28.188-30.176s24.332,40.982,28.188,30.176s-0.6-73.404,1.764-91.959c2.363-18.557,11.81,8.635,11.729-1.424
		c-0.08-10.057-8.772-51.469-11.211-75.115c-2.44-23.645,1.122-31.082-2.982-38.902
		C497.623,1022.524,485.943,1014.659,474.24,1014.792L474.24,1014.792z"/>
	<path id="deck_37_" d="M1074.284,1019.902l-36.821,28.412l3.047,38.433l-6.923,69.094l2.765,14.982l1.995,63.622l35.938-5.464
		l35.938,5.464l1.995-63.622l2.765-14.982l-6.923-69.094l3.047-38.432L1074.284,1019.902z"/>
	<path id="deck_40_" d="M774.957,1002.382c-10.203-0.044-20.403,3.688-26.201,9.181c-5.799,5.492-7.196,12.744-8.017,26.379
		c-0.82,13.634-1.065,33.649-1.082,65.489c-0.016,31.84,0.196,75.505,0.866,104.101c0.67,28.595,1.797,42.121,7.612,44.149
		c5.815,2.028,16.318-7.439,26.821-7.439c10.503,0,21.006,9.469,26.821,7.439c5.815-2.028,6.942-15.555,7.613-44.149
		c0.67-28.595,0.864-72.842,0.866-104.101c0.002-31.259-0.251-51.545-1.082-65.489c-0.831-13.945-2.221-21.016-8.016-26.379
		C795.363,1006.198,785.16,1002.427,774.957,1002.382z"/>
	<path id="deck_43_" d="M924.855,378.939c-11.648-0.077-23.3-2.433-28.016,8.827c-4.717,11.259-2.498,36.135-2.946,46.451
		s-3.563,6.074-4.704,33.593c-1.141,27.519-0.308,86.798-0.023,120.281c0.285,33.481,0.021,41.167,5.877,43.405
		c5.856,2.238,17.834-0.97,29.812-0.97s23.955,3.209,29.812,0.97c5.856-2.238,5.592-9.925,5.877-43.405
		c0.285-33.481,1.14-93.757-0.023-120.281s-4.268-22.749-4.704-33.593c-0.436-10.845,1.777-35.404-2.946-46.451
		C948.15,376.719,936.504,379.016,924.855,378.939z"/>
	<path id="deck_50_" d="M324.032,376.677c-10.943,0.012-21.889,7.438-28.289,17.82c-6.4,10.382-8.256,23.72-8.299,43.489
		s1.726,45.971,2.179,68.69c0.454,22.72-0.407,41.958-1.423,65.141c-1.017,23.183-2.188,50.311,3.758,58.942
		s19.011-1.231,32.074-1.231c13.064,0,26.128,9.863,32.074,1.231s4.774-35.759,3.759-58.942
		c-1.017-23.183-1.872-42.269-1.424-65.141s2.22-49.002,2.179-68.69c-0.04-19.688-1.898-33.074-8.299-43.49
		C345.92,384.081,334.976,376.665,324.032,376.677z"/>
	<path id="deck_52_" d="M173.809,997.653c-16.703,0.014-33.434,10.045-38.034,20.195c-4.602,10.15,2.928,20.42,4.49,35.453
		c1.562,15.034-2.841,34.834-2.854,56.603s4.365,45.509,3.391,73.677c-0.974,28.168-7.301,60.766-2.691,69.99
		s20.153-4.924,35.698-4.924c15.544,0,31.089,14.148,35.697,4.924c4.609-9.225-1.718-41.822-2.691-69.99
		c-0.975-28.168,3.611-51.736,3.391-73.677c-0.22-21.94-4.527-41.661-2.853-56.603c1.674-14.939,9.135-25.261,4.49-35.453
		C207.199,1007.657,190.511,997.642,173.809,997.653L173.809,997.653z"/>
	<path id="deck_54_" d="M1823.703,1010.67c-11.43-0.169-21.532,4.271-27.276,17.897c-5.743,13.625-7.128,36.437-6.884,54.318
		s2.115,30.832,3.813,44.902c1.698,14.071,3.224,29.262,2.576,50.733c-0.646,21.474-3.465,49.229-1.144,57.991
		c2.322,8.765,9.783-1.464,21.354-0.408c11.57,1.055,27.251,13.393,34.313,4.188s5.507-39.949,3.717-63.391
		c-1.791-23.441-3.825-39.297-4.984-53.974c-1.159-14.678-1.473-27.2,0.574-43.823s6.464-37.609,2.296-50.538
		C1847.891,1015.638,1835.133,1010.84,1823.703,1010.67z"/>
	<path id="deck_47_" d="M1373.611,997.296l-26.55,6.625l-10.26,24.393l-0.832,180.26l5.038,9.453l-1.59,31.342l34.193,7.684
		l34.193-7.684l-1.59-31.342l5.038-9.453l-0.832-180.26l-10.26-24.393L1373.611,997.296z"/>
	<path id="deck_27_" d="M1672.562,1239.5l-37.007-16.497l8.58-36.414l-13.096-62.974l10.251-55.719l-4.133-8.115l35.404-44.934
		l35.404,44.934l-4.133,8.115l10.251,55.719l-13.096,62.974l8.58,36.414L1672.562,1239.5z"/>
	<path id="deck_35_" d="M623.417,1253.656c-16.473,0.999-25.736-26.533-29.703-38.785c-3.968-12.251-2.639-9.223-0.124-26.51
		c2.514-17.286,6.213-54.89,6.17-78.443c-0.043-23.556-3.827-33.062-9.492-42.976s-13.211-20.232-5.025-31.979
		c8.186-11.748,32.101-24.925,46.5-30.893c14.4-5.968,19.283-4.726,23.314,8.804c4.032,13.529,7.213,39.346,9.558,57.535
		c2.346,18.189,3.824,28.455,0.178,47.917c-3.646,19.461-12.53,47.099-9.673,60.901c2.856,13.803,17.486,14.034,12.97,28.95
		C663.571,1223.095,639.888,1252.657,623.417,1253.656L623.417,1253.656z"/>
</g>
</svg>
