<?xml version="1.0" encoding="utf-8"?>
<!-- Generator: Adobe Illustrator 16.0.1, SVG Export Plug-In . SVG Version: 6.00 Build 0)  -->
<!DOCTYPE svg PUBLIC "-//W3C//DTD SVG 1.1//EN" "http://www.w3.org/Graphics/SVG/1.1/DTD/svg11.dtd">
<svg version="1.1" id="Layer_1" xmlns="http://www.w3.org/2000/svg" xmlns:xlink="http://www.w3.org/1999/xlink" x="0px" y="0px"
	 width="2100px" height="1483px" viewBox="0 0 2100 1483" enable-background="new 0 0 2100 1483" xml:space="preserve">
<rect y="-0.5" fill="#FFFFFF" width="2100" height="1483"/>
<g>
	<path id="deck" d="M1422.891,370.26c-11.104,0.011-22.229,25.185-28.188,22.62c-5.955-2.563-6.74-32.864-5.312-56.784
		c1.433-23.92,5.07-41.458,6.414-61.078c1.346-19.621,0.396-41.321-3.992-59.352c-4.385-18.029-12.198-32.387-7.594-40.698
		c4.607-8.312,21.642-10.576,38.672-10.576c17.033,0,34.066,2.265,38.679,10.576c4.604,8.312-3.209,22.669-7.599,40.698
		c-4.385,18.03-5.201,39.873-3.99,59.352c1.214,19.479,4.918,37.083,6.412,61.078c1.496,23.996,0.668,54.253-5.312,56.784
		C1445.1,395.411,1433.998,370.248,1422.891,370.26z"/>
	<path id="deck_1_" d="M974.861,1318.773l-28.799-8.034l-7.899-81.745l-5.104-5.704l9.542-61.551l4.003-42.814l28.259-34.352
		l28.255,34.352l4.003,42.814l9.542,61.551l-5.104,5.704l-7.896,81.745L974.861,1318.773z"/>
	<path id="deck_4_" d="M1273.947,686.729l-39.881,20.649l0.959-58.449l1.816-84.383l-2.654-29.854l2.017-77.427l37.743-4.674
		l37.74,4.674l2.016,77.427l-2.656,29.854l1.82,84.383l0.961,58.449L1273.947,686.729z"/>
	<path id="deck_6_" d="M1423.611,465.261l35.521,10.476l7.244,62.548l-7.256,52.58l-2.691,37.307l-5.446,66.545l-27.371-1.468
		l-27.369,1.468l-5.449-66.545l-2.691-37.307l-7.258-52.58l7.246-62.548L1423.611,465.261z"/>
	<path id="deck_8_" d="M1722.557,375.347c-14.014,0.035-28.065,13.273-31.41,3.221c-3.342-10.051,4.029-43.391,2.312-67.024
		c-1.719-23.632-12.527-37.555-12.547-56.26c-0.021-18.703,10.748-42.188,13.275-53.349c2.528-11.159-3.185-9.996,0.174-13.908
		c3.354-3.915,15.772-12.908,28.194-12.908s24.845,8.993,28.195,12.908c3.354,3.912-2.354,2.749,0.174,13.908
		c2.527,11.16,13.615,35.122,13.277,53.349c-0.341,18.229-11.002,32.371-12.548,56.26c-1.545,23.888,5.726,57.083,2.312,67.024
		C1750.555,388.512,1736.57,375.308,1722.557,375.347z"/>
	<path id="deck_10_" d="M824.957,673.972l-37.076,23.893l-1.39-76.081l6.347-7.626l-5.364-80.628l0.765-46.436l36.721-24.979
		l36.72,24.979l0.767,46.436l-5.364,80.628l6.347,7.626l-1.391,76.081L824.957,673.972z"/>
	<path id="deck_12_" d="M1123.221,173.912l-32.175-3.557l-0.626,17.271l-8.086,64.615l9.229,71.275l-0.933,55.854l32.588,7.729
		l32.589-7.729l-0.932-55.854l9.229-71.275l-8.086-64.615l-0.628-17.271L1123.221,173.912z"/>
	<path id="deck_14_" d="M1273.947,1307.304l-27.563-8.539l-7.084-42.155l2.328-45.497l-0.146-53.283l2.846-49.465l29.619-12.318
		l29.617,12.318l2.846,49.465l-0.146,53.283l2.328,45.497l-7.084,42.155L1273.947,1307.304z"/>
	<path id="deck_15_" d="M823.55,384.358c-10.776-0.003-21.561,0.202-27.56-8.541c-6-8.741-7.216-26.432-7.085-42.157
		c0.131-15.727,1.605-29.485,2.327-45.497c0.719-16.012,0.679-34.272-0.146-53.283c-0.826-19.011-2.436-38.771,2.845-49.465
		c5.279-10.692,17.449-12.319,29.618-12.319c12.17,0,24.339,1.627,29.618,12.319c5.28,10.693,3.67,30.454,2.845,49.465
		c-0.823,19.01-0.833,37.244-0.145,53.283c0.688,16.042,2.18,29.788,2.327,45.497c0.146,15.709-1.08,33.406-7.084,42.157
		C845.107,384.569,834.33,384.359,823.55,384.358L823.55,384.358z"/>
	<path id="deck_18_" d="M226.312,679.883c-17.678,0.027-35.421,18.418-38.556,18.499c-3.134,0.08,8.339-18.153,7.835-41.269
		c-0.503-23.11-12.983-51.105-12.383-76.394c0.6-25.284,14.281-47.858,15.458-60.582c1.177-12.719-10.151-15.575-7.628-27.032
		c2.523-11.459,18.898-31.518,35.273-31.518s32.749,20.059,35.272,31.518c2.524,11.457-8.805,14.313-7.627,27.032
		c1.178,12.724,15.343,35.68,15.458,60.582c0.116,24.904-12.141,53.072-12.383,76.394c-0.241,23.323,11.073,41.438,7.836,41.269
		C261.627,698.211,243.99,679.854,226.312,679.883z"/>
	<path id="deck_20_" d="M1273.061,187.187c-11.327-0.024-22.654,1.944-28.125,8.499c-5.475,6.556-5.091,17.7-4.377,35.533
		c0.715,17.834,1.755,42.359,1.733,64.781c-0.017,22.423-1.091,42.745-1.725,54.939c-0.636,12.197-0.829,16.268,4.66,18.03
		c5.485,1.763,16.654,1.217,27.831,1.217c11.172,0,22.342,0.546,27.83-1.217c5.489-1.763,5.295-5.833,4.659-18.03
		c-0.635-12.195-1.727-32.831-1.727-54.939s1.033-46.776,1.733-64.781c0.701-18.005,1.095-29.053-4.375-35.533
		C1295.719,189.207,1284.387,187.211,1273.061,187.187z"/>
	<path id="deck_22_" d="M525.628,694.027l-27.289,12.03l-6.143-53.152l-5.412-104.466l2.17-42.668l-3.941-12.1l40.616-39.759
		l40.615,39.759l-3.941,12.1l2.17,42.668l-5.41,104.466l-6.145,53.153L525.628,694.027z"/>
	<path id="deck_24_" d="M374.046,392.639c-11.029,0.022-22.086,14.355-27.29,12.033c-5.203-2.324-4.549-21.305-6.142-53.156
		c-1.595-31.852-5.438-76.57-5.413-104.464c0.023-27.893,3.912-38.959,2.169-42.668c-1.742-3.709-9.115-0.062-3.941-12.097
		c5.175-12.037,22.896-39.76,40.616-39.76s35.441,27.723,40.615,39.76c5.174,12.035-2.199,8.388-3.941,12.097
		c-1.742,3.71,2.364,15.062,2.169,42.668c-0.192,27.606-3.935,72.452-5.412,104.464c-1.477,32.013-0.895,50.912-6.143,53.156
		C396.087,406.915,385.075,392.616,374.046,392.639z"/>
	<path id="deck_26_" d="M1573.33,704.708c-14.799,0.011-29.643-1.506-35.072-5.97c-5.429-4.464-1.449-11.874-1.729-37.986
		c-0.283-26.111-4.832-70.927-3.252-100.753c1.579-29.824,9.291-44.659,8.186-56.13c-1.104-11.47-11.022-19.572-7.184-28.855
		c3.844-9.282,21.451-19.746,39.055-19.746c17.607,0,35.213,10.464,39.06,19.746c3.842,9.283-6.078,17.389-7.187,28.855
		c-1.104,11.471,6.947,26.438,8.188,56.13c1.237,29.694-3.154,74.562-3.252,100.753c-0.103,26.189,3.77,33.564-1.732,37.986
		C1602.904,703.16,1588.131,704.697,1573.33,704.708z"/>
	<path id="deck_28_" d="M973.386,166.649l-41.703,23.849l11.284,33.771l-4.912,75.415l2.083,2.16l-6.873,74.913l40.121,14.048
		l40.122-14.048l-6.875-74.913l2.083-2.16l-4.911-75.415l11.283-33.771L973.386,166.649z"/>
	<path id="deck_30_" d="M1872.396,185.23c-18.73,0.046-37.531-32.958-39.943-27.185c-2.412,5.771,11.562,50.318,11.873,75.645
		c0.305,25.326-13.062,31.429-13.127,40.846c-0.064,9.418,13.166,22.148,11.826,50.207c-1.34,28.06-17.25,71.445-14.783,75.112
		c2.465,3.667,23.309-32.387,44.154-32.387c20.844,0,41.688,36.055,44.154,32.387c2.469-3.668-13.445-47.054-14.785-75.112
		c-1.343-28.059,12.457-40.195,11.823-50.207c-0.631-10.012-13.733-15.843-13.125-40.846c0.611-25.003,14.404-69.731,11.873-75.645
		C1909.809,152.13,1891.123,185.185,1872.396,185.23L1872.396,185.23z"/>
	<path id="deck_32_" d="M673.716,375.904c-15.254-0.004-30.539,21.795-34.021,8.501c-3.484-13.295,4.831-61.682,4.583-76.972
		c-0.247-15.291-9.061,2.516-10.743-1.156c-1.688-3.671,3.753-28.82,3.002-55.537c-0.752-26.718-7.693-55.005-2.526-68.825
		c5.166-13.819,22.438-13.171,39.708-13.171c17.271,0,34.542-0.648,39.708,13.171c5.166,13.821-1.772,42.108-2.524,68.825
		c-0.75,26.716,4.929,51.802,3.002,55.537c-1.929,3.735-10.625-14.094-10.742,1.156c-0.118,15.249,8.119,63.647,4.583,76.972
		C704.205,397.729,688.97,375.909,673.716,375.904z"/>
	<path id="deck_34_" d="M523.88,407.008l-35.793-7.259l-3.852-63.425l-3.992-74.299l0.917-47.214l4.279-55.232l38.439-9.132
		l38.443,9.132l4.276,55.232l0.919,47.214l-3.991,74.299l-3.854,63.425L523.88,407.008z"/>
	<path id="deck_36_" d="M224.21,382.395c-12.693-0.036-25.389,21.319-31.1,17.804c-5.712-3.52-4.441-31.906-4.843-56.551
		c-0.403-24.646-2.479-45.547-3.545-58.776c-1.064-13.23-1.118-18.793-1.397-36.523c-0.28-17.731-0.785-47.636,5.992-66.078
		c6.776-18.442,20.834-25.426,34.894-25.426c14.059,0,28.117,6.983,34.895,25.426c6.776,18.442,6.271,48.347,5.992,66.078
		c-0.28,17.731-0.324,22.821-1.398,36.523c-1.074,13.7-3.148,34.383-3.545,58.776s0.871,52.928-4.842,56.551
		C249.599,403.82,236.906,382.432,224.21,382.395L224.21,382.395z"/>
	<path id="deck_38_" d="M1872.604,467.074c-17.358,0.018-34.723,26.373-41.041,38.698c-6.317,12.324-1.602,10.624,0.543,22.058
		c2.146,11.431,1.718,35.995,1.688,55.838c-0.027,19.841,0.35,34.957,1.301,55.971c0.953,21.014,2.484,47.92,8.832,52.506
		c6.353,4.588,17.519-13.15,28.681-13.15s22.326,17.738,28.676,13.15c6.348-4.586,7.881-31.492,8.834-52.506
		s1.305-35.898,1.301-55.971c-0.006-20.068-0.445-44.528,1.689-55.838c2.133-11.312,6.854-9.681,0.543-22.058
		C1907.328,493.396,1889.965,467.057,1872.604,467.074L1872.604,467.074z"/>
	<path id="deck_42_" d="M1731.518,696.154c-16.92-4.838-41.91-13.717-49.66-20.655s1.742-11.938,7.328-24.012
		c5.586-12.076,7.267-31.229,4.797-60.721c-2.471-29.48-9.086-69.303-10.202-90.866c-1.117-21.566,3.264-24.884,11.213-29.006
		c7.946-4.124,19.467-9.055,30.047-10.461c10.582-1.408,20.229,0.706,26.742,6.634c6.516,5.929,9.899,15.671,12.118,35.401
		c2.22,19.731,3.224,49.84,3.021,77.23c-0.201,27.394-1.771,53.404-2.146,73.796s0.479,34.811-3.506,41.57
		C1757.285,701.824,1748.438,700.992,1731.518,696.154L1731.518,696.154z"/>
	<path id="deck_44_" d="M1093.412,691.8l2.095-46.896l-12.749-50.827l0.13-65.01l10.722-45.351l30.437-19.611l25.432-1.71
		l16.333,40.562l-13.816,64.303l1.265,40.231l0.96,72.188l-34.539,17.896L1093.412,691.8z"/>
	<path id="deck_45_" d="M672.88,678.146l-38.675,8.32l9.075-61.087l-7.836-35.509l2.182-52.631l9.292-71.842l31.882,21.977
		l37.58-1.098l-14.367,59.578l4.973,5.391l-1.146,69.838l3.379,73.489L672.88,678.146z"/>
	<path id="deck_48_" d="M1569.672,378.828l-34.996-5.97l3.732-43.834l1.367-53.521l-3.488-36.667l5.426-57.942l38.842-16.598
		l30.006,21.089l-6.68,43.42l-3.922,39.584l10.818,77.673l-7.195,47.098L1569.672,378.828z"/>
	<path id="deck_2_" d="M524.227,761.401c-12.812,0.045-25.639,0.845-29.731,6.641s0.542,16.589,0.6,31.834
		c0.06,15.246-4.467,34.945-4.94,52.066c-0.477,17.119,3.098,31.663,3.458,61.528c0.356,29.865-2.494,75.057,2.071,90.208
		c4.567,15.153,16.559,0.272,28.548,0.272c11.987,0,23.979,14.881,28.546-0.272c4.565-15.151,1.714-60.343,2.071-90.208
		c0.361-29.866,4.061-43.813,3.458-61.528c-0.601-17.717-5.064-37.144-4.94-52.066c0.125-14.926,4.723-25.9,0.6-31.834
		C549.839,762.109,537.039,761.355,524.227,761.401L524.227,761.401z"/>
	<path id="deck_5_" d="M1275.275,752.327l-45.34,44.086l16.088,9.173l-12.779,89.854l9.771,38.705l-12.038,85.415l44.299-5.048
		l44.295,5.048l-12.039-85.415l9.771-38.705l-12.776-89.854l16.088-9.173L1275.275,752.327z"/>
	<path id="deck_9_" d="M1125.054,779.721c-16.544,0.042-33.108-11.339-37.771-2.731c-4.658,8.604,2.591,37.19,3.949,59.18
		c1.357,21.989-3.172,37.372-3.188,49.085c-0.016,11.714,4.483,19.755,4.55,42.062c0.065,22.306-4.305,58.868,0.364,68.188
		c4.672,9.32,18.383-8.604,32.094-8.604s27.423,17.928,32.097,8.604c4.668-9.318,0.299-45.886,0.361-68.188
		c0.065-22.306,4.737-29.796,4.553-42.062c-0.188-12.265-4.643-27.394-3.188-49.085c1.451-21.688,8.644-50.448,3.947-59.18
		C1158.129,768.255,1141.597,779.679,1125.054,779.721z"/>
	<path id="deck_13_" d="M668.868,1015.389c-16.781,6.404-30.469,12.818-33.105-0.587c-2.636-13.403,5.778-46.634,5.771-68.348
		c-0.007-21.712-8.437-31.91-10.562-44.918c-2.127-13.007,2.047-28.825,3.526-51.957c1.479-23.133,0.269-53.579,7.304-72.483
		c7.035-18.901,22.317-26.269,36.756-27.654c14.439-1.389,28.034,3.201,32.526,21.881c4.492,18.679-0.121,51.441,0.605,76.307
		c0.725,24.861,6.991,41.512,6.814,60.611c-0.177,19.098-6.083,39.584-5.81,54.358c0.271,14.776,6.529,24.129-0.316,32.056
		C705.535,1002.575,685.649,1008.986,668.868,1015.389L668.868,1015.389z"/>
	<path id="deck_3_" d="M1577.754,999.51c-13.061,4.585-24.824,15.242-29.895,5.303c-5.072-9.938-3.451-40.479-6.209-59.622
		c-2.763-19.146-9.896-26.898-8.908-43.216c0.984-16.312,10.094-41.189,11.652-64.864c1.559-23.678-4.431-46.149,1.485-59.271
		s23.734-16.891,39.771-13.898c16.032,2.987,30.28,12.738,32.688,19.541c2.412,6.803-7.016,10.652-10.287,29.538
		c-3.27,18.888-0.149,53.387,0.451,78.074c0.604,24.691-0.485,41.586,1.162,58.303c1.647,16.721,5.812,32.725,0.664,39.896
		C1605.186,996.462,1590.816,994.926,1577.754,999.51z"/>
	<path id="deck_7_" d="M969.15,995.517l-27.176-2.771l-3.712-47.235l-4.372-82.793l9.231-19.724l-3.494-85.839l36.857,5.288
		l35.688,1.551l3.65,63.28l-8.295,81.915l3.48,56.909l0.695,48.638L969.15,995.517z"/>
	<path id="deck_11_" d="M1733.955,1010.173l-43.055-20.935l5.514-33.067l-11.619-76.89l8.969-41.201l3.498-76.366l24.215,10.396
		l34.422,27.521l6.746,50.243l4.354,36.098l-3.369,54.521l-0.826,62.624L1733.955,1010.173z"/>
	<path id="deck_16_" d="M223.853,1004.014c-16.649,0.055-33.352,9.845-37.419-3.594c-4.068-13.438,4.499-50.103,4.448-64.979
		c-0.052-14.877-8.722-7.971-7.592-25.19c1.129-17.223,12.059-58.576,12.74-81.974c0.681-23.399-8.887-28.847-5.958-38.97
		c2.929-10.125,18.354-24.929,33.781-24.929c15.426,0,30.852,14.804,33.781,24.929c2.928,10.125-6.639,15.568-5.958,38.97
		c0.681,23.396,12.007,65.44,12.74,81.974s-7.755,9.947-7.592,25.19c0.162,15.24,8.6,51.687,4.447,64.979
		C257.12,1013.71,240.501,1003.959,223.853,1004.014L223.853,1004.014z"/>
	<path id="deck_19_" d="M374.01,1009.842c-17.419,0-34.858-5.758-41.688-13.844c-6.83-8.087-3.05-18.501-2.357-41.424
		s-1.703-58.354-1.238-82.525c0.466-24.17,3.789-37.078,3.156-49.742c-0.633-12.666-5.222-25.087,1.141-36.983
		c6.361-11.898,23.676-23.275,40.988-23.275c17.314,0,34.627,11.378,40.99,23.275c6.362,11.896,1.772,24.317,1.14,36.983
		c-0.632,12.665,2.848,25.584,3.156,49.742c0.312,24.16-2.013,59.593-1.238,82.525c0.775,22.932,4.507,33.348-2.354,41.424
		C408.838,1004.073,391.43,1009.841,374.01,1009.842L374.01,1009.842z"/>
	<path id="deck_17_" d="M1876.104,1007.585l-30.413-11.244l-3.582-82.917l-3-3.994l-0.546-84.104l-3.168-35.592l40.709-25.431
		l40.709,25.431l-3.17,35.592l-0.543,84.104l-3.002,3.994l-3.578,82.917L1876.104,1007.585z"/>
	<path id="deck_23_" d="M1432.691,997.884c-15.564-2.636-34.142,5.316-39.451,1.038c-5.314-4.273,2.629-20.784,3.238-41.118
		c0.606-20.332-6.117-44.486-6.873-60.891c-0.757-16.401,4.465-25.045,2.688-50.328c-1.771-25.282-10.537-67.205-6.449-78.479
		c4.088-11.278,21.021,8.09,36.82,15.588c15.797,7.498,30.455,3.13,35.022,5.706c4.566,2.571-0.953,12.097-3.393,28.713
		c-2.438,16.616-1.672,40.602-0.5,59.08c1.172,18.478,3.166,32.397,6.611,56.711c3.442,24.312,8.223,58.751,4.311,69.306
		C1460.812,1013.761,1448.256,1000.521,1432.691,997.884z"/>
	<path id="deck_21_" d="M824.653,776.537l-40.708,23.28l11.015,32.968l-4.795,73.615l2.033,2.105l-6.709,73.128l39.165,13.713
		l39.165-13.713l-6.71-73.128l2.031-2.105l-4.794-73.615l11.017-32.968L824.653,776.537z"/>
	<path id="deck_25_" d="M1573.275,1096.492l-42.5,32.943l5.08,62.18l5.452,21.423l-10.161,88.229l9.588,5.588l32.541-2.118
		l32.541,2.118l9.588-5.588l-10.164-88.229l5.457-21.423l5.078-62.18L1573.275,1096.492z"/>
	<path id="deck_29_" d="M374.001,1079.385c-16.372-0.002-32.768,11.053-36.232,28.647c-3.463,17.596,6.006,41.73,5.952,58.415
		c-0.054,16.68-9.63,25.899-11.562,38.986c-1.933,13.088,3.781,30.035,4.655,46.526c0.873,16.49-3.092,32.522,2.301,46.399
		c5.392,13.877,20.139,25.599,34.886,25.599s29.495-11.722,34.886-25.599c5.395-13.877,1.429-29.909,2.304-46.399
		c0.875-16.491,6.772-33.458,4.652-46.526c-2.12-13.066-11.607-22.302-11.562-38.986c0.049-16.689,9.458-40.82,5.952-58.415
		C406.727,1090.438,390.373,1079.386,374.001,1079.385z"/>
	<path id="deck_33_" d="M524.24,1089.291c-11.703,0.131-23.441,8.109-27.487,15.551c-4.046,7.443-0.396,14.351-2.979,38.902
		c-2.586,24.555-11.396,66.758-11.214,75.115c0.187,8.354,9.366-17.133,11.729,1.424c2.363,18.555-2.092,81.149,1.764,91.959
		c3.856,10.807,16.021-30.178,28.188-30.178s24.332,40.981,28.188,30.178c3.856-10.809-0.6-73.404,1.767-91.959
		c2.36-18.56,11.81,8.635,11.729-1.424c-0.08-10.06-8.771-51.472-11.211-75.115c-2.439-23.646,1.122-31.082-2.98-38.902
		C547.623,1097.023,535.943,1089.158,524.24,1089.291L524.24,1089.291z"/>
	<path id="deck_37_" d="M1124.283,1094.401l-36.821,28.411l3.047,38.434l-6.923,69.094l2.765,14.982l1.995,63.622l35.938-5.466
		l35.938,5.466l1.995-63.622l2.768-14.982l-6.925-69.094l3.048-38.434L1124.283,1094.401z"/>
	<path id="deck_40_" d="M824.957,1076.881c-10.203-0.044-20.403,3.688-26.201,9.182c-5.799,5.491-7.196,12.743-8.017,26.381
		c-0.82,13.634-1.065,33.646-1.082,65.486c-0.019,31.841,0.193,75.505,0.866,104.104c0.67,28.595,1.797,42.121,7.609,44.146
		c5.815,2.028,16.318-7.438,26.821-7.438s21.006,9.469,26.821,7.438c5.812-2.025,6.939-15.555,7.61-44.146
		c0.67-28.596,0.864-72.844,0.866-104.104c0.002-31.259-0.251-51.545-1.082-65.486c-0.831-13.945-2.221-21.019-8.016-26.382
		C845.363,1080.697,835.16,1076.926,824.957,1076.881z"/>
	<path id="deck_43_" d="M974.855,453.438c-11.648-0.076-23.303-2.433-28.019,8.827c-4.717,11.26-2.498,36.136-2.946,46.451
		c-0.445,10.316-3.562,6.074-4.701,33.593c-1.144,27.521-0.311,86.801-0.023,120.281c0.285,33.481,0.021,41.167,5.877,43.405
		s17.834-0.97,29.812-0.97c11.978,0,23.953,3.209,29.812,0.97c5.856-2.238,5.592-9.925,5.877-43.405
		c0.285-33.479,1.14-93.757-0.021-120.281c-1.163-26.521-4.271-22.749-4.704-33.593c-0.438-10.845,1.774-35.404-2.946-46.451
		C998.15,451.218,986.503,453.515,974.855,453.438z"/>
	<path id="deck_50_" d="M374.032,451.176c-10.943,0.012-21.89,7.438-28.289,17.82c-6.4,10.382-8.256,23.72-8.299,43.489
		c-0.043,19.769,1.726,45.971,2.179,68.688c0.454,22.722-0.407,41.958-1.423,65.144c-1.018,23.183-2.188,50.311,3.758,58.939
		s19.011-1.229,32.074-1.229c13.062,0,26.128,9.86,32.074,1.229c5.943-8.632,4.771-35.759,3.759-58.939
		c-1.02-23.186-1.872-42.271-1.424-65.144c0.445-22.872,2.22-49.002,2.179-68.688c-0.04-19.688-1.898-33.074-8.299-43.49
		C395.919,458.58,384.975,451.164,374.032,451.176z"/>
	<path id="deck_52_" d="M223.809,1072.152c-16.703,0.014-33.434,10.045-38.034,20.192c-4.602,10.15,2.928,20.421,4.49,35.453
		c1.562,15.034-2.841,34.834-2.854,56.604c-0.013,21.769,4.365,45.509,3.391,73.677c-0.974,28.168-7.301,60.766-2.691,69.99
		c4.61,9.224,20.153-4.925,35.698-4.925c15.544,0,31.089,14.146,35.697,4.925c4.609-9.228-1.718-41.822-2.691-69.99
		c-0.975-28.168,3.611-51.736,3.391-73.677c-0.22-21.94-4.527-41.661-2.853-56.604c1.674-14.938,9.135-25.261,4.49-35.453
		C257.199,1082.156,240.511,1072.141,223.809,1072.152L223.809,1072.152z"/>
	<path id="deck_54_" d="M1873.703,1085.169c-11.43-0.169-21.533,4.271-27.277,17.897c-5.742,13.625-7.127,36.437-6.883,54.315
		s2.115,30.832,3.812,44.902c1.696,14.071,3.225,29.262,2.573,50.73c-0.645,21.477-3.465,49.229-1.143,57.991
		c2.322,8.767,9.783-1.464,21.354-0.407s27.25,13.395,34.312,4.188c7.062-9.206,5.508-39.949,3.717-63.392
		c-1.791-23.441-3.824-39.298-4.981-53.976c-1.158-14.678-1.476-27.199,0.571-43.822s6.465-37.607,2.297-50.537
		C1897.891,1090.137,1885.133,1085.339,1873.703,1085.169z"/>
	<path id="deck_47_" d="M1423.611,1071.795l-26.554,6.625l-10.26,24.396l-0.832,180.26l5.039,9.453l-1.59,31.342l34.19,7.684
		l34.193-7.684l-1.59-31.342l5.037-9.453l-0.832-180.26l-10.26-24.396L1423.611,1071.795z"/>
	<path id="deck_27_" d="M1722.562,1313.999l-37.011-16.497l8.58-36.414l-13.096-62.974l10.252-55.719l-4.133-8.115l35.401-44.937
		l35.404,44.937l-4.133,8.115l10.25,55.719l-13.096,62.974l8.579,36.414L1722.562,1313.999z"/>
	<path id="deck_35_" d="M673.417,1328.155c-16.473,0.999-25.736-26.533-29.703-38.785c-3.968-12.251-2.639-9.224-0.124-26.51
		c2.514-17.286,6.213-54.893,6.17-78.443c-0.043-23.556-3.827-33.062-9.492-42.976s-13.211-20.232-5.022-31.979
		c8.186-11.748,32.101-24.925,46.5-30.893c14.397-5.97,19.283-4.729,23.312,8.804c4.032,13.529,7.213,39.346,9.561,57.535
		c2.346,18.188,3.822,28.455,0.178,47.917c-3.646,19.461-12.53,47.099-9.673,60.899c2.854,13.805,17.483,14.033,12.97,28.949
		C713.571,1297.594,689.887,1327.156,673.417,1328.155L673.417,1328.155z"/>
</g>
</svg>
