<?xml version="1.0" encoding="utf-8"?>
<!-- Generator: Adobe Illustrator 16.0.1, SVG Export Plug-In . SVG Version: 6.00 Build 0)  -->
<!DOCTYPE svg PUBLIC "-//W3C//DTD SVG 1.1//EN" "http://www.w3.org/Graphics/SVG/1.1/DTD/svg11.dtd">
<svg version="1.1" id="Layer_1" xmlns="http://www.w3.org/2000/svg" xmlns:xlink="http://www.w3.org/1999/xlink" x="0px" y="0px"
	 width="1728px" height="864px" viewBox="0 0 1728 864" enable-background="new 0 0 1728 864" xml:space="preserve">
<rect x="-26.343" y="-13" fill="#939597" width="1780.686" height="890"/>
<linearGradient id="SVGID_2_" gradientUnits="userSpaceOnUse" x1="1584" y1="288" x2="1440.0002" y2="144.0002">
	<stop  offset="0.0056" style="stop-color:#FFF200"/>
	<stop  offset="1" style="stop-color:#00A5E5"/>
</linearGradient>
<rect x="1440" y="144" opacity="0.75" fill="url(#SVGID_2_)" width="144" height="144"/>
<g>
	<g>
		<path fill="#FFFFFF" d="M1551.887,236.678c1.915-2.408,3.043-5.682,3.183-9.414c0.121-5.084-1.52-9.633-4.618-12.807
			c-2.993-3.065-7.095-4.686-11.86-4.686h-32.8v53.959h32.8c9.386,0,17.021-7.756,17.021-17.291
			C1555.612,242.816,1554.234,239.301,1551.887,236.678z"/>
		<g>
			<path d="M1555.271,236.547c1.511-2.58,2.392-5.709,2.52-9.145l0.002-0.037l0.001-0.037c0.139-5.824-1.777-11.072-5.394-14.775
				c-3.518-3.602-8.293-5.506-13.81-5.506h-35.524v59.409h35.524c10.889,0,19.746-8.979,19.746-20.016
				C1558.337,242.828,1557.24,239.387,1555.271,236.547z M1508.517,261.006v-48.51h5.45v48.51H1508.517z M1538.591,261.006h-10.9
				h-8.273v-48.51h8.273h10.9c8.605,0,13.957,6.166,13.754,14.703c-0.137,3.66-1.422,7.453-4.472,9.551
				c3.184,2.17,5.014,5.896,5.014,9.689C1552.887,254.57,1546.449,261.006,1538.591,261.006z"/>
			<path d="M1537.776,241.629h-8.604v9.689h8.604c2.779,0,4.881-2.168,4.881-4.879
				C1542.657,243.73,1540.556,241.629,1537.776,241.629z"/>
			<path d="M1537.776,231.941c2.779,0,4.475-2.236,4.475-4.879c0-2.711-1.695-4.879-4.475-4.879h-8.604v9.758H1537.776z"/>
		</g>
	</g>
	<g>
		<path fill="#FFFFFF" d="M1514.525,195.175c1.915-2.408,3.043-5.681,3.183-9.413c0.121-5.085-1.52-9.633-4.618-12.807
			c-2.993-3.065-7.095-4.686-11.86-4.686h-32.8v53.959h32.8c9.386,0,17.021-7.756,17.021-17.291
			C1518.251,201.314,1516.873,197.798,1514.525,195.175z"/>
		<g>
			<path d="M1517.91,195.044c1.511-2.579,2.392-5.708,2.52-9.143l0.002-0.037l0.001-0.037c0.139-5.825-1.777-11.072-5.394-14.775
				c-3.518-3.603-8.293-5.507-13.81-5.507h-35.524v59.409h35.524c10.889,0,19.746-8.979,19.746-20.015
				C1520.976,201.327,1519.879,197.885,1517.91,195.044z M1471.155,219.504v-48.509h5.45v48.509H1471.155z M1501.229,219.504h-10.9
				h-8.273v-48.509h8.273h10.9c8.605,0,13.957,6.166,13.754,14.703c-0.137,3.66-1.422,7.452-4.472,9.551
				c3.184,2.168,5.014,5.896,5.014,9.689C1515.525,213.068,1509.088,219.504,1501.229,219.504z"/>
			<path d="M1500.415,200.127h-8.604v9.688h8.604c2.779,0,4.881-2.167,4.881-4.878S1503.194,200.127,1500.415,200.127z"/>
			<path d="M1500.415,190.439c2.779,0,4.475-2.235,4.475-4.878c0-2.71-1.695-4.878-4.475-4.878h-8.604v9.757H1500.415z"/>
		</g>
	</g>
	<g>
		<path d="M1465.663,241.055h6.446v17.773h-3.535v-14.215h-2.911V241.055z"/>
		<path d="M1485.885,250.803v-5.408v-4.336h-2.202l0.01-0.025h-3.738l-5.061,13.334h7.427v4.461h3.564v-4.461h1.944v-3.564H1485.885
			z M1482.316,247.82v3.004h-2.258l2.258-6.062V247.82z"/>
	</g>
</g>
<rect x="1440" y="360" fill="#FFFFFF" width="144" height="144"/>
<g>
	<g>
		<path fill="#20C4F4" d="M1551.887,452.678c1.915-2.408,3.043-5.682,3.183-9.414c0.121-5.084-1.52-9.633-4.618-12.807
			c-2.993-3.065-7.095-4.686-11.86-4.686h-32.8v53.959h32.8c9.386,0,17.021-7.756,17.021-17.291
			C1555.612,458.816,1554.234,455.301,1551.887,452.678z"/>
		<g>
			<path d="M1555.271,452.547c1.511-2.58,2.392-5.709,2.52-9.145l0.002-0.037l0.001-0.037c0.139-5.824-1.777-11.072-5.394-14.775
				c-3.518-3.602-8.293-5.506-13.81-5.506h-35.524v59.408h35.524c10.889,0,19.746-8.979,19.746-20.016
				C1558.337,458.828,1557.24,455.387,1555.271,452.547z M1508.517,477.006v-48.51h5.45v48.51H1508.517z M1538.591,477.006h-10.9
				h-8.273v-48.51h8.273h10.9c8.605,0,13.957,6.166,13.754,14.703c-0.137,3.66-1.422,7.453-4.472,9.551
				c3.184,2.17,5.014,5.896,5.014,9.689C1552.887,470.57,1546.449,477.006,1538.591,477.006z"/>
			<path d="M1537.776,457.629h-8.604v9.689h8.604c2.779,0,4.881-2.168,4.881-4.879
				C1542.657,459.73,1540.556,457.629,1537.776,457.629z"/>
			<path d="M1537.776,447.941c2.779,0,4.475-2.236,4.475-4.879c0-2.711-1.695-4.879-4.475-4.879h-8.604v9.758H1537.776z"/>
		</g>
	</g>
	<g>
		<path fill="#FFF200" d="M1514.525,411.175c1.915-2.407,3.043-5.681,3.183-9.413c0.121-5.084-1.52-9.633-4.618-12.807
			c-2.993-3.065-7.095-4.686-11.86-4.686h-32.8v53.959h32.8c9.386,0,17.021-7.756,17.021-17.291
			C1518.251,417.314,1516.873,413.798,1514.525,411.175z"/>
		<g>
			<path d="M1517.91,411.044c1.511-2.579,2.392-5.708,2.52-9.144l0.002-0.037l0.001-0.037c0.139-5.824-1.777-11.072-5.394-14.775
				c-3.518-3.602-8.293-5.506-13.81-5.506h-35.524v59.408h35.524c10.889,0,19.746-8.979,19.746-20.016
				C1520.976,417.326,1519.879,413.885,1517.91,411.044z M1471.155,435.504v-48.51h5.45v48.51H1471.155z M1501.229,435.504h-10.9
				h-8.273v-48.51h8.273h10.9c8.605,0,13.957,6.166,13.754,14.703c-0.137,3.66-1.422,7.452-4.472,9.551
				c3.184,2.169,5.014,5.896,5.014,9.689C1515.525,429.068,1509.088,435.504,1501.229,435.504z"/>
			<path d="M1500.415,416.127h-8.604v9.689h8.604c2.779,0,4.881-2.168,4.881-4.879
				C1505.296,418.228,1503.194,416.127,1500.415,416.127z"/>
			<path d="M1500.415,406.439c2.779,0,4.475-2.236,4.475-4.879c0-2.711-1.695-4.879-4.475-4.879h-8.604v9.758H1500.415z"/>
		</g>
	</g>
	<g>
		<path d="M1465.663,457.055h6.446v17.773h-3.535v-14.215h-2.911V457.055z"/>
		<path d="M1485.885,466.803v-5.408v-4.336h-2.202l0.01-0.025h-3.738l-5.061,13.334h7.427v4.461h3.564v-4.461h1.944v-3.564H1485.885
			z M1482.316,463.82v3.004h-2.258l2.258-6.062V463.82z"/>
	</g>
</g>
<rect x="1440" y="576" fill="#FFFFFF" width="144" height="144"/>
<g>
	<g>
		<path fill="#FFFFFF" d="M1551.887,668.678c1.915-2.408,3.043-5.682,3.183-9.414c0.121-5.084-1.52-9.633-4.618-12.807
			c-2.993-3.065-7.095-4.686-11.86-4.686h-32.8v53.959h32.8c9.386,0,17.021-7.756,17.021-17.291
			C1555.612,674.816,1554.234,671.301,1551.887,668.678z"/>
		<g>
			<path d="M1555.271,668.547c1.511-2.58,2.392-5.709,2.52-9.145l0.002-0.037l0.001-0.037c0.139-5.824-1.777-11.072-5.394-14.775
				c-3.518-3.602-8.293-5.506-13.81-5.506h-35.524v59.408h35.524c10.889,0,19.746-8.979,19.746-20.016
				C1558.337,674.828,1557.24,671.387,1555.271,668.547z M1508.517,693.006v-48.51h5.45v48.51H1508.517z M1538.591,693.006h-10.9
				h-8.273v-48.51h8.273h10.9c8.605,0,13.957,6.166,13.754,14.703c-0.137,3.66-1.422,7.453-4.472,9.551
				c3.184,2.17,5.014,5.896,5.014,9.689C1552.887,686.57,1546.449,693.006,1538.591,693.006z"/>
			<path d="M1537.776,673.629h-8.604v9.689h8.604c2.779,0,4.881-2.168,4.881-4.879
				C1542.657,675.73,1540.556,673.629,1537.776,673.629z"/>
			<path d="M1537.776,663.941c2.779,0,4.475-2.236,4.475-4.879c0-2.711-1.695-4.879-4.475-4.879h-8.604v9.758H1537.776z"/>
		</g>
	</g>
	<g>
		<path fill="#FFFFFF" d="M1514.525,627.175c1.915-2.407,3.043-5.681,3.183-9.413c0.121-5.084-1.52-9.633-4.618-12.807
			c-2.993-3.065-7.095-4.686-11.86-4.686h-32.8v53.959h32.8c9.386,0,17.021-7.756,17.021-17.291
			C1518.251,633.314,1516.873,629.798,1514.525,627.175z"/>
		<g>
			<path d="M1517.91,627.044c1.511-2.579,2.392-5.708,2.52-9.144l0.002-0.037l0.001-0.037c0.139-5.824-1.777-11.072-5.394-14.775
				c-3.518-3.602-8.293-5.506-13.81-5.506h-35.524v59.408h35.524c10.889,0,19.746-8.979,19.746-20.016
				C1520.976,633.326,1519.879,629.885,1517.91,627.044z M1471.155,651.504v-48.51h5.45v48.51H1471.155z M1501.229,651.504h-10.9
				h-8.273v-48.51h8.273h10.9c8.605,0,13.957,6.166,13.754,14.703c-0.137,3.66-1.422,7.452-4.472,9.551
				c3.184,2.169,5.014,5.896,5.014,9.689C1515.525,645.068,1509.088,651.504,1501.229,651.504z"/>
			<path d="M1500.415,632.127h-8.604v9.689h8.604c2.779,0,4.881-2.168,4.881-4.879
				C1505.296,634.228,1503.194,632.127,1500.415,632.127z"/>
			<path d="M1500.415,622.439c2.779,0,4.475-2.236,4.475-4.879c0-2.711-1.695-4.879-4.475-4.879h-8.604v9.758H1500.415z"/>
		</g>
	</g>
	<g>
		<path d="M1465.663,673.055h6.446v17.773h-3.535v-14.215h-2.911V673.055z"/>
		<path d="M1485.885,682.803v-5.408v-4.336h-2.202l0.01-0.025h-3.738l-5.061,13.334h7.427v4.461h3.564v-4.461h1.944v-3.564H1485.885
			z M1482.316,679.82v3.004h-2.258l2.258-6.062V679.82z"/>
	</g>
</g>
<rect x="144.5" y="144.5" fill="#FFFFFF" width="575.5" height="575.5"/>
<g>
	<g>
		<path fill="#FFFFFF" d="M591.658,514.889c7.654-9.624,12.162-22.706,12.72-37.623c0.483-20.318-6.073-38.498-18.456-51.182
			c-11.963-12.251-28.355-18.726-47.4-18.726H407.436v215.649h131.086c37.51,0,68.026-30.997,68.026-69.104
			C606.548,539.422,601.041,525.372,591.658,514.889z"/>
		<g>
			<path d="M605.186,514.366c6.038-10.312,9.559-22.816,10.07-36.546l0.008-0.148l0.004-0.148
				c0.554-23.277-7.104-44.251-21.557-59.051c-14.058-14.394-33.143-22.004-55.189-22.004H396.547v237.426h141.975
				c43.517,0,78.916-35.883,78.916-79.992C617.438,539.469,613.055,525.716,605.186,514.366z M418.328,612.117V418.247h21.782
				v193.871H418.328z M538.521,612.117h-43.564h-33.064V418.247h33.064h43.564c34.392,0,55.779,24.643,54.967,58.761
				c-0.546,14.628-5.682,29.787-17.871,38.17c12.724,8.672,20.037,23.565,20.037,38.725
				C595.654,586.397,569.928,612.117,538.521,612.117z"/>
			<path d="M535.266,534.677h-34.384v38.725h34.384c11.107,0,19.507-8.665,19.507-19.499
				C554.772,543.076,546.373,534.677,535.266,534.677z"/>
			<path d="M535.266,495.96c11.107,0,17.883-8.938,17.883-19.498c0-10.835-6.775-19.499-17.883-19.499h-34.384v38.997H535.266z"/>
		</g>
	</g>
	<g>
		<path fill="#FFFFFF" d="M442.343,349.021c7.653-9.621,12.161-22.703,12.72-37.62c0.484-20.318-6.073-38.498-18.457-51.182
			c-11.962-12.251-28.354-18.726-47.4-18.726H258.12v215.648h131.085c37.511,0,68.027-30.997,68.027-69.104
			C457.232,373.559,451.726,359.505,442.343,349.021z"/>
		<g>
			<path d="M455.87,348.499c6.038-10.307,9.558-22.812,10.069-36.542l0.008-0.148l0.004-0.148
				c0.555-23.276-7.104-44.25-21.555-59.05c-14.059-14.394-33.144-22.004-55.191-22.004H247.23v237.426h141.975
				c43.518,0,78.916-35.883,78.916-79.993C468.121,373.606,463.738,359.852,455.87,348.499z M269.014,446.253V252.383h21.781
				v193.871H269.014z M389.205,446.253h-43.563h-33.065V252.383h33.065h43.563c34.393,0,55.78,24.643,54.969,58.762
				c-0.547,14.628-5.684,29.782-17.871,38.17c12.723,8.668,20.037,23.565,20.037,38.724
				C446.34,420.534,420.611,446.253,389.205,446.253z"/>
			<path d="M385.951,368.813h-34.385v38.724h34.385c11.107,0,19.506-8.664,19.506-19.499
				C405.457,377.208,397.059,368.813,385.951,368.813z"/>
			<path d="M385.951,330.097c11.107,0,17.883-8.938,17.883-19.499c0-10.834-6.775-19.499-17.883-19.499h-34.385v38.998H385.951z"/>
		</g>
	</g>
	<g>
		<path d="M247.063,532.382h25.763v71.031h-14.129v-56.81h-11.634V532.382z"/>
		<path d="M327.88,571.34v-21.613v-17.329h-8.801l0.039-0.102h-14.94l-20.225,53.289h29.682v17.828h14.245v-17.828h7.771V571.34
			H327.88z M313.619,559.421v12.005h-9.023l9.023-24.229V559.421z"/>
	</g>
</g>
<rect x="1224" y="360" fill="#20C4F4" width="144" height="144"/>
<g>
	<g>
		<path fill="#FFFFFF" d="M1335.887,452.677c1.915-2.408,3.043-5.682,3.183-9.413c0.121-5.085-1.52-9.634-4.618-12.807
			c-2.993-3.065-7.095-4.686-11.86-4.686h-32.8v53.958h32.8c9.386,0,17.021-7.756,17.021-17.29
			C1339.612,458.816,1338.234,455.3,1335.887,452.677z"/>
		<g>
			<path d="M1339.271,452.546c1.511-2.579,2.392-5.709,2.52-9.144l0.002-0.037l0.001-0.037c0.139-5.825-1.777-11.072-5.394-14.775
				c-3.518-3.603-8.293-5.507-13.81-5.507h-35.524v59.409h35.524c10.889,0,19.746-8.979,19.746-20.016
				C1342.337,458.829,1341.24,455.386,1339.271,452.546z M1292.517,477.005v-48.509h5.45v48.509H1292.517z M1322.591,477.005h-10.9
				h-8.273v-48.509h8.273h10.9c8.605,0,13.957,6.165,13.754,14.702c-0.137,3.66-1.422,7.453-4.472,9.552
				c3.184,2.169,5.014,5.896,5.014,9.689C1336.887,470.57,1330.449,477.005,1322.591,477.005z"/>
			<path d="M1321.776,457.629h-8.604v9.688h8.604c2.779,0,4.881-2.168,4.881-4.878S1324.556,457.629,1321.776,457.629z"/>
			<path d="M1321.776,447.941c2.779,0,4.475-2.235,4.475-4.879c0-2.71-1.695-4.878-4.475-4.878h-8.604v9.757H1321.776z"/>
		</g>
	</g>
	<g>
		<path fill="#FFFFFF" d="M1298.525,411.175c1.915-2.408,3.043-5.681,3.183-9.413c0.121-5.085-1.52-9.633-4.618-12.807
			c-2.993-3.065-7.095-4.686-11.86-4.686h-32.8v53.958h32.8c9.386,0,17.021-7.756,17.021-17.29
			C1302.251,417.314,1300.873,413.798,1298.525,411.175z"/>
		<g>
			<path d="M1301.91,411.044c1.511-2.579,2.392-5.708,2.52-9.143l0.002-0.037l0.001-0.037c0.139-5.825-1.777-11.072-5.394-14.775
				c-3.518-3.603-8.293-5.507-13.81-5.507h-35.524v59.409h35.524c10.889,0,19.746-8.979,19.746-20.016
				C1304.976,417.327,1303.879,413.885,1301.91,411.044z M1255.155,435.503v-48.509h5.45v48.509H1255.155z M1285.229,435.503h-10.9
				h-8.273v-48.509h8.273h10.9c8.605,0,13.957,6.166,13.754,14.703c-0.137,3.66-1.422,7.452-4.472,9.551
				c3.184,2.168,5.014,5.896,5.014,9.689C1299.525,429.068,1293.088,435.503,1285.229,435.503z"/>
			<path d="M1284.415,416.127h-8.604v9.688h8.604c2.779,0,4.881-2.167,4.881-4.878S1287.194,416.127,1284.415,416.127z"/>
			<path d="M1284.415,406.439c2.779,0,4.475-2.235,4.475-4.878c0-2.71-1.695-4.878-4.475-4.878h-8.604v9.757H1284.415z"/>
		</g>
	</g>
	<g>
		<path d="M1249.663,457.054h6.446v17.773h-3.535v-14.214h-2.911V457.054z"/>
		<path d="M1269.885,466.802v-5.408v-4.336h-2.202l0.01-0.025h-3.738l-5.061,13.334h7.427v4.461h3.564v-4.461h1.944v-3.564H1269.885
			z M1266.316,463.82v3.004h-2.258l2.258-6.062V463.82z"/>
	</g>
</g>
<rect x="1224" y="144.167" fill="#FFF200" width="144" height="144"/>
<g>
	<g>
		<path fill="#FFFFFF" d="M1335.887,236.844c1.915-2.408,3.043-5.682,3.183-9.413c0.121-5.085-1.52-9.634-4.618-12.807
			c-2.993-3.065-7.095-4.686-11.86-4.686h-32.8v53.958h32.8c9.386,0,17.021-7.756,17.021-17.29
			C1339.612,242.983,1338.234,239.467,1335.887,236.844z"/>
		<g>
			<path d="M1339.271,236.713c1.511-2.579,2.392-5.709,2.52-9.144l0.002-0.037l0.001-0.037c0.139-5.825-1.777-11.072-5.394-14.775
				c-3.518-3.603-8.293-5.507-13.81-5.507h-35.524v59.409h35.524c10.889,0,19.746-8.979,19.746-20.016
				C1342.337,242.996,1341.24,239.553,1339.271,236.713z M1292.517,261.172v-48.509h5.45v48.509H1292.517z M1322.591,261.172h-10.9
				h-8.273v-48.509h8.273h10.9c8.605,0,13.957,6.165,13.754,14.702c-0.137,3.66-1.422,7.453-4.472,9.552
				c3.184,2.169,5.014,5.896,5.014,9.689C1336.887,254.737,1330.449,261.172,1322.591,261.172z"/>
			<path d="M1321.776,241.796h-8.604v9.688h8.604c2.779,0,4.881-2.168,4.881-4.878S1324.556,241.796,1321.776,241.796z"/>
			<path d="M1321.776,232.108c2.779,0,4.475-2.235,4.475-4.879c0-2.71-1.695-4.878-4.475-4.878h-8.604v9.757H1321.776z"/>
		</g>
	</g>
	<g>
		<path fill="#FFFFFF" d="M1298.525,195.342c1.915-2.408,3.043-5.681,3.183-9.413c0.121-5.085-1.52-9.633-4.618-12.807
			c-2.993-3.065-7.095-4.686-11.86-4.686h-32.8v53.958h32.8c9.386,0,17.021-7.756,17.021-17.29
			C1302.251,201.481,1300.873,197.965,1298.525,195.342z"/>
		<g>
			<path d="M1301.91,195.211c1.511-2.579,2.392-5.708,2.52-9.143l0.002-0.037l0.001-0.037c0.139-5.825-1.777-11.072-5.394-14.775
				c-3.518-3.603-8.293-5.507-13.81-5.507h-35.524v59.409h35.524c10.889,0,19.746-8.979,19.746-20.016
				C1304.976,201.494,1303.879,198.052,1301.91,195.211z M1255.155,219.67v-48.509h5.45v48.509H1255.155z M1285.229,219.67h-10.9
				h-8.273v-48.509h8.273h10.9c8.605,0,13.957,6.166,13.754,14.703c-0.137,3.66-1.422,7.452-4.472,9.551
				c3.184,2.168,5.014,5.896,5.014,9.689C1299.525,213.235,1293.088,219.67,1285.229,219.67z"/>
			<path d="M1284.415,200.294h-8.604v9.688h8.604c2.779,0,4.881-2.167,4.881-4.878S1287.194,200.294,1284.415,200.294z"/>
			<path d="M1284.415,190.606c2.779,0,4.475-2.235,4.475-4.878c0-2.71-1.695-4.878-4.475-4.878h-8.604v9.757H1284.415z"/>
		</g>
	</g>
	<g>
		<path d="M1249.663,241.221h6.446v17.773h-3.535v-14.214h-2.911V241.221z"/>
		<path d="M1269.885,250.969v-5.408v-4.336h-2.202l0.01-0.025h-3.738l-5.061,13.334h7.427v4.461h3.564v-4.461h1.944v-3.564H1269.885
			z M1266.316,247.987v3.004h-2.258l2.258-6.062V247.987z"/>
	</g>
</g>
<rect x="1224" y="576" width="144" height="144"/>
<g>
	<g>
		<path d="M1335.887,668.844c1.915-2.408,3.043-5.682,3.183-9.412c0.121-5.086-1.52-9.635-4.618-12.808
			c-2.993-3.065-7.095-4.686-11.86-4.686h-32.8v53.958h32.8c9.386,0,17.021-7.756,17.021-17.289
			C1339.612,674.982,1338.234,671.467,1335.887,668.844z"/>
		<g>
			<path fill="#FFFFFF" d="M1339.271,668.713c1.511-2.578,2.392-5.709,2.52-9.143l0.002-0.037l0.001-0.037
				c0.139-5.826-1.777-11.072-5.394-14.775c-3.518-3.604-8.293-5.508-13.81-5.508h-35.524v59.41h35.524
				c10.889,0,19.746-8.98,19.746-20.016C1342.337,674.996,1341.24,671.553,1339.271,668.713z M1292.517,693.172v-48.508h5.45v48.508
				H1292.517z M1322.591,693.172h-10.9h-8.273v-48.508h8.273h10.9c8.605,0,13.957,6.164,13.754,14.701
				c-0.137,3.66-1.422,7.453-4.472,9.553c3.184,2.168,5.014,5.895,5.014,9.689C1336.887,686.736,1330.449,693.172,1322.591,693.172z
				"/>
			<path fill="#FFFFFF" d="M1321.776,673.797h-8.604v9.688h8.604c2.779,0,4.881-2.168,4.881-4.877
				C1326.657,675.896,1324.556,673.797,1321.776,673.797z"/>
			<path fill="#FFFFFF" d="M1321.776,664.107c2.779,0,4.475-2.234,4.475-4.879c0-2.709-1.695-4.877-4.475-4.877h-8.604v9.756
				H1321.776z"/>
		</g>
	</g>
	<g>
		<path d="M1298.525,627.342c1.915-2.408,3.043-5.682,3.183-9.412c0.121-5.086-1.52-9.634-4.618-12.808
			c-2.993-3.065-7.095-4.686-11.86-4.686h-32.8v53.958h32.8c9.386,0,17.021-7.756,17.021-17.289
			C1302.251,633.481,1300.873,629.965,1298.525,627.342z"/>
		<g>
			<path fill="#FFFFFF" d="M1301.91,627.211c1.511-2.578,2.392-5.709,2.52-9.143l0.002-0.037l0.001-0.037
				c0.139-5.825-1.777-11.072-5.394-14.775c-3.518-3.604-8.293-5.508-13.81-5.508h-35.524v59.41h35.524
				c10.889,0,19.746-8.979,19.746-20.016C1304.976,633.494,1303.879,630.052,1301.91,627.211z M1255.155,651.67v-48.508h5.45v48.508
				H1255.155z M1285.229,651.67h-10.9h-8.273v-48.508h8.273h10.9c8.605,0,13.957,6.165,13.754,14.702
				c-0.137,3.659-1.422,7.452-4.472,9.552c3.184,2.168,5.014,5.896,5.014,9.689C1299.525,645.234,1293.088,651.67,1285.229,651.67z"
				/>
			<path fill="#FFFFFF" d="M1284.415,632.295h-8.604v9.688h8.604c2.779,0,4.881-2.167,4.881-4.877
				C1289.296,634.395,1287.194,632.295,1284.415,632.295z"/>
			<path fill="#FFFFFF" d="M1284.415,622.605c2.779,0,4.475-2.234,4.475-4.878c0-2.71-1.695-4.878-4.475-4.878h-8.604v9.756
				H1284.415z"/>
		</g>
	</g>
	<g>
		<path fill="#FFFFFF" d="M1249.663,673.221h6.446v17.773h-3.535v-14.213h-2.911V673.221z"/>
		<path fill="#FFFFFF" d="M1269.885,682.969v-5.408v-4.336h-2.202l0.01-0.025h-3.738l-5.061,13.334h7.427v4.461h3.564v-4.461h1.944
			v-3.564H1269.885z M1266.316,679.986v3.004h-2.258l2.258-6.062V679.986z"/>
	</g>
</g>
</svg>
