<?xml version="1.0" encoding="utf-8"?>
<!-- Generator: Adobe Illustrator 16.0.1, SVG Export Plug-In . SVG Version: 6.00 Build 0)  -->
<!DOCTYPE svg PUBLIC "-//W3C//DTD SVG 1.1//EN" "http://www.w3.org/Graphics/SVG/1.1/DTD/svg11.dtd">
<svg version="1.1" id="Layer_1" xmlns="http://www.w3.org/2000/svg" xmlns:xlink="http://www.w3.org/1999/xlink" x="0px" y="0px"
	 width="1728px" height="864px" viewBox="0 0 1728 864" enable-background="new 0 0 1728 864" xml:space="preserve">
<rect x="-26.343" y="-13" fill="#939597" width="1780.687" height="890"/>
<rect x="1366.549" y="144" fill="#20C4F4" width="216.998" height="144"/>
<g>
	<rect x="1396.85" y="172.059" width="110.396" height="28.326"/>
	<rect x="1396.85" y="224.836" width="96.356" height="28.326"/>
	<g>
		<path d="M1530.974,235.489h3.872v10.895h-2.178v-8.716h-1.694V235.489z"/>
		<path d="M1543.32,241.299v-3.174v-2.636h-1.412h0.008h-2.27l-3.072,7.989h4.567v2.905h2.179v-2.905h1.211v-2.179H1543.32z
			 M1541.142,239.599v1.943h-1.432l1.432-3.8V239.599z"/>
	</g>
	<g>
		<g>
			<g>
				<path fill="#FFF200" d="M1420.844,185.737c0.672-1.138,0.975-2.521,1.029-4.04l-0.088-0.016v-0.015
					c0-2.564-0.693-4.73-2.283-6.36c-1.548-1.584-3.56-2.279-5.986-2.279h-15.698v26.147h15.698c4.791,0,8.688-4.082,8.688-8.939
					C1422.204,188.64,1421.717,186.99,1420.844,185.737z"/>
			</g>
		</g>
		<g>
			<path d="M1421.729,185.7c0.726-1.231,1.054-2.727,1.116-4.369l-0.092-0.018v-0.017c0-2.773-0.752-5.063-2.475-6.825
				c-1.671-1.714-3.852-2.413-6.476-2.413h-16.954v28.326h16.954c5.179,0,9.396-4.491,9.396-9.745
				C1423.199,188.916,1422.673,187.055,1421.729,185.7z M1401.934,197.479h-2.663v-23h2.663V197.479z M1413.804,197.479h-9.45v-23
				h9.45c4.107,0,6.663,2.812,6.565,6.888c-0.063,1.747-0.68,3.492-2.135,4.495c1.521,1.035,2.395,2.833,2.395,4.644
				C1420.629,194.387,1417.556,197.479,1413.804,197.479z"/>
			<path d="M1415.549,181.501c0-1.294-0.808-2.421-2.133-2.421h-4.462v4.842h4.462
				C1414.741,183.921,1415.549,182.762,1415.549,181.501z"/>
			<path d="M1413.416,188.038h-4.462v4.842h4.462c1.325,0,2.328-1.143,2.328-2.438
				C1415.744,189.148,1414.741,188.038,1413.416,188.038z"/>
		</g>
	</g>
	<g>
		<g>
			<g>
				<path fill="#FFF200" d="M1420.844,238.568c0.672-1.139,0.975-2.522,1.029-4.04l-0.088-0.016v-0.016
					c0-2.564-0.693-4.635-2.283-6.265c-1.548-1.584-3.56-2.185-5.986-2.185h-15.698v26.146h15.698c4.791,0,8.688-4.177,8.688-9.034
					C1422.204,241.565,1421.717,239.821,1420.844,238.568z"/>
			</g>
		</g>
		<g>
			<path d="M1421.729,238.531c0.726-1.23,1.054-2.727,1.116-4.369l-0.092-0.018v-0.017c0-2.773-0.752-5.089-2.475-6.852
				c-1.671-1.714-3.852-2.44-6.476-2.44h-16.954v28.326h16.954c5.179,0,9.396-4.465,9.396-9.718
				C1423.199,241.72,1422.673,239.885,1421.729,238.531z M1401.934,250.257h-2.663v-23h2.663V250.257z M1413.804,250.257h-9.45v-23
				h9.45c4.107,0,6.663,2.838,6.565,6.914c-0.063,1.747-0.68,3.505-2.135,4.509c1.521,1.035,2.395,2.812,2.395,4.623
				C1420.629,247.185,1417.556,250.257,1413.804,250.257z"/>
			<path d="M1415.549,234.278c0-1.293-0.808-2.421-2.133-2.421h-4.462v4.842h4.462
				C1414.741,236.699,1415.549,235.54,1415.549,234.278z"/>
			<path d="M1413.416,240.815h-4.462v4.842h4.462c1.325,0,2.328-1.143,2.328-2.438
				C1415.744,241.926,1414.741,240.815,1413.416,240.815z"/>
		</g>
	</g>
	<g>
		<g>
			<g>
				<path fill="#FFF200" d="M1455.213,179.361c2.602-1.975,3.611-5.271,3.189-8.228c-0.525-3.689-3.357-7.306-8.504-7.306h-15.281
					v25.904h26.285L1455.213,179.361z"/>
			</g>
		</g>
		<g>
			<path d="M1456.243,179.604c2.843-2.16,3.946-5.765,3.486-8.997c-0.573-4.034-3.672-7.99-9.297-7.99h-16.783v28.326h28.813
				L1456.243,179.604z M1438.249,188.038h-2.179v-23h2.179V188.038z M1448.175,188.038v-2.731l1.745,2.731H1448.175z
				 M1452.996,188.038h-0.17l-4.658-8.958h-2.414v8.958h-4.602v-23h4.209h5.071c8.249,0,9.056,11.548,2.265,13.521l5.369,9.478
				H1452.996z"/>
			<path d="M1449.628,169.638h-3.874v5.327h3.874C1453.018,174.964,1453.018,169.638,1449.628,169.638z"/>
		</g>
	</g>
	<g>
		<g>
			<path fill="#FFF200" d="M1470.206,189.974v15.639c0,6.595,6.603,10.046,12.845,10.046c0.445,0,1.032-0.02,1.477-0.055
				c0.355,0.034,0.783,0.055,1.146,0.055c2.612,0,5.091-0.891,6.933-2.507c1.479-1.296,3.262-3.656,3.262-7.539v-15.639H1470.206z"
				/>
		</g>
		<path d="M1469.479,188.764v17.069c0,7.103,6.98,10.819,13.701,10.819c0.479,0,1.046-0.021,1.525-0.059
			c0.381,0.036,0.809,0.059,1.199,0.059c2.814,0,5.457-0.958,7.443-2.7c1.592-1.396,3.488-3.938,3.488-8.119v-17.069H1469.479z
			 M1472.143,191.185h2.42v14.648c0,2.006,0.559,4.748,2.572,7.092c-2.946-1.288-4.992-3.652-4.992-7.092V191.185z
			 M1478.458,191.185h3.61V205.8c0,2.425,1.877,3.638,3.754,3.638c1.875,0,3.752-1.213,3.752-3.638v-14.616h4.357v14.648
			c0,5.499-4.051,8.248-8.232,8.248c-4.179,0-8.231-2.749-8.231-8.248v-14.648H1478.458z M1486.91,205.8
			c0,0.708-0.426,1.067-1.211,1.067c-0.781,0-1.21-0.359-1.21-1.067v-14.616h2.421V205.8z"/>
	</g>
	<g>
		<rect x="1505.795" y="158.501" fill="#FFF200" width="13.072" height="25.905"/>
		<path d="M1504.825,157.291v28.325h15.253v-28.325H1504.825z M1517.174,183.195h-4.359v-22.999h4.359V183.195z M1507.489,160.196
			h2.421v22.999h-2.421V160.196z"/>
	</g>
	<g>
		<polygon fill="#FFF200" points="1552.277,215.637 1544.185,215.637 1538.963,209.646 1538.963,215.637 1526.613,215.637 
			1526.613,189.974 1535.25,189.974 1540.174,194.608 1540.174,189.974 1552.277,189.974 		"/>
		<path d="M1538.721,188.764v2.635l-2.696-2.635h-10.378v28.083h15.01v-3.581l3.131,3.581h9.459v-28.083H1538.721z
			 M1551.066,214.427h-1.09l-12.225-13.146v13.146h-4.359v-23.242h1.48l11.352,12.651v-12.651h4.842V214.427z M1544.906,214.427
			l-4.25-4.934v-1.675l5.686,6.609H1544.906z M1528.553,191.185h2.178v23.242h-2.178V191.185z M1544.047,191.185v5.903l-2.905-2.805
			v-3.099H1544.047z"/>
	</g>
	<g>
		<polygon fill="#FFF200" points="1424.77,272.288 1436.029,246.141 1443.092,246.141 1454.113,272.288 		"/>
		<g>
			<g>
				<path d="M1444.256,245.173h-9.408l-11.824,28.326h33.057L1444.256,245.173z M1426.842,271.078l9.734-22.999h2.617l-9.666,22.999
					H1426.842z M1446.113,268.656h-7.666l-0.904,2.421h-5.242l9.738-22.999h0.484l9.735,22.999h-5.207L1446.113,268.656z"/>
				<polygon points="1440.131,264.541 1444.398,264.541 1442.297,258.524 				"/>
			</g>
		</g>
	</g>
	<g>
		<g>
			<path fill="#FFF200" d="M1478.539,245.717c0,0-1.346-1.157-1.189-1.433c0.266-0.472,2.018-0.291,2.643-0.038l3.234,1.501
				l0.248-1.892l0.529-4.072l0.248-1.892l-1.801-0.626c-0.425-0.147-0.812-0.267-1.186-0.376c-3.115-1.144-6-1.016-9.699-0.851
				c-4.736,0.24-8.179,3.929-8.179,8.774c0,4.041,3.45,6.01,5.845,7.252l-0.578,2.305c-0.394-0.172-0.797-0.391-1.191-0.671
				l-3.624-2.022l-0.197,1.886l-0.532,4.427l-0.193,1.617l1.449,0.747c3.064,1.579,7.157,1.815,7.157,1.815
				c1.87,0.227,3.383,0.289,4.604,0.213c0.043,0,0.089,0,0.133,0c0.253,0,0.499-0.008,0.729-0.024
				c5.047-0.276,8.57-3.868,8.57-8.744C1485.559,249.9,1483.194,247.595,1478.539,245.717z"/>
		</g>
		<g>
			<path d="M1478.951,244.812l0.004-0.028c0.578,0.132,1.209,0.333,1.893,0.611l3.085,1.249l0.429-3.299l0.584-4.464l0.271-2.075
				l-1.976-0.687c-0.464-0.161-0.89-0.293-1.299-0.412c-3.416-1.254-6.575-1.114-10.632-0.934c-5.192,0.263-8.966,4.308-8.966,9.619
				c0,4.43,3.032,6.873,5.657,8.234l-0.037,0.3c-0.43-0.188-0.871-0.428-1.306-0.735l-3.524-2.493l-0.514,4.286l-0.582,4.853
				l-0.214,1.773l1.589,0.818c3.359,1.731,7.848,1.99,7.848,1.99c2.049,0.249,3.706,0.317,5.046,0.234
				c0.049,0,0.099,0.001,0.146,0.001c0.28,0,0.549-0.009,0.799-0.026c5.535-0.302,9.396-4.24,9.396-9.585
				C1486.648,249.971,1484.057,246.87,1478.951,244.812z M1477.091,261.062c-0.183,0.014-0.397,0.022-0.638,0.022
				c-1.473,0-3.977-0.317-6.674-1.705l0.583-4.853c2.22,1.57,4.597,1.872,5.94,1.872c0.262,0,0.484-0.011,0.66-0.027
				c1.355-0.097,2.52-1.067,2.393-2.329c-0.097-1.327-1.101-1.909-2.393-2.361c-3.624-1.327-6.859-3.171-6.859-7.052
				c0-3.881,2.686-6.857,6.535-7.052c0.238-0.013,0.494-0.023,0.771-0.023c1.114,0,2.605,0.166,4.986,0.993l-0.584,4.464
				c-2.111-0.855-3.47-0.981-4.281-0.981c-0.172,0-0.316,0.005-0.44,0.011c-1.648,0.097-2.396,1.294-2.297,2.588
				c0.129,1.293,1.263,1.876,2.587,2.329c3.592,1.326,6.697,3.396,6.697,7.084C1484.078,257.891,1481.425,260.834,1477.091,261.062z
				 M1464.914,244.393c0-3.576,2.281-6.376,5.648-6.949c-1.885,1.737-3.029,4.267-3.029,7.185c0,2.778,1.193,4.774,2.73,6.213
				C1467.299,249.551,1464.914,247.724,1464.914,244.393z M1465.174,254.291c0.824,0.583,1.668,0.99,2.475,1.273l-0.42,3.508
				l-0.131,1.093c-0.801-0.25-1.641-0.576-2.506-1.021L1465.174,254.291z"/>
		</g>
	</g>
	<g>
		<rect x="1499.017" y="247.352" fill="#FFF200" width="24.693" height="26.389"/>
		<g>
			<path d="M1498.289,246.384v28.325h26.146v-28.325H1498.289z M1522.257,271.804h-4.6v-8.958h-7.263v8.958h-4.116v-22.999h4.116
				v9.442h7.263v-9.442h4.6V271.804z M1513.3,265.267h1.937v6.537h-1.937V265.267z M1500.468,248.805h2.906v22.999h-2.906V248.805z
				 M1515.236,255.341h-1.937v-6.537h1.937V255.341z"/>
		</g>
	</g>
</g>
<linearGradient id="SVGID_2_" gradientUnits="userSpaceOnUse" x1="1475.0479" y1="504" x2="1475.0479" y2="360">
	<stop  offset="0.0056" style="stop-color:#FFF200"/>
	<stop  offset="1" style="stop-color:#00A5E5"/>
</linearGradient>
<rect x="1366.549" y="360" opacity="0.75" fill="url(#SVGID_2_)" width="216.998" height="144"/>
<g>
	<rect x="1396.85" y="388.059" width="110.396" height="28.326"/>
	<rect x="1396.85" y="440.836" width="96.356" height="28.326"/>
	<g>
		<path d="M1530.974,451.489h3.872v10.895h-2.178v-8.716h-1.694V451.489z"/>
		<path d="M1543.32,457.299v-3.174v-2.636h-1.412h0.008h-2.27l-3.072,7.989h4.567v2.905h2.179v-2.905h1.211v-2.179H1543.32z
			 M1541.142,455.599v1.943h-1.432l1.432-3.8V455.599z"/>
	</g>
	<g>
		<g>
			<g>
				<path fill="#FFFFFF" d="M1420.844,401.737c0.672-1.138,0.975-2.521,1.029-4.04l-0.088-0.016v-0.015
					c0-2.564-0.693-4.73-2.283-6.36c-1.548-1.584-3.56-2.279-5.986-2.279h-15.698v26.147h15.698c4.791,0,8.688-4.082,8.688-8.939
					C1422.204,404.64,1421.717,402.99,1420.844,401.737z"/>
			</g>
		</g>
		<g>
			<path d="M1421.729,401.7c0.726-1.231,1.054-2.727,1.116-4.369l-0.092-0.018v-0.017c0-2.773-0.752-5.063-2.475-6.825
				c-1.671-1.714-3.852-2.413-6.476-2.413h-16.954v28.326h16.954c5.179,0,9.396-4.491,9.396-9.745
				C1423.199,404.916,1422.673,403.055,1421.729,401.7z M1401.934,413.479h-2.663v-23h2.663V413.479z M1413.804,413.479h-9.45v-23
				h9.45c4.107,0,6.663,2.812,6.565,6.888c-0.063,1.747-0.68,3.492-2.135,4.495c1.521,1.035,2.395,2.833,2.395,4.644
				C1420.629,410.387,1417.556,413.479,1413.804,413.479z"/>
			<path d="M1415.549,397.501c0-1.294-0.808-2.421-2.133-2.421h-4.462v4.842h4.462
				C1414.741,399.921,1415.549,398.762,1415.549,397.501z"/>
			<path d="M1413.416,404.038h-4.462v4.842h4.462c1.325,0,2.328-1.143,2.328-2.438
				C1415.744,405.148,1414.741,404.038,1413.416,404.038z"/>
		</g>
	</g>
	<g>
		<g>
			<g>
				<path fill="#FFFFFF" d="M1420.844,454.568c0.672-1.139,0.975-2.522,1.029-4.04l-0.088-0.016v-0.016
					c0-2.564-0.693-4.635-2.283-6.265c-1.548-1.584-3.56-2.185-5.986-2.185h-15.698v26.146h15.698c4.791,0,8.688-4.177,8.688-9.034
					C1422.204,457.565,1421.717,455.821,1420.844,454.568z"/>
			</g>
		</g>
		<g>
			<path d="M1421.729,454.531c0.726-1.23,1.054-2.727,1.116-4.369l-0.092-0.018v-0.017c0-2.773-0.752-5.089-2.475-6.852
				c-1.671-1.714-3.852-2.44-6.476-2.44h-16.954v28.326h16.954c5.179,0,9.396-4.465,9.396-9.718
				C1423.199,457.72,1422.673,455.885,1421.729,454.531z M1401.934,466.257h-2.663v-23h2.663V466.257z M1413.804,466.257h-9.45v-23
				h9.45c4.107,0,6.663,2.838,6.565,6.914c-0.063,1.747-0.68,3.505-2.135,4.509c1.521,1.035,2.395,2.812,2.395,4.623
				C1420.629,463.185,1417.556,466.257,1413.804,466.257z"/>
			<path d="M1415.549,450.278c0-1.293-0.808-2.421-2.133-2.421h-4.462v4.842h4.462
				C1414.741,452.699,1415.549,451.54,1415.549,450.278z"/>
			<path d="M1413.416,456.815h-4.462v4.842h4.462c1.325,0,2.328-1.143,2.328-2.438
				C1415.744,457.926,1414.741,456.815,1413.416,456.815z"/>
		</g>
	</g>
	<g>
		<g>
			<g>
				<path fill="#FFFFFF" d="M1455.213,395.361c2.602-1.975,3.611-5.271,3.189-8.228c-0.525-3.689-3.357-7.306-8.504-7.306h-15.281
					v25.904h26.285L1455.213,395.361z"/>
			</g>
		</g>
		<g>
			<path d="M1456.243,395.604c2.843-2.16,3.946-5.765,3.486-8.997c-0.573-4.034-3.672-7.99-9.297-7.99h-16.783v28.326h28.813
				L1456.243,395.604z M1438.249,404.038h-2.179v-23h2.179V404.038z M1448.175,404.038v-2.731l1.745,2.731H1448.175z
				 M1452.996,404.038h-0.17l-4.658-8.958h-2.414v8.958h-4.602v-23h4.209h5.071c8.249,0,9.056,11.548,2.265,13.521l5.369,9.478
				H1452.996z"/>
			<path d="M1449.628,385.638h-3.874v5.327h3.874C1453.018,390.964,1453.018,385.638,1449.628,385.638z"/>
		</g>
	</g>
	<g>
		<g>
			<path fill="#FFFFFF" d="M1470.206,405.974v15.639c0,6.595,6.603,10.046,12.845,10.046c0.445,0,1.032-0.02,1.477-0.055
				c0.355,0.034,0.783,0.055,1.146,0.055c2.612,0,5.091-0.891,6.933-2.507c1.479-1.296,3.262-3.656,3.262-7.539v-15.639H1470.206z"
				/>
		</g>
		<path d="M1469.479,404.764v17.069c0,7.103,6.98,10.819,13.701,10.819c0.479,0,1.046-0.021,1.525-0.059
			c0.381,0.036,0.809,0.059,1.199,0.059c2.814,0,5.457-0.958,7.443-2.7c1.592-1.396,3.488-3.938,3.488-8.119v-17.069H1469.479z
			 M1472.143,407.185h2.42v14.648c0,2.006,0.559,4.748,2.572,7.092c-2.946-1.288-4.992-3.652-4.992-7.092V407.185z
			 M1478.458,407.185h3.61V421.8c0,2.425,1.877,3.638,3.754,3.638c1.875,0,3.752-1.213,3.752-3.638v-14.616h4.357v14.648
			c0,5.499-4.051,8.248-8.232,8.248c-4.179,0-8.231-2.749-8.231-8.248v-14.648H1478.458z M1486.91,421.8
			c0,0.708-0.426,1.067-1.211,1.067c-0.781,0-1.21-0.359-1.21-1.067v-14.616h2.421V421.8z"/>
	</g>
	<g>
		<rect x="1505.795" y="374.501" fill="#FFFFFF" width="13.072" height="25.905"/>
		<path d="M1504.825,373.291v28.325h15.253v-28.325H1504.825z M1517.174,399.195h-4.359v-22.999h4.359V399.195z M1507.489,376.196
			h2.421v22.999h-2.421V376.196z"/>
	</g>
	<g>
		<polygon fill="#FFFFFF" points="1552.277,431.637 1544.185,431.637 1538.963,425.646 1538.963,431.637 1526.613,431.637 
			1526.613,405.974 1535.25,405.974 1540.174,410.608 1540.174,405.974 1552.277,405.974 		"/>
		<path d="M1538.721,404.764v2.635l-2.696-2.635h-10.378v28.083h15.01v-3.581l3.131,3.581h9.459v-28.083H1538.721z
			 M1551.066,430.427h-1.09l-12.225-13.146v13.146h-4.359v-23.242h1.48l11.352,12.651v-12.651h4.842V430.427z M1544.906,430.427
			l-4.25-4.934v-1.675l5.686,6.609H1544.906z M1528.553,407.185h2.178v23.242h-2.178V407.185z M1544.047,407.185v5.903l-2.905-2.805
			v-3.099H1544.047z"/>
	</g>
	<g>
		<polygon fill="#FFFFFF" points="1424.77,488.288 1436.029,462.141 1443.092,462.141 1454.113,488.288 		"/>
		<g>
			<g>
				<path d="M1444.256,461.173h-9.408l-11.824,28.326h33.057L1444.256,461.173z M1426.842,487.078l9.734-22.999h2.617l-9.666,22.999
					H1426.842z M1446.113,484.656h-7.666l-0.904,2.421h-5.242l9.738-22.999h0.484l9.735,22.999h-5.207L1446.113,484.656z"/>
				<polygon points="1440.131,480.541 1444.398,480.541 1442.297,474.524 				"/>
			</g>
		</g>
	</g>
	<g>
		<g>
			<path fill="#FFFFFF" d="M1478.539,461.717c0,0-1.346-1.157-1.189-1.433c0.266-0.472,2.018-0.291,2.643-0.038l3.234,1.501
				l0.248-1.892l0.529-4.072l0.248-1.892l-1.801-0.626c-0.425-0.147-0.812-0.267-1.186-0.376c-3.115-1.144-6-1.016-9.699-0.851
				c-4.736,0.24-8.179,3.929-8.179,8.774c0,4.041,3.45,6.01,5.845,7.252l-0.578,2.305c-0.394-0.172-0.797-0.391-1.191-0.671
				l-3.624-2.022l-0.197,1.886l-0.532,4.427l-0.193,1.617l1.449,0.747c3.064,1.579,7.157,1.815,7.157,1.815
				c1.87,0.227,3.383,0.289,4.604,0.213c0.043,0,0.089,0,0.133,0c0.253,0,0.499-0.008,0.729-0.024
				c5.047-0.276,8.57-3.868,8.57-8.744C1485.559,465.9,1483.194,463.595,1478.539,461.717z"/>
		</g>
		<g>
			<path d="M1478.951,460.812l0.004-0.028c0.578,0.132,1.209,0.333,1.893,0.611l3.085,1.249l0.429-3.299l0.584-4.464l0.271-2.075
				l-1.976-0.687c-0.464-0.161-0.89-0.293-1.299-0.412c-3.416-1.254-6.575-1.114-10.632-0.934c-5.192,0.263-8.966,4.308-8.966,9.619
				c0,4.43,3.032,6.873,5.657,8.234l-0.037,0.3c-0.43-0.188-0.871-0.428-1.306-0.735l-3.524-2.493l-0.514,4.286l-0.582,4.853
				l-0.214,1.773l1.589,0.818c3.359,1.731,7.848,1.99,7.848,1.99c2.049,0.249,3.706,0.317,5.046,0.234
				c0.049,0,0.099,0.001,0.146,0.001c0.28,0,0.549-0.009,0.799-0.026c5.535-0.302,9.396-4.24,9.396-9.585
				C1486.648,465.971,1484.057,462.87,1478.951,460.812z M1477.091,477.062c-0.183,0.014-0.397,0.022-0.638,0.022
				c-1.473,0-3.977-0.317-6.674-1.705l0.583-4.853c2.22,1.57,4.597,1.872,5.94,1.872c0.262,0,0.484-0.011,0.66-0.027
				c1.355-0.097,2.52-1.067,2.393-2.329c-0.097-1.327-1.101-1.909-2.393-2.361c-3.624-1.327-6.859-3.171-6.859-7.052
				c0-3.881,2.686-6.857,6.535-7.052c0.238-0.013,0.494-0.023,0.771-0.023c1.114,0,2.605,0.166,4.986,0.993l-0.584,4.464
				c-2.111-0.855-3.47-0.981-4.281-0.981c-0.172,0-0.316,0.005-0.44,0.011c-1.648,0.097-2.396,1.294-2.297,2.588
				c0.129,1.293,1.263,1.876,2.587,2.329c3.592,1.326,6.697,3.396,6.697,7.084C1484.078,473.891,1481.425,476.834,1477.091,477.062z
				 M1464.914,460.393c0-3.576,2.281-6.376,5.648-6.949c-1.885,1.737-3.029,4.267-3.029,7.185c0,2.778,1.193,4.774,2.73,6.213
				C1467.299,465.551,1464.914,463.724,1464.914,460.393z M1465.174,470.291c0.824,0.583,1.668,0.99,2.475,1.273l-0.42,3.508
				l-0.131,1.093c-0.801-0.25-1.641-0.576-2.506-1.021L1465.174,470.291z"/>
		</g>
	</g>
	<g>
		<rect x="1499.017" y="463.352" fill="#FFFFFF" width="24.693" height="26.389"/>
		<g>
			<path d="M1498.289,462.384v28.325h26.146v-28.325H1498.289z M1522.257,487.804h-4.6v-8.958h-7.263v8.958h-4.116v-22.999h4.116
				v9.442h7.263v-9.442h4.6V487.804z M1513.3,481.267h1.937v6.537h-1.937V481.267z M1500.468,464.805h2.906v22.999h-2.906V464.805z
				 M1515.236,471.341h-1.937v-6.537h1.937V471.341z"/>
		</g>
	</g>
</g>
<rect x="1366.549" y="576" fill="#FFFFFF" width="216.998" height="144"/>
<g>
	<rect x="1396.85" y="604.059" width="110.396" height="28.326"/>
	<rect x="1396.85" y="656.836" width="96.356" height="28.326"/>
	<g>
		<path d="M1530.974,667.489h3.872v10.895h-2.178v-8.716h-1.694V667.489z"/>
		<path d="M1543.32,673.299v-3.174v-2.636h-1.412h0.008h-2.27l-3.072,7.989h4.567v2.905h2.179v-2.905h1.211v-2.18H1543.32z
			 M1541.142,671.599v1.942h-1.432l1.432-3.799V671.599z"/>
	</g>
	<g>
		<g>
			<g>
				<path fill="#FFFFFF" d="M1420.844,617.737c0.672-1.138,0.975-2.521,1.029-4.04l-0.088-0.016v-0.016
					c0-2.563-0.693-4.729-2.283-6.359c-1.548-1.584-3.56-2.279-5.986-2.279h-15.698v26.146h15.698c4.791,0,8.688-4.082,8.688-8.939
					C1422.204,620.641,1421.717,618.99,1420.844,617.737z"/>
			</g>
		</g>
		<g>
			<path d="M1421.729,617.7c0.726-1.231,1.054-2.728,1.116-4.368l-0.092-0.018v-0.018c0-2.773-0.752-5.062-2.475-6.824
				c-1.671-1.715-3.852-2.414-6.476-2.414h-16.954v28.326h16.954c5.179,0,9.396-4.491,9.396-9.744
				C1423.199,620.916,1422.673,619.055,1421.729,617.7z M1401.934,629.479h-2.663v-23h2.663V629.479z M1413.804,629.479h-9.45v-23
				h9.45c4.107,0,6.663,2.812,6.565,6.888c-0.063,1.746-0.68,3.492-2.135,4.495c1.521,1.034,2.395,2.833,2.395,4.644
				C1420.629,626.387,1417.556,629.479,1413.804,629.479z"/>
			<path d="M1415.549,613.501c0-1.294-0.808-2.421-2.133-2.421h-4.462v4.842h4.462
				C1414.741,615.922,1415.549,614.762,1415.549,613.501z"/>
			<path d="M1413.416,620.037h-4.462v4.842h4.462c1.325,0,2.328-1.143,2.328-2.438
				C1415.744,621.148,1414.741,620.037,1413.416,620.037z"/>
		</g>
	</g>
	<g>
		<g>
			<g>
				<path fill="#FFFFFF" d="M1420.844,670.568c0.672-1.139,0.975-2.521,1.029-4.039l-0.088-0.017v-0.016
					c0-2.564-0.693-4.636-2.283-6.265c-1.548-1.585-3.56-2.186-5.986-2.186h-15.698v26.146h15.698c4.791,0,8.688-4.176,8.688-9.033
					C1422.204,673.564,1421.717,671.82,1420.844,670.568z"/>
			</g>
		</g>
		<g>
			<path d="M1421.729,670.531c0.726-1.23,1.054-2.728,1.116-4.369l-0.092-0.018v-0.017c0-2.772-0.752-5.089-2.475-6.852
				c-1.671-1.714-3.852-2.44-6.476-2.44h-16.954v28.326h16.954c5.179,0,9.396-4.465,9.396-9.718
				C1423.199,673.72,1422.673,671.885,1421.729,670.531z M1401.934,682.258h-2.663v-23h2.663V682.258z M1413.804,682.258h-9.45v-23
				h9.45c4.107,0,6.663,2.838,6.565,6.914c-0.063,1.746-0.68,3.504-2.135,4.508c1.521,1.035,2.395,2.812,2.395,4.623
				C1420.629,679.186,1417.556,682.258,1413.804,682.258z"/>
			<path d="M1415.549,666.278c0-1.294-0.808-2.421-2.133-2.421h-4.462v4.842h4.462
				C1414.741,668.699,1415.549,667.54,1415.549,666.278z"/>
			<path d="M1413.416,672.815h-4.462v4.842h4.462c1.325,0,2.328-1.144,2.328-2.438S1414.741,672.815,1413.416,672.815z"/>
		</g>
	</g>
	<g>
		<g>
			<g>
				<path fill="#FFFFFF" d="M1455.213,611.361c2.602-1.975,3.611-5.271,3.189-8.229c-0.525-3.688-3.357-7.305-8.504-7.305h-15.281
					v25.904h26.285L1455.213,611.361z"/>
			</g>
		</g>
		<g>
			<path d="M1456.243,611.604c2.843-2.159,3.946-5.764,3.486-8.996c-0.573-4.035-3.672-7.99-9.297-7.99h-16.783v28.326h28.813
				L1456.243,611.604z M1438.249,620.037h-2.179v-22.999h2.179V620.037z M1448.175,620.037v-2.73l1.745,2.73H1448.175z
				 M1452.996,620.037h-0.17l-4.658-8.957h-2.414v8.957h-4.602v-22.999h4.209h5.071c8.249,0,9.056,11.548,2.265,13.521l5.369,9.478
				H1452.996z"/>
			<path d="M1449.628,601.638h-3.874v5.327h3.874C1453.018,606.965,1453.018,601.638,1449.628,601.638z"/>
		</g>
	</g>
	<g>
		<g>
			<path fill="#FFFFFF" d="M1470.206,621.975v15.639c0,6.596,6.603,10.047,12.845,10.047c0.445,0,1.032-0.021,1.477-0.055
				c0.355,0.033,0.783,0.055,1.146,0.055c2.612,0,5.091-0.892,6.933-2.508c1.479-1.296,3.262-3.656,3.262-7.539v-15.639H1470.206z"
				/>
		</g>
		<path d="M1469.479,620.764v17.068c0,7.104,6.98,10.819,13.701,10.819c0.479,0,1.046-0.021,1.525-0.059
			c0.381,0.036,0.809,0.059,1.199,0.059c2.814,0,5.457-0.958,7.443-2.7c1.592-1.396,3.488-3.938,3.488-8.119v-17.068H1469.479z
			 M1472.143,623.185h2.42v14.647c0,2.007,0.559,4.748,2.572,7.092c-2.946-1.287-4.992-3.651-4.992-7.092V623.185z
			 M1478.458,623.185h3.61v14.616c0,2.425,1.877,3.638,3.754,3.638c1.875,0,3.752-1.213,3.752-3.638v-14.616h4.357v14.647
			c0,5.5-4.051,8.248-8.232,8.248c-4.179,0-8.231-2.748-8.231-8.248v-14.647H1478.458z M1486.91,637.801
			c0,0.708-0.426,1.066-1.211,1.066c-0.781,0-1.21-0.358-1.21-1.066v-14.616h2.421V637.801z"/>
	</g>
	<g>
		<rect x="1505.795" y="590.501" fill="#FFFFFF" width="13.072" height="25.905"/>
		<path d="M1504.825,589.291v28.325h15.253v-28.325H1504.825z M1517.174,615.195h-4.359v-22.999h4.359V615.195z M1507.489,592.196
			h2.421v22.999h-2.421V592.196z"/>
	</g>
	<g>
		<polygon fill="#FFFFFF" points="1552.277,647.637 1544.185,647.637 1538.963,641.646 1538.963,647.637 1526.613,647.637 
			1526.613,621.975 1535.25,621.975 1540.174,626.608 1540.174,621.975 1552.277,621.975 		"/>
		<path d="M1538.721,620.764v2.635l-2.696-2.635h-10.378v28.084h15.01v-3.581l3.131,3.581h9.459v-28.084H1538.721z
			 M1551.066,646.427h-1.09l-12.225-13.146v13.146h-4.359v-23.242h1.48l11.352,12.651v-12.651h4.842V646.427z M1544.906,646.427
			l-4.25-4.935v-1.675l5.686,6.609H1544.906z M1528.553,623.185h2.178v23.242h-2.178V623.185z M1544.047,623.185v5.903l-2.905-2.805
			v-3.099H1544.047z"/>
	</g>
	<g>
		<polygon fill="#FFFFFF" points="1424.77,704.288 1436.029,678.141 1443.092,678.141 1454.113,704.288 		"/>
		<g>
			<g>
				<path d="M1444.256,677.174h-9.408l-11.824,28.325h33.057L1444.256,677.174z M1426.842,703.078l9.734-23h2.617l-9.666,23
					H1426.842z M1446.113,700.656h-7.666l-0.904,2.422h-5.242l9.738-23h0.484l9.735,23h-5.207L1446.113,700.656z"/>
				<polygon points="1440.131,696.541 1444.398,696.541 1442.297,690.523 				"/>
			</g>
		</g>
	</g>
	<g>
		<g>
			<path fill="#FFFFFF" d="M1478.539,677.717c0,0-1.346-1.156-1.189-1.432c0.266-0.473,2.018-0.291,2.643-0.039l3.234,1.502
				l0.248-1.893l0.529-4.072l0.248-1.892l-1.801-0.626c-0.425-0.148-0.812-0.268-1.186-0.377c-3.115-1.143-6-1.016-9.699-0.851
				c-4.736,0.239-8.179,3.929-8.179,8.774c0,4.041,3.45,6.01,5.845,7.252l-0.578,2.305c-0.394-0.172-0.797-0.391-1.191-0.67
				l-3.624-2.022l-0.197,1.886l-0.532,4.427l-0.193,1.617l1.449,0.747c3.064,1.578,7.157,1.814,7.157,1.814
				c1.87,0.227,3.383,0.289,4.604,0.214c0.043,0,0.089,0.001,0.133,0.001c0.253,0,0.499-0.009,0.729-0.024
				c5.047-0.276,8.57-3.868,8.57-8.743C1485.559,681.9,1483.194,679.596,1478.539,677.717z"/>
		</g>
		<g>
			<path d="M1478.951,676.812l0.004-0.028c0.578,0.133,1.209,0.334,1.893,0.611l3.085,1.248l0.429-3.299l0.584-4.463l0.271-2.075
				l-1.976-0.687c-0.464-0.161-0.89-0.293-1.299-0.412c-3.416-1.254-6.575-1.113-10.632-0.934c-5.192,0.264-8.966,4.309-8.966,9.619
				c0,4.43,3.032,6.873,5.657,8.234l-0.037,0.301c-0.43-0.188-0.871-0.429-1.306-0.736l-3.524-2.492l-0.514,4.285l-0.582,4.854
				l-0.214,1.773l1.589,0.818c3.359,1.73,7.848,1.989,7.848,1.989c2.049,0.249,3.706,0.317,5.046,0.233
				c0.049,0,0.099,0.002,0.146,0.002c0.28,0,0.549-0.01,0.799-0.027c5.535-0.302,9.396-4.24,9.396-9.585
				C1486.648,681.971,1484.057,678.869,1478.951,676.812z M1477.091,693.062c-0.183,0.014-0.397,0.022-0.638,0.022
				c-1.473,0-3.977-0.316-6.674-1.705l0.583-4.853c2.22,1.569,4.597,1.872,5.94,1.872c0.262,0,0.484-0.012,0.66-0.027
				c1.355-0.098,2.52-1.068,2.393-2.329c-0.097-1.327-1.101-1.909-2.393-2.36c-3.624-1.328-6.859-3.172-6.859-7.053
				s2.686-6.857,6.535-7.052c0.238-0.013,0.494-0.022,0.771-0.022c1.114,0,2.605,0.165,4.986,0.992l-0.584,4.465
				c-2.111-0.855-3.47-0.981-4.281-0.981c-0.172,0-0.316,0.005-0.44,0.011c-1.648,0.097-2.396,1.294-2.297,2.588
				c0.129,1.293,1.263,1.876,2.587,2.329c3.592,1.325,6.697,3.396,6.697,7.084C1484.078,689.891,1481.425,692.834,1477.091,693.062z
				 M1464.914,676.393c0-3.575,2.281-6.376,5.648-6.948c-1.885,1.737-3.029,4.267-3.029,7.185c0,2.777,1.193,4.773,2.73,6.213
				C1467.299,681.551,1464.914,679.724,1464.914,676.393z M1465.174,686.291c0.824,0.582,1.668,0.99,2.475,1.273l-0.42,3.508
				l-0.131,1.093c-0.801-0.251-1.641-0.575-2.506-1.021L1465.174,686.291z"/>
		</g>
	</g>
	<g>
		<rect x="1499.017" y="679.352" fill="#FFFFFF" width="24.693" height="26.389"/>
		<g>
			<path d="M1498.289,678.384v28.325h26.146v-28.325H1498.289z M1522.257,703.804h-4.6v-8.958h-7.263v8.958h-4.116v-22.999h4.116
				v9.441h7.263v-9.441h4.6V703.804z M1513.3,697.268h1.937v6.536h-1.937V697.268z M1500.468,680.805h2.906v22.999h-2.906V680.805z
				 M1515.236,687.342h-1.937v-6.537h1.937V687.342z"/>
		</g>
	</g>
</g>
<rect x="144.004" y="144" fill="#FFFFFF" width="861.87" height="576"/>
<g>
	<rect x="262.656" y="256.234" width="441.59" height="113.305"/>
	<rect x="262.656" y="467.344" width="385.427" height="113.305"/>
	<g>
		<path d="M799.154,509.958h15.488v43.578h-8.71v-34.862h-6.778V509.958z"/>
		<path d="M848.54,533.196v-12.695v-10.543h-5.647h0.03h-9.077l-12.289,31.957h18.27v11.621h8.714v-11.621h4.847v-8.718H848.54z
			 M839.826,526.396v7.769H834.1l5.727-15.195V526.396z"/>
	</g>
	<g>
		<g>
			<g>
				<path fill="#FFFFFF" d="M358.633,310.949c2.688-4.55,3.9-10.082,4.12-16.16l-0.353-0.062v-0.062
					c0-10.253-2.774-18.917-9.135-25.438c-6.189-6.336-14.237-9.117-23.943-9.117h-62.793v104.586h62.793
					c19.164,0,34.753-16.328,34.753-35.757C364.075,322.562,362.127,315.961,358.633,310.949z"/>
			</g>
		</g>
		<g>
			<path d="M362.176,310.801c2.904-4.925,4.217-10.91,4.466-17.473l-0.365-0.07v-0.07c0-11.094-3.011-20.251-9.899-27.298
				c-6.684-6.859-15.405-9.656-25.902-9.656h-67.818v113.305h67.818c20.713,0,37.583-17.965,37.583-38.976
				C368.058,323.664,365.95,316.218,362.176,310.801z M282.994,357.917h-10.652v-92h10.652V357.917z M330.475,357.917h-37.803v-92
				h37.803c16.43,0,26.651,11.25,26.262,27.551c-0.256,6.984-2.721,13.969-8.541,17.981c6.088,4.136,9.581,11.332,9.581,18.574
				C357.776,345.547,345.481,357.917,330.475,357.917z"/>
			<path d="M337.455,294.004c0-5.177-3.23-9.684-8.533-9.684h-17.846v19.367h17.846
				C334.225,303.688,337.455,299.047,337.455,294.004z"/>
			<path d="M328.922,320.149h-17.846v19.366h17.846c5.303,0,9.312-4.57,9.312-9.75C338.234,324.594,334.225,320.149,328.922,320.149
				z"/>
		</g>
	</g>
	<g>
		<g>
			<g>
				<path fill="#FFFFFF" d="M358.633,522.274c2.688-4.555,3.9-10.086,4.12-16.157l-0.353-0.066v-0.062
					c0-10.258-2.774-18.543-9.135-25.059c-6.189-6.339-14.237-8.742-23.943-8.742h-62.793v104.586h62.793
					c19.164,0,34.753-16.702,34.753-36.133C364.075,534.259,362.127,527.282,358.633,522.274z"/>
			</g>
		</g>
		<g>
			<path d="M362.176,522.126c2.904-4.923,4.217-10.911,4.466-17.477l-0.365-0.07v-0.067c0-11.088-3.011-20.354-9.899-27.405
				c-6.684-6.856-15.405-9.763-25.902-9.763h-67.818v113.305h67.818c20.713,0,37.583-17.858,37.583-38.87
				C368.058,534.88,365.95,527.54,362.176,522.126z M282.994,569.031h-10.652v-92h10.652V569.031z M330.475,569.031h-37.803v-92
				h37.803c16.43,0,26.651,11.353,26.262,27.657c-0.256,6.985-2.721,14.016-8.541,18.031c6.088,4.142,9.581,11.251,9.581,18.493
				C357.776,556.742,345.481,569.031,330.475,569.031z"/>
			<path d="M337.455,505.113c0-5.176-3.23-9.684-8.533-9.684h-17.846v19.368h17.846C334.225,514.798,337.455,510.16,337.455,505.113
				z"/>
			<path d="M328.922,531.262h-17.846v19.368h17.846c5.303,0,9.312-4.574,9.312-9.75
				C338.234,535.703,334.225,531.262,328.922,531.262z"/>
		</g>
	</g>
	<g>
		<g>
			<g>
				<path fill="#FFFFFF" d="M496.11,285.446c10.405-7.898,14.446-21.086,12.757-32.914c-2.102-14.754-13.426-29.219-34.016-29.219
					h-61.123V326.93h105.141L496.11,285.446z"/>
			</g>
		</g>
		<g>
			<path d="M500.232,286.414c11.371-8.637,15.784-23.054,13.945-35.984c-2.293-16.141-14.688-31.961-37.189-31.961h-67.131v113.305
				h115.252L500.232,286.414z M428.256,320.149h-8.716v-91.997h8.716V320.149z M467.96,320.149v-10.923l6.978,10.923H467.96z
				 M487.243,320.149h-0.679l-18.633-35.829h-9.656v35.829h-18.406v-91.997h16.836h20.283c32.996,0,36.224,46.191,9.059,54.086
				l21.478,37.911H487.243z"/>
			<path d="M473.771,246.551h-15.496v21.309h15.496C487.33,267.859,487.33,246.551,473.771,246.551z"/>
		</g>
	</g>
	<g>
		<g>
			<path fill="#FFFFFF" d="M556.083,327.898v62.555c0,26.382,26.411,40.188,51.38,40.188c1.78,0,4.129-0.083,5.906-0.219
				c1.422,0.133,3.133,0.219,4.582,0.219c10.447,0,20.363-3.567,27.73-10.031c5.914-5.184,13.047-14.625,13.047-30.157v-62.555
				H556.083z"/>
		</g>
		<path d="M553.174,323.055v68.274c0,28.414,27.922,43.277,54.805,43.277c1.918,0,4.184-0.081,6.104-0.234
			c1.52,0.145,3.232,0.234,4.794,0.234c11.259,0,21.829-3.832,29.774-10.801c6.367-5.581,13.955-15.75,13.955-32.476v-68.274
			H553.174z M563.83,332.738h9.68v58.59c0,8.027,2.234,18.992,10.288,28.368c-11.784-5.15-19.968-14.606-19.968-28.368V332.738z
			 M589.092,332.738h14.441v58.465c0,9.7,7.506,14.55,15.016,14.55c7.499,0,15.008-4.851,15.008-14.55v-58.465h17.432v58.59
			c0,22-16.205,32.993-32.932,32.993c-16.714,0-32.926-10.993-32.926-32.993v-58.59H589.092z M622.898,391.204
			c0,2.832-1.702,4.265-4.842,4.265c-3.125,0-4.841-1.434-4.841-4.265v-58.465h9.683V391.204z"/>
	</g>
	<g>
		<rect x="698.438" y="202.003" fill="#FFFFFF" width="52.291" height="103.622"/>
		<path d="M694.561,197.164v113.301h61.013V197.164H694.561z M743.956,300.782h-17.438v-91.997h17.438V300.782z M705.215,208.785
			h9.686v91.997h-9.686V208.785z"/>
	</g>
	<g>
		<polygon fill="#FFFFFF" points="884.367,430.548 851.999,430.548 831.111,406.586 831.111,430.548 781.713,430.548 
			781.713,327.898 816.26,327.898 835.956,346.434 835.956,327.898 884.367,327.898 		"/>
		<path d="M830.143,323.055v10.539l-10.785-10.539h-41.512V435.39h60.041v-14.323l12.521,14.323h37.838V323.055H830.143z
			 M879.525,425.708h-4.359l-48.898-52.582v52.582h-17.437v-92.969h5.921l45.406,50.605v-50.605h19.367V425.708z M854.885,425.708
			l-16.998-19.739v-6.699l22.74,26.438H854.885z M789.469,332.738h8.713v92.969h-8.713V332.738z M851.446,332.738v23.614
			l-11.62-11.219v-12.395H851.446z"/>
	</g>
	<g>
		<polygon fill="#FFFFFF" points="374.339,657.153 419.375,552.562 447.625,552.562 491.713,657.153 		"/>
		<g>
			<g>
				<path d="M452.283,548.695H414.65l-47.297,113.301H499.58L452.283,548.695z M382.626,652.312l38.938-92h10.469l-38.666,92
					H382.626z M459.713,642.626h-30.664l-3.618,9.687h-20.968l38.953-92h1.936l38.942,92h-20.829L459.713,642.626z"/>
				<polygon points="435.781,626.165 452.852,626.165 444.447,602.094 				"/>
			</g>
		</g>
	</g>
	<g>
		<g>
			<path fill="#FFFFFF" d="M589.416,550.868c0,0-5.383-4.625-4.758-5.728c1.062-1.89,8.068-1.164,10.57-0.156l12.938,6.009
				l0.993-7.571l2.116-16.289l0.992-7.566l-7.202-2.503c-1.7-0.595-3.251-1.071-4.745-1.508c-12.459-4.57-23.999-4.064-38.797-3.402
				c-18.943,0.956-32.715,15.714-32.715,35.098c0,16.163,13.803,24.039,23.378,29.008l-2.312,9.219
				c-1.572-0.689-3.188-1.562-4.763-2.68l-14.499-8.09l-0.787,7.544l-2.13,17.706l-0.772,6.467l5.797,2.99
				c12.256,6.313,28.629,7.257,28.629,7.257c7.479,0.907,13.531,1.157,18.418,0.856c0.172,0,0.355,0.003,0.531,0.003
				c1.012,0,1.996-0.035,2.914-0.097c20.186-1.106,34.282-15.473,34.282-34.975C617.495,567.602,608.035,558.383,589.416,550.868z"
				/>
		</g>
		<g>
			<path d="M591.064,547.246l0.015-0.113c2.312,0.532,4.837,1.337,7.57,2.446l12.339,4.992l1.718-13.196l2.334-17.851l1.087-8.301
				l-7.902-2.747c-1.857-0.644-3.56-1.171-5.196-1.648c-13.663-5.016-26.3-4.454-42.528-3.734
				c-20.768,1.054-35.859,17.234-35.859,38.477c0,17.718,12.125,27.491,22.625,32.938l-0.148,1.203
				c-1.717-0.755-3.482-1.717-5.221-2.945l-14.098-9.97l-2.056,17.14l-2.327,19.416l-0.855,7.093l6.357,3.274
				c13.434,6.922,31.389,7.956,31.389,7.956c8.193,0.997,14.824,1.271,20.183,0.934c0.196,0,0.397,0.009,0.583,0.009
				c1.119,0,2.195-0.039,3.195-0.109c22.141-1.208,37.584-16.962,37.584-38.34C621.852,567.883,611.487,555.477,591.064,547.246z
				 M583.623,612.246c-0.732,0.056-1.589,0.091-2.551,0.091c-5.889,0-15.906-1.266-26.696-6.821l2.333-19.409
				c8.879,6.276,18.387,7.488,23.762,7.488c1.047,0,1.937-0.046,2.641-0.11c5.422-0.39,10.078-4.272,9.569-9.315
				c-0.386-5.31-4.4-7.638-9.569-9.441c-14.496-5.312-27.439-12.688-27.439-28.211c0-15.523,10.744-27.43,26.143-28.208
				c0.951-0.051,1.977-0.09,3.086-0.09c4.457,0,10.422,0.66,19.944,3.97l-2.333,17.859c-8.447-3.422-13.881-3.927-17.127-3.927
				c-0.689,0-1.268,0.02-1.762,0.044c-6.595,0.387-9.582,5.176-9.188,10.352c0.516,5.171,5.05,7.503,10.348,9.316
				c14.367,5.3,26.788,13.582,26.788,28.336C611.571,599.562,600.959,611.335,583.623,612.246z M534.914,545.571
				c0-14.302,9.127-25.505,22.596-27.793c-7.54,6.949-12.118,17.066-12.118,28.738c0,11.108,4.773,19.092,10.923,24.852
				C544.456,566.203,534.914,558.895,534.914,545.571z M535.956,585.164c3.297,2.33,6.671,3.961,9.896,5.093l-1.678,14.033
				l-0.523,4.369c-3.203-1.002-6.562-2.302-10.023-4.085L535.956,585.164z"/>
		</g>
	</g>
	<g>
		<rect x="671.326" y="557.405" fill="#FFFFFF" width="98.771" height="105.557"/>
		<g>
			<path d="M668.415,553.535v113.301h104.586V553.535H668.415z M764.285,655.217h-18.396v-35.834h-29.051v35.834h-16.465V563.22
				h16.465v37.765h29.051V563.22h18.396V655.217z M728.458,629.072h7.745v26.145h-7.745V629.072z M677.13,563.22h11.626v91.997
				H677.13V563.22z M736.203,589.367h-7.745V563.22h7.745V589.367z"/>
		</g>
	</g>
</g>
<rect x="1075.783" y="144" fill="#FFF200" width="216.998" height="144"/>
<g>
	<rect x="1106.086" y="172.059" width="110.395" height="28.326"/>
	<rect x="1106.086" y="224.836" width="96.355" height="28.326"/>
	<g>
		<path d="M1240.209,235.489h3.872v10.895h-2.179v-8.716h-1.693V235.489z"/>
		<path d="M1252.556,241.299v-3.174v-2.636h-1.412h0.007h-2.268l-3.073,7.989h4.567v2.905h2.179v-2.905h1.21v-2.179H1252.556z
			 M1250.377,239.599v1.943h-1.432l1.432-3.8V239.599z"/>
	</g>
	<g>
		<g>
			<g>
				<path fill="#FFFFFF" d="M1130.078,185.737c0.672-1.138,0.975-2.521,1.03-4.04l-0.089-0.016v-0.015
					c0-2.564-0.692-4.73-2.281-6.36c-1.549-1.584-3.561-2.279-5.988-2.279h-15.697v26.147h15.697c4.792,0,8.689-4.082,8.689-8.939
					C1131.439,188.64,1130.951,186.99,1130.078,185.737z"/>
			</g>
		</g>
		<g>
			<path d="M1130.965,185.7c0.726-1.231,1.055-2.727,1.116-4.369l-0.092-0.018v-0.017c0-2.773-0.753-5.063-2.474-6.825
				c-1.672-1.714-3.854-2.413-6.477-2.413h-16.953v28.326h16.953c5.18,0,9.395-4.491,9.395-9.745
				C1132.434,188.916,1131.908,187.055,1130.965,185.7z M1111.17,197.479h-2.664v-23h2.664V197.479z M1123.039,197.479h-9.45v-23
				h9.45c4.107,0,6.662,2.812,6.566,6.888c-0.064,1.747-0.681,3.492-2.137,4.495c1.522,1.035,2.396,2.833,2.396,4.644
				C1129.865,194.387,1126.791,197.479,1123.039,197.479z"/>
			<path d="M1124.783,181.501c0-1.294-0.807-2.421-2.133-2.421h-4.461v4.842h4.461
				C1123.977,183.921,1124.783,182.762,1124.783,181.501z"/>
			<path d="M1122.65,188.038h-4.461v4.842h4.461c1.326,0,2.33-1.143,2.33-2.438C1124.98,189.148,1123.977,188.038,1122.65,188.038z"
				/>
		</g>
	</g>
	<g>
		<g>
			<g>
				<path fill="#FFFFFF" d="M1130.078,238.568c0.672-1.139,0.975-2.522,1.03-4.04l-0.089-0.016v-0.016
					c0-2.564-0.692-4.635-2.281-6.265c-1.549-1.584-3.561-2.185-5.988-2.185h-15.697v26.146h15.697c4.792,0,8.689-4.177,8.689-9.034
					C1131.439,241.565,1130.951,239.821,1130.078,238.568z"/>
			</g>
		</g>
		<g>
			<path d="M1130.965,238.531c0.726-1.23,1.055-2.727,1.116-4.369l-0.092-0.018v-0.017c0-2.773-0.753-5.089-2.474-6.852
				c-1.672-1.714-3.854-2.44-6.477-2.44h-16.953v28.326h16.953c5.18,0,9.395-4.465,9.395-9.718
				C1132.434,241.72,1131.908,239.885,1130.965,238.531z M1111.17,250.257h-2.664v-23h2.664V250.257z M1123.039,250.257h-9.45v-23
				h9.45c4.107,0,6.662,2.838,6.566,6.914c-0.064,1.747-0.681,3.505-2.137,4.509c1.522,1.035,2.396,2.812,2.396,4.623
				C1129.865,247.185,1126.791,250.257,1123.039,250.257z"/>
			<path d="M1124.783,234.278c0-1.293-0.807-2.421-2.133-2.421h-4.461v4.842h4.461
				C1123.977,236.699,1124.783,235.54,1124.783,234.278z"/>
			<path d="M1122.65,240.815h-4.461v4.842h4.461c1.326,0,2.33-1.143,2.33-2.438C1124.98,241.926,1123.977,240.815,1122.65,240.815z"
				/>
		</g>
	</g>
	<g>
		<g>
			<g>
				<path fill="#FFFFFF" d="M1164.449,179.361c2.6-1.975,3.61-5.271,3.188-8.228c-0.525-3.689-3.356-7.306-8.505-7.306h-15.281
					v25.904h26.286L1164.449,179.361z"/>
			</g>
		</g>
		<g>
			<path d="M1165.479,179.604c2.843-2.16,3.946-5.765,3.486-8.997c-0.573-4.034-3.672-7.99-9.297-7.99h-16.783v28.326h28.812
				L1165.479,179.604z M1147.484,188.038h-2.179v-23h2.179V188.038z M1157.41,188.038v-2.731l1.746,2.731H1157.41z M1162.23,188.038
				h-0.17l-4.658-8.958h-2.413v8.958h-4.601v-23h4.207h5.072c8.249,0,9.056,11.548,2.264,13.521l5.369,9.478H1162.23z"/>
			<path d="M1158.863,169.638h-3.874v5.327h3.874C1162.252,174.964,1162.252,169.638,1158.863,169.638z"/>
		</g>
	</g>
	<g>
		<g>
			<path fill="#FFFFFF" d="M1179.441,189.974v15.639c0,6.595,6.602,10.046,12.844,10.046c0.445,0,1.033-0.02,1.478-0.055
				c0.354,0.034,0.783,0.055,1.146,0.055c2.613,0,5.09-0.891,6.933-2.507c1.479-1.296,3.263-3.656,3.263-7.539v-15.639H1179.441z"/>
		</g>
		<path d="M1178.714,188.764v17.069c0,7.103,6.98,10.819,13.7,10.819c0.48,0,1.047-0.021,1.526-0.059
			c0.381,0.036,0.81,0.059,1.199,0.059c2.813,0,5.456-0.958,7.442-2.7c1.593-1.396,3.489-3.938,3.489-8.119v-17.069H1178.714z
			 M1181.378,191.185h2.421v14.648c0,2.006,0.558,4.748,2.572,7.092c-2.947-1.288-4.993-3.652-4.993-7.092V191.185z
			 M1187.693,191.185h3.609V205.8c0,2.425,1.877,3.638,3.755,3.638c1.874,0,3.752-1.213,3.752-3.638v-14.616h4.356v14.648
			c0,5.499-4.051,8.248-8.23,8.248s-8.232-2.749-8.232-8.248v-14.648H1187.693z M1196.145,205.8c0,0.708-0.426,1.067-1.209,1.067
			s-1.211-0.359-1.211-1.067v-14.616h2.42V205.8z"/>
	</g>
	<g>
		<rect x="1215.031" y="158.501" fill="#FFFFFF" width="13.07" height="25.905"/>
		<path d="M1214.061,157.291v28.325h15.252v-28.325H1214.061z M1226.409,183.195h-4.36v-22.999h4.36V183.195z M1216.725,160.196
			h2.42v22.999h-2.42V160.196z"/>
	</g>
	<g>
		<polygon fill="#FFFFFF" points="1261.512,215.637 1253.42,215.637 1248.197,209.646 1248.197,215.637 1235.85,215.637 
			1235.85,189.974 1244.486,189.974 1249.409,194.608 1249.409,189.974 1261.512,189.974 		"/>
		<path d="M1247.956,188.764v2.635l-2.696-2.635h-10.379v28.083h15.011v-3.581l3.131,3.581h9.458v-28.083H1247.956z
			 M1260.303,214.427h-1.092l-12.225-13.146v13.146h-4.359v-23.242h1.481l11.352,12.651v-12.651h4.843V214.427z M1254.142,214.427
			l-4.25-4.934v-1.675l5.686,6.609H1254.142z M1237.788,191.185h2.179v23.242h-2.179V191.185z M1253.281,191.185v5.903l-2.904-2.805
			v-3.099H1253.281z"/>
	</g>
	<g>
		<polygon fill="#FFFFFF" points="1134.005,272.288 1145.264,246.141 1152.327,246.141 1163.35,272.288 		"/>
		<g>
			<g>
				<path d="M1153.491,245.173h-9.409l-11.823,28.326h33.056L1153.491,245.173z M1136.077,271.078l9.735-22.999h2.615l-9.665,22.999
					H1136.077z M1155.35,268.656h-7.666l-0.905,2.421h-5.241l9.737-22.999h0.484l9.735,22.999h-5.207L1155.35,268.656z"/>
				<polygon points="1149.365,264.541 1153.635,264.541 1151.533,258.524 				"/>
			</g>
		</g>
	</g>
	<g>
		<g>
			<path fill="#FFFFFF" d="M1187.774,245.717c0,0-1.347-1.157-1.188-1.433c0.264-0.472,2.018-0.291,2.642-0.038l3.234,1.501
				l0.248-1.892l0.529-4.072l0.247-1.892l-1.801-0.626c-0.424-0.147-0.812-0.267-1.184-0.376c-3.117-1.144-6-1.016-9.699-0.851
				c-4.736,0.24-8.18,3.929-8.18,8.774c0,4.041,3.45,6.01,5.844,7.252l-0.577,2.305c-0.394-0.172-0.797-0.391-1.192-0.671
				l-3.623-2.022l-0.197,1.886l-0.533,4.427l-0.193,1.617l1.449,0.747c3.064,1.579,7.158,1.815,7.158,1.815
				c1.869,0.227,3.383,0.289,4.604,0.213c0.044,0,0.089,0,0.132,0c0.254,0,0.5-0.008,0.729-0.024
				c5.046-0.276,8.571-3.868,8.571-8.744C1194.795,249.9,1192.43,247.595,1187.774,245.717z"/>
		</g>
		<g>
			<path d="M1188.186,244.812l0.005-0.028c0.577,0.132,1.208,0.333,1.894,0.611l3.084,1.249l0.428-3.299l0.584-4.464l0.271-2.075
				l-1.975-0.687c-0.465-0.161-0.891-0.293-1.299-0.412c-3.416-1.254-6.576-1.114-10.632-0.934
				c-5.192,0.263-8.966,4.308-8.966,9.619c0,4.43,3.032,6.873,5.656,8.234l-0.037,0.3c-0.43-0.188-0.87-0.428-1.305-0.735
				l-3.525-2.493l-0.513,4.286l-0.582,4.853l-0.214,1.773l1.59,0.818c3.358,1.731,7.848,1.99,7.848,1.99
				c2.048,0.249,3.705,0.317,5.045,0.234c0.049,0,0.099,0.001,0.146,0.001c0.28,0,0.548-0.009,0.798-0.026
				c5.536-0.302,9.396-4.24,9.396-9.585C1195.883,249.971,1193.292,246.87,1188.186,244.812z M1186.326,261.062
				c-0.183,0.014-0.398,0.022-0.638,0.022c-1.474,0-3.978-0.317-6.673-1.705l0.582-4.853c2.22,1.57,4.597,1.872,5.94,1.872
				c0.261,0,0.484-0.011,0.659-0.027c1.357-0.097,2.521-1.067,2.394-2.329c-0.097-1.327-1.101-1.909-2.394-2.361
				c-3.623-1.327-6.858-3.171-6.858-7.052c0-3.881,2.686-6.857,6.535-7.052c0.238-0.013,0.493-0.023,0.771-0.023
				c1.115,0,2.605,0.166,4.986,0.993l-0.584,4.464c-2.109-0.855-3.469-0.981-4.281-0.981c-0.17,0-0.316,0.005-0.439,0.011
				c-1.648,0.097-2.395,1.294-2.297,2.588c0.129,1.293,1.263,1.876,2.588,2.329c3.591,1.326,6.695,3.396,6.695,7.084
				C1193.312,257.891,1190.66,260.834,1186.326,261.062z M1174.15,244.393c0-3.576,2.28-6.376,5.648-6.949
				c-1.886,1.737-3.031,4.267-3.031,7.185c0,2.778,1.194,4.774,2.73,6.213C1176.533,249.551,1174.15,247.724,1174.15,244.393z
				 M1174.409,254.291c0.824,0.583,1.668,0.99,2.474,1.273l-0.42,3.508l-0.13,1.093c-0.8-0.25-1.641-0.576-2.506-1.021
				L1174.409,254.291z"/>
		</g>
	</g>
	<g>
		<rect x="1208.252" y="247.352" fill="#FFFFFF" width="24.693" height="26.389"/>
		<g>
			<path d="M1207.524,246.384v28.325h26.146v-28.325H1207.524z M1231.492,271.804h-4.6v-8.958h-7.262v8.958h-4.117v-22.999h4.117
				v9.442h7.262v-9.442h4.6V271.804z M1222.535,265.267h1.937v6.537h-1.937V265.267z M1209.703,248.805h2.906v22.999h-2.906V248.805
				z M1224.472,255.341h-1.937v-6.537h1.937V255.341z"/>
		</g>
	</g>
</g>
<rect x="1075.783" y="360" fill="#20C4F4" width="216.998" height="144"/>
<g>
	<rect x="1106.086" y="388.059" width="110.395" height="28.326"/>
	<rect x="1106.086" y="440.836" width="96.355" height="28.326"/>
	<g>
		<path d="M1240.209,451.489h3.872v10.895h-2.179v-8.716h-1.693V451.489z"/>
		<path d="M1252.556,457.299v-3.174v-2.636h-1.412h0.007h-2.268l-3.073,7.989h4.567v2.905h2.179v-2.905h1.21v-2.179H1252.556z
			 M1250.377,455.599v1.943h-1.432l1.432-3.8V455.599z"/>
	</g>
	<g>
		<g>
			<g>
				<path fill="#FFFFFF" d="M1130.078,401.737c0.672-1.138,0.975-2.521,1.03-4.04l-0.089-0.016v-0.015
					c0-2.564-0.692-4.73-2.281-6.36c-1.549-1.584-3.561-2.279-5.988-2.279h-15.697v26.147h15.697c4.792,0,8.689-4.082,8.689-8.939
					C1131.439,404.64,1130.951,402.99,1130.078,401.737z"/>
			</g>
		</g>
		<g>
			<path d="M1130.965,401.7c0.726-1.231,1.055-2.727,1.116-4.369l-0.092-0.018v-0.017c0-2.773-0.753-5.063-2.474-6.825
				c-1.672-1.714-3.854-2.413-6.477-2.413h-16.953v28.326h16.953c5.18,0,9.395-4.491,9.395-9.745
				C1132.434,404.916,1131.908,403.055,1130.965,401.7z M1111.17,413.479h-2.664v-23h2.664V413.479z M1123.039,413.479h-9.45v-23
				h9.45c4.107,0,6.662,2.812,6.566,6.888c-0.064,1.747-0.681,3.492-2.137,4.495c1.522,1.035,2.396,2.833,2.396,4.644
				C1129.865,410.387,1126.791,413.479,1123.039,413.479z"/>
			<path d="M1124.783,397.501c0-1.294-0.807-2.421-2.133-2.421h-4.461v4.842h4.461
				C1123.977,399.921,1124.783,398.762,1124.783,397.501z"/>
			<path d="M1122.65,404.038h-4.461v4.842h4.461c1.326,0,2.33-1.143,2.33-2.438C1124.98,405.148,1123.977,404.038,1122.65,404.038z"
				/>
		</g>
	</g>
	<g>
		<g>
			<g>
				<path fill="#FFFFFF" d="M1130.078,454.568c0.672-1.139,0.975-2.522,1.03-4.04l-0.089-0.016v-0.016
					c0-2.564-0.692-4.635-2.281-6.265c-1.549-1.584-3.561-2.185-5.988-2.185h-15.697v26.146h15.697c4.792,0,8.689-4.177,8.689-9.034
					C1131.439,457.565,1130.951,455.821,1130.078,454.568z"/>
			</g>
		</g>
		<g>
			<path d="M1130.965,454.531c0.726-1.23,1.055-2.727,1.116-4.369l-0.092-0.018v-0.017c0-2.773-0.753-5.089-2.474-6.852
				c-1.672-1.714-3.854-2.44-6.477-2.44h-16.953v28.326h16.953c5.18,0,9.395-4.465,9.395-9.718
				C1132.434,457.72,1131.908,455.885,1130.965,454.531z M1111.17,466.257h-2.664v-23h2.664V466.257z M1123.039,466.257h-9.45v-23
				h9.45c4.107,0,6.662,2.838,6.566,6.914c-0.064,1.747-0.681,3.505-2.137,4.509c1.522,1.035,2.396,2.812,2.396,4.623
				C1129.865,463.185,1126.791,466.257,1123.039,466.257z"/>
			<path d="M1124.783,450.278c0-1.293-0.807-2.421-2.133-2.421h-4.461v4.842h4.461
				C1123.977,452.699,1124.783,451.54,1124.783,450.278z"/>
			<path d="M1122.65,456.815h-4.461v4.842h4.461c1.326,0,2.33-1.143,2.33-2.438C1124.98,457.926,1123.977,456.815,1122.65,456.815z"
				/>
		</g>
	</g>
	<g>
		<g>
			<g>
				<path fill="#FFFFFF" d="M1164.449,395.361c2.6-1.975,3.61-5.271,3.188-8.228c-0.525-3.689-3.356-7.306-8.505-7.306h-15.281
					v25.904h26.286L1164.449,395.361z"/>
			</g>
		</g>
		<g>
			<path d="M1165.479,395.604c2.843-2.16,3.946-5.765,3.486-8.997c-0.573-4.034-3.672-7.99-9.297-7.99h-16.783v28.326h28.812
				L1165.479,395.604z M1147.484,404.038h-2.179v-23h2.179V404.038z M1157.41,404.038v-2.731l1.746,2.731H1157.41z M1162.23,404.038
				h-0.17l-4.658-8.958h-2.413v8.958h-4.601v-23h4.207h5.072c8.249,0,9.056,11.548,2.264,13.521l5.369,9.478H1162.23z"/>
			<path d="M1158.863,385.638h-3.874v5.327h3.874C1162.252,390.964,1162.252,385.638,1158.863,385.638z"/>
		</g>
	</g>
	<g>
		<g>
			<path fill="#FFFFFF" d="M1179.441,405.974v15.639c0,6.595,6.602,10.046,12.844,10.046c0.445,0,1.033-0.02,1.478-0.055
				c0.354,0.034,0.783,0.055,1.146,0.055c2.613,0,5.09-0.891,6.933-2.507c1.479-1.296,3.263-3.656,3.263-7.539v-15.639H1179.441z"/>
		</g>
		<path d="M1178.714,404.764v17.069c0,7.103,6.98,10.819,13.7,10.819c0.48,0,1.047-0.021,1.526-0.059
			c0.381,0.036,0.81,0.059,1.199,0.059c2.813,0,5.456-0.958,7.442-2.7c1.593-1.396,3.489-3.938,3.489-8.119v-17.069H1178.714z
			 M1181.378,407.185h2.421v14.648c0,2.006,0.558,4.748,2.572,7.092c-2.947-1.288-4.993-3.652-4.993-7.092V407.185z
			 M1187.693,407.185h3.609V421.8c0,2.425,1.877,3.638,3.755,3.638c1.874,0,3.752-1.213,3.752-3.638v-14.616h4.356v14.648
			c0,5.499-4.051,8.248-8.23,8.248s-8.232-2.749-8.232-8.248v-14.648H1187.693z M1196.145,421.8c0,0.708-0.426,1.067-1.209,1.067
			s-1.211-0.359-1.211-1.067v-14.616h2.42V421.8z"/>
	</g>
	<g>
		<rect x="1215.031" y="374.501" fill="#FFFFFF" width="13.07" height="25.905"/>
		<path d="M1214.061,373.291v28.325h15.252v-28.325H1214.061z M1226.409,399.195h-4.36v-22.999h4.36V399.195z M1216.725,376.196
			h2.42v22.999h-2.42V376.196z"/>
	</g>
	<g>
		<polygon fill="#FFFFFF" points="1261.512,431.637 1253.42,431.637 1248.197,425.646 1248.197,431.637 1235.85,431.637 
			1235.85,405.974 1244.486,405.974 1249.409,410.608 1249.409,405.974 1261.512,405.974 		"/>
		<path d="M1247.956,404.764v2.635l-2.696-2.635h-10.379v28.083h15.011v-3.581l3.131,3.581h9.458v-28.083H1247.956z
			 M1260.303,430.427h-1.092l-12.225-13.146v13.146h-4.359v-23.242h1.481l11.352,12.651v-12.651h4.843V430.427z M1254.142,430.427
			l-4.25-4.934v-1.675l5.686,6.609H1254.142z M1237.788,407.185h2.179v23.242h-2.179V407.185z M1253.281,407.185v5.903l-2.904-2.805
			v-3.099H1253.281z"/>
	</g>
	<g>
		<polygon fill="#FFFFFF" points="1134.005,488.288 1145.264,462.141 1152.327,462.141 1163.35,488.288 		"/>
		<g>
			<g>
				<path d="M1153.491,461.173h-9.409l-11.823,28.326h33.056L1153.491,461.173z M1136.077,487.078l9.735-22.999h2.615l-9.665,22.999
					H1136.077z M1155.35,484.656h-7.666l-0.905,2.421h-5.241l9.737-22.999h0.484l9.735,22.999h-5.207L1155.35,484.656z"/>
				<polygon points="1149.365,480.541 1153.635,480.541 1151.533,474.524 				"/>
			</g>
		</g>
	</g>
	<g>
		<g>
			<path fill="#FFFFFF" d="M1187.774,461.717c0,0-1.347-1.157-1.188-1.433c0.264-0.472,2.018-0.291,2.642-0.038l3.234,1.501
				l0.248-1.892l0.529-4.072l0.247-1.892l-1.801-0.626c-0.424-0.147-0.812-0.267-1.184-0.376c-3.117-1.144-6-1.016-9.699-0.851
				c-4.736,0.24-8.18,3.929-8.18,8.774c0,4.041,3.45,6.01,5.844,7.252l-0.577,2.305c-0.394-0.172-0.797-0.391-1.192-0.671
				l-3.623-2.022l-0.197,1.886l-0.533,4.427l-0.193,1.617l1.449,0.747c3.064,1.579,7.158,1.815,7.158,1.815
				c1.869,0.227,3.383,0.289,4.604,0.213c0.044,0,0.089,0,0.132,0c0.254,0,0.5-0.008,0.729-0.024
				c5.046-0.276,8.571-3.868,8.571-8.744C1194.795,465.9,1192.43,463.595,1187.774,461.717z"/>
		</g>
		<g>
			<path d="M1188.186,460.812l0.005-0.028c0.577,0.132,1.208,0.333,1.894,0.611l3.084,1.249l0.428-3.299l0.584-4.464l0.271-2.075
				l-1.975-0.687c-0.465-0.161-0.891-0.293-1.299-0.412c-3.416-1.254-6.576-1.114-10.632-0.934
				c-5.192,0.263-8.966,4.308-8.966,9.619c0,4.43,3.032,6.873,5.656,8.234l-0.037,0.3c-0.43-0.188-0.87-0.428-1.305-0.735
				l-3.525-2.493l-0.513,4.286l-0.582,4.853l-0.214,1.773l1.59,0.818c3.358,1.731,7.848,1.99,7.848,1.99
				c2.048,0.249,3.705,0.317,5.045,0.234c0.049,0,0.099,0.001,0.146,0.001c0.28,0,0.548-0.009,0.798-0.026
				c5.536-0.302,9.396-4.24,9.396-9.585C1195.883,465.971,1193.292,462.87,1188.186,460.812z M1186.326,477.062
				c-0.183,0.014-0.398,0.022-0.638,0.022c-1.474,0-3.978-0.317-6.673-1.705l0.582-4.853c2.22,1.57,4.597,1.872,5.94,1.872
				c0.261,0,0.484-0.011,0.659-0.027c1.357-0.097,2.521-1.067,2.394-2.329c-0.097-1.327-1.101-1.909-2.394-2.361
				c-3.623-1.327-6.858-3.171-6.858-7.052c0-3.881,2.686-6.857,6.535-7.052c0.238-0.013,0.493-0.023,0.771-0.023
				c1.115,0,2.605,0.166,4.986,0.993l-0.584,4.464c-2.109-0.855-3.469-0.981-4.281-0.981c-0.17,0-0.316,0.005-0.439,0.011
				c-1.648,0.097-2.395,1.294-2.297,2.588c0.129,1.293,1.263,1.876,2.588,2.329c3.591,1.326,6.695,3.396,6.695,7.084
				C1193.312,473.891,1190.66,476.834,1186.326,477.062z M1174.15,460.393c0-3.576,2.28-6.376,5.648-6.949
				c-1.886,1.737-3.031,4.267-3.031,7.185c0,2.778,1.194,4.774,2.73,6.213C1176.533,465.551,1174.15,463.724,1174.15,460.393z
				 M1174.409,470.291c0.824,0.583,1.668,0.99,2.474,1.273l-0.42,3.508l-0.13,1.093c-0.8-0.25-1.641-0.576-2.506-1.021
				L1174.409,470.291z"/>
		</g>
	</g>
	<g>
		<rect x="1208.252" y="463.352" fill="#FFFFFF" width="24.693" height="26.389"/>
		<g>
			<path d="M1207.524,462.384v28.325h26.146v-28.325H1207.524z M1231.492,487.804h-4.6v-8.958h-7.262v8.958h-4.117v-22.999h4.117
				v9.442h7.262v-9.442h4.6V487.804z M1222.535,481.267h1.937v6.537h-1.937V481.267z M1209.703,464.805h2.906v22.999h-2.906V464.805
				z M1224.472,471.341h-1.937v-6.537h1.937V471.341z"/>
		</g>
	</g>
</g>
<rect x="1075.783" y="576" width="216.998" height="144"/>
<g>
	<rect x="1106.086" y="604.059" fill="#FFFFFF" width="110.395" height="28.326"/>
	<rect x="1106.086" y="656.836" fill="#FFFFFF" width="96.355" height="28.326"/>
	<g>
		<path fill="#FFFFFF" d="M1240.209,667.489h3.872v10.895h-2.179v-8.716h-1.693V667.489z"/>
		<path fill="#FFFFFF" d="M1252.556,673.299v-3.174v-2.636h-1.412h0.007h-2.268l-3.073,7.989h4.567v2.905h2.179v-2.905h1.21v-2.18
			H1252.556z M1250.377,671.599v1.942h-1.432l1.432-3.799V671.599z"/>
	</g>
	<g>
		<g>
			<g>
				<path d="M1130.078,617.737c0.672-1.138,0.975-2.521,1.03-4.04l-0.089-0.016v-0.016c0-2.563-0.692-4.729-2.281-6.359
					c-1.549-1.584-3.561-2.279-5.988-2.279h-15.697v26.146h15.697c4.792,0,8.689-4.082,8.689-8.939
					C1131.439,620.641,1130.951,618.99,1130.078,617.737z"/>
			</g>
		</g>
		<g>
			<path fill="#FFFFFF" d="M1130.965,617.7c0.726-1.231,1.055-2.728,1.116-4.368l-0.092-0.018v-0.018
				c0-2.773-0.753-5.062-2.474-6.824c-1.672-1.715-3.854-2.414-6.477-2.414h-16.953v28.326h16.953c5.18,0,9.395-4.491,9.395-9.744
				C1132.434,620.916,1131.908,619.055,1130.965,617.7z M1111.17,629.479h-2.664v-23h2.664V629.479z M1123.039,629.479h-9.45v-23
				h9.45c4.107,0,6.662,2.812,6.566,6.888c-0.064,1.746-0.681,3.492-2.137,4.495c1.522,1.034,2.396,2.833,2.396,4.644
				C1129.865,626.387,1126.791,629.479,1123.039,629.479z"/>
			<path fill="#FFFFFF" d="M1124.783,613.501c0-1.294-0.807-2.421-2.133-2.421h-4.461v4.842h4.461
				C1123.977,615.922,1124.783,614.762,1124.783,613.501z"/>
			<path fill="#FFFFFF" d="M1122.65,620.037h-4.461v4.842h4.461c1.326,0,2.33-1.143,2.33-2.438
				C1124.98,621.148,1123.977,620.037,1122.65,620.037z"/>
		</g>
	</g>
	<g>
		<g>
			<g>
				<path d="M1130.078,670.568c0.672-1.139,0.975-2.521,1.03-4.039l-0.089-0.017v-0.016c0-2.564-0.692-4.636-2.281-6.265
					c-1.549-1.585-3.561-2.186-5.988-2.186h-15.697v26.146h15.697c4.792,0,8.689-4.176,8.689-9.033
					C1131.439,673.564,1130.951,671.82,1130.078,670.568z"/>
			</g>
		</g>
		<g>
			<path fill="#FFFFFF" d="M1130.965,670.531c0.726-1.23,1.055-2.728,1.116-4.369l-0.092-0.018v-0.017
				c0-2.772-0.753-5.089-2.474-6.852c-1.672-1.714-3.854-2.44-6.477-2.44h-16.953v28.326h16.953c5.18,0,9.395-4.465,9.395-9.718
				C1132.434,673.72,1131.908,671.885,1130.965,670.531z M1111.17,682.258h-2.664v-23h2.664V682.258z M1123.039,682.258h-9.45v-23
				h9.45c4.107,0,6.662,2.838,6.566,6.914c-0.064,1.746-0.681,3.504-2.137,4.508c1.522,1.035,2.396,2.812,2.396,4.623
				C1129.865,679.186,1126.791,682.258,1123.039,682.258z"/>
			<path fill="#FFFFFF" d="M1124.783,666.278c0-1.294-0.807-2.421-2.133-2.421h-4.461v4.842h4.461
				C1123.977,668.699,1124.783,667.54,1124.783,666.278z"/>
			<path fill="#FFFFFF" d="M1122.65,672.815h-4.461v4.842h4.461c1.326,0,2.33-1.144,2.33-2.438S1123.977,672.815,1122.65,672.815z"
				/>
		</g>
	</g>
	<g>
		<g>
			<g>
				<path d="M1164.449,611.361c2.6-1.975,3.61-5.271,3.188-8.229c-0.525-3.688-3.356-7.305-8.505-7.305h-15.281v25.904h26.286
					L1164.449,611.361z"/>
			</g>
		</g>
		<g>
			<path fill="#FFFFFF" d="M1165.479,611.604c2.843-2.159,3.946-5.764,3.486-8.996c-0.573-4.035-3.672-7.99-9.297-7.99h-16.783
				v28.326h28.812L1165.479,611.604z M1147.484,620.037h-2.179v-22.999h2.179V620.037z M1157.41,620.037v-2.73l1.746,2.73H1157.41z
				 M1162.23,620.037h-0.17l-4.658-8.957h-2.413v8.957h-4.601v-22.999h4.207h5.072c8.249,0,9.056,11.548,2.264,13.521l5.369,9.478
				H1162.23z"/>
			<path fill="#FFFFFF" d="M1158.863,601.638h-3.874v5.327h3.874C1162.252,606.965,1162.252,601.638,1158.863,601.638z"/>
		</g>
	</g>
	<g>
		<g>
			<path d="M1179.441,621.975v15.639c0,6.596,6.602,10.047,12.844,10.047c0.445,0,1.033-0.021,1.478-0.055
				c0.354,0.033,0.783,0.055,1.146,0.055c2.613,0,5.09-0.892,6.933-2.508c1.479-1.296,3.263-3.656,3.263-7.539v-15.639H1179.441z"/>
		</g>
		<path fill="#FFFFFF" d="M1178.714,620.764v17.068c0,7.104,6.98,10.819,13.7,10.819c0.48,0,1.047-0.021,1.526-0.059
			c0.381,0.036,0.81,0.059,1.199,0.059c2.813,0,5.456-0.958,7.442-2.7c1.593-1.396,3.489-3.938,3.489-8.119v-17.068H1178.714z
			 M1181.378,623.185h2.421v14.647c0,2.007,0.558,4.748,2.572,7.092c-2.947-1.287-4.993-3.651-4.993-7.092V623.185z
			 M1187.693,623.185h3.609v14.616c0,2.425,1.877,3.638,3.755,3.638c1.874,0,3.752-1.213,3.752-3.638v-14.616h4.356v14.647
			c0,5.5-4.051,8.248-8.23,8.248s-8.232-2.748-8.232-8.248v-14.647H1187.693z M1196.145,637.801c0,0.708-0.426,1.066-1.209,1.066
			s-1.211-0.358-1.211-1.066v-14.616h2.42V637.801z"/>
	</g>
	<g>
		<rect x="1215.031" y="590.501" width="13.07" height="25.905"/>
		<path fill="#FFFFFF" d="M1214.061,589.291v28.325h15.252v-28.325H1214.061z M1226.409,615.195h-4.36v-22.999h4.36V615.195z
			 M1216.725,592.196h2.42v22.999h-2.42V592.196z"/>
	</g>
	<g>
		<polygon points="1261.512,647.637 1253.42,647.637 1248.197,641.646 1248.197,647.637 1235.85,647.637 1235.85,621.975 
			1244.486,621.975 1249.409,626.608 1249.409,621.975 1261.512,621.975 		"/>
		<path fill="#FFFFFF" d="M1247.956,620.764v2.635l-2.696-2.635h-10.379v28.084h15.011v-3.581l3.131,3.581h9.458v-28.084H1247.956z
			 M1260.303,646.427h-1.092l-12.225-13.146v13.146h-4.359v-23.242h1.481l11.352,12.651v-12.651h4.843V646.427z M1254.142,646.427
			l-4.25-4.935v-1.675l5.686,6.609H1254.142z M1237.788,623.185h2.179v23.242h-2.179V623.185z M1253.281,623.185v5.903l-2.904-2.805
			v-3.099H1253.281z"/>
	</g>
	<g>
		<polygon points="1134.005,704.288 1145.264,678.141 1152.327,678.141 1163.35,704.288 		"/>
		<g>
			<g>
				<path fill="#FFFFFF" d="M1153.491,677.174h-9.409l-11.823,28.325h33.056L1153.491,677.174z M1136.077,703.078l9.735-23h2.615
					l-9.665,23H1136.077z M1155.35,700.656h-7.666l-0.905,2.422h-5.241l9.737-23h0.484l9.735,23h-5.207L1155.35,700.656z"/>
				<polygon fill="#FFFFFF" points="1149.365,696.541 1153.635,696.541 1151.533,690.523 				"/>
			</g>
		</g>
	</g>
	<g>
		<g>
			<path d="M1187.774,677.717c0,0-1.347-1.156-1.188-1.432c0.264-0.473,2.018-0.291,2.642-0.039l3.234,1.502l0.248-1.893
				l0.529-4.072l0.247-1.892l-1.801-0.626c-0.424-0.148-0.812-0.268-1.184-0.377c-3.117-1.143-6-1.016-9.699-0.851
				c-4.736,0.239-8.18,3.929-8.18,8.774c0,4.041,3.45,6.01,5.844,7.252l-0.577,2.305c-0.394-0.172-0.797-0.391-1.192-0.67
				l-3.623-2.022l-0.197,1.886l-0.533,4.427l-0.193,1.617l1.449,0.747c3.064,1.578,7.158,1.814,7.158,1.814
				c1.869,0.227,3.383,0.289,4.604,0.214c0.044,0,0.089,0.001,0.132,0.001c0.254,0,0.5-0.009,0.729-0.024
				c5.046-0.276,8.571-3.868,8.571-8.743C1194.795,681.9,1192.43,679.596,1187.774,677.717z"/>
		</g>
		<g>
			<path fill="#FFFFFF" d="M1188.186,676.812l0.005-0.028c0.577,0.133,1.208,0.334,1.894,0.611l3.084,1.248l0.428-3.299l0.584-4.463
				l0.271-2.075l-1.975-0.687c-0.465-0.161-0.891-0.293-1.299-0.412c-3.416-1.254-6.576-1.113-10.632-0.934
				c-5.192,0.264-8.966,4.309-8.966,9.619c0,4.43,3.032,6.873,5.656,8.234l-0.037,0.301c-0.43-0.188-0.87-0.429-1.305-0.736
				l-3.525-2.492l-0.513,4.285l-0.582,4.854l-0.214,1.773l1.59,0.818c3.358,1.73,7.848,1.989,7.848,1.989
				c2.048,0.249,3.705,0.317,5.045,0.233c0.049,0,0.099,0.002,0.146,0.002c0.28,0,0.548-0.01,0.798-0.027
				c5.536-0.302,9.396-4.24,9.396-9.585C1195.883,681.971,1193.292,678.869,1188.186,676.812z M1186.326,693.062
				c-0.183,0.014-0.398,0.022-0.638,0.022c-1.474,0-3.978-0.316-6.673-1.705l0.582-4.853c2.22,1.569,4.597,1.872,5.94,1.872
				c0.261,0,0.484-0.012,0.659-0.027c1.357-0.098,2.521-1.068,2.394-2.329c-0.097-1.327-1.101-1.909-2.394-2.36
				c-3.623-1.328-6.858-3.172-6.858-7.053s2.686-6.857,6.535-7.052c0.238-0.013,0.493-0.022,0.771-0.022
				c1.115,0,2.605,0.165,4.986,0.992l-0.584,4.465c-2.109-0.855-3.469-0.981-4.281-0.981c-0.17,0-0.316,0.005-0.439,0.011
				c-1.648,0.097-2.395,1.294-2.297,2.588c0.129,1.293,1.263,1.876,2.588,2.329c3.591,1.325,6.695,3.396,6.695,7.084
				C1193.312,689.891,1190.66,692.834,1186.326,693.062z M1174.15,676.393c0-3.575,2.28-6.376,5.648-6.948
				c-1.886,1.737-3.031,4.267-3.031,7.185c0,2.777,1.194,4.773,2.73,6.213C1176.533,681.551,1174.15,679.724,1174.15,676.393z
				 M1174.409,686.291c0.824,0.582,1.668,0.99,2.474,1.273l-0.42,3.508l-0.13,1.093c-0.8-0.251-1.641-0.575-2.506-1.021
				L1174.409,686.291z"/>
		</g>
	</g>
	<g>
		<rect x="1208.252" y="679.352" width="24.693" height="26.389"/>
		<g>
			<path fill="#FFFFFF" d="M1207.524,678.384v28.325h26.146v-28.325H1207.524z M1231.492,703.804h-4.6v-8.958h-7.262v8.958h-4.117
				v-22.999h4.117v9.441h7.262v-9.441h4.6V703.804z M1222.535,697.268h1.937v6.536h-1.937V697.268z M1209.703,680.805h2.906v22.999
				h-2.906V680.805z M1224.472,687.342h-1.937v-6.537h1.937V687.342z"/>
		</g>
	</g>
</g>
</svg>
