<?xml version="1.0" encoding="utf-8"?>
<!-- Generator: Adobe Illustrator 16.0.1, SVG Export Plug-In . SVG Version: 6.00 Build 0)  -->
<!DOCTYPE svg PUBLIC "-//W3C//DTD SVG 1.1//EN" "http://www.w3.org/Graphics/SVG/1.1/DTD/svg11.dtd">
<svg version="1.1" id="Layer_1" xmlns="http://www.w3.org/2000/svg" xmlns:xlink="http://www.w3.org/1999/xlink" x="0px" y="0px"
	 width="1728px" height="574.226px" viewBox="0 0 1728 574.226" enable-background="new 0 0 1728 574.226" xml:space="preserve">
<rect fill="#FFFFFF" width="1728" height="574.226"/>
<g>
	<g>
		<rect x="1174.961" y="193.971" width="234.252" height="60"/>
		<rect x="701.24" y="193.971" width="227.472" height="60"/>
		<rect x="227.52" y="193.971" width="220.692" height="60"/>
	</g>
	<g>
		<rect x="1172.962" y="305.061" width="204.251" height="60"/>
		<rect x="700.337" y="305.061" width="191.135" height="60"/>
		<rect x="227.71" y="305.061" width="178.02" height="60"/>
	</g>
	<g>
		<g>
			<path d="M1456.555,328.412h8.296v22.871h-4.55v-18.291h-3.746V328.412z"/>
			<path d="M1477.983,337.119v3.865h-2.903l2.903-7.803V337.119z M1482.576,340.957v-6.961v-5.58h-2.835l0.014-0.031h-4.811
				l-6.511,17.158h9.556v5.74h4.587v-5.74h2.501v-4.586H1482.576z"/>
		</g>
		<g>
			<polygon points="933.575,332.672 941.872,332.672 941.872,355.543 937.321,355.543 937.321,337.252 933.575,337.252 			"/>
			<path d="M955.005,341.379v3.865h-2.904l2.904-7.803V341.379z M959.597,345.217v-6.961v-5.58h-2.834l0.014-0.031h-4.811
				l-6.512,17.158h9.557v5.74h4.586v-5.74h2.502v-4.586H959.597z"/>
		</g>
		<g>
			<path d="M410.597,336.933h8.295v22.871h-4.55v-18.291h-3.745V336.933z"/>
			<path d="M432.024,345.64v3.865h-2.903l2.903-7.803V345.64z M436.616,349.478v-6.961v-5.58h-2.833l0.013-0.031h-4.81
				l-6.512,17.158h9.556v5.74h4.586v-5.74h2.503v-4.586H436.616z"/>
		</g>
	</g>
	<g>
		<g>
			<g>
				<polygon fill="#FFFFFF" points="1484.911,285.286 1463.999,262.815 1463.999,285.286 1448.74,285.286 1448.74,230.806 
					1459.567,230.806 1476.103,253.064 1476.103,230.874 1491.427,230.874 1491.427,285.286 				"/>
				<path d="M1458.196,233.531l20.632,27.771V233.6h9.872v48.961h-2.603l-24.825-26.674v26.674h-9.807v-49.029H1458.196
					 M1460.938,228.081h-2.742h-6.73h-5.451v5.45v49.029v5.45h5.451h9.807h5.451v-5.45v-12.817l15.385,16.53l1.615,1.737h2.374
					h2.603h5.449v-5.45V233.6v-5.45h-5.449h-9.872h-5.45v5.45v11.227l-10.806-14.545L1460.938,228.081L1460.938,228.081z"/>
			</g>
			<g>
				<polygon fill="#FFFFFF" points="1495.661,285.286 1474.749,262.815 1474.749,285.286 1459.491,285.286 1459.491,230.806 
					1466.046,230.806 1486.853,254.149 1486.853,230.874 1502.179,230.874 1502.179,285.286 				"/>
				<path d="M1464.824,233.531l24.753,27.771V233.6h9.875v48.961h-2.605l-24.823-26.674v26.674h-9.807v-49.029H1464.824
					 M1467.267,228.081h-2.442h-2.607h-5.45v5.45v49.029v5.45h5.45h9.807h5.45v-5.45v-12.817l15.385,16.53l1.616,1.737h2.372h2.605
					h5.449v-5.45V233.6v-5.45h-5.449h-9.875h-5.449v5.45v13.396l-15.234-17.092L1467.267,228.081L1467.267,228.081z"/>
			</g>
		</g>
		<g>
			<g>
				<polygon fill="#FFFFFF" points="956.668,268.249 935.757,245.778 935.757,268.249 920.497,268.249 920.497,213.769 
					931.324,213.769 947.859,236.027 947.859,213.837 963.184,213.837 963.184,268.249 				"/>
				<path d="M929.954,216.494l20.631,27.771v-27.703h9.873v48.961h-2.604L933.03,238.85v26.674h-9.807v-49.029H929.954
					 M932.694,211.044h-2.74h-6.73h-5.45v5.45v49.029v5.45h5.45h9.807h5.451v-5.45v-12.816l15.383,16.529l1.617,1.737h2.373h2.604
					h5.45v-5.45v-48.961v-5.45h-5.45h-9.873h-5.449v5.45v11.227l-10.807-14.545L932.694,211.044L932.694,211.044z"/>
			</g>
			<g>
				<polygon fill="#FFFFFF" points="967.418,268.249 946.507,245.778 946.507,268.249 931.247,268.249 931.247,213.769 
					937.804,213.769 958.61,237.112 958.61,213.837 973.935,213.837 973.935,268.249 				"/>
				<path d="M936.581,216.494l24.755,27.771v-27.703h9.873v48.961h-2.604L943.78,238.85v26.674h-9.807v-49.029H936.581
					 M939.024,211.044h-2.443h-2.607h-5.45v5.45v49.029v5.45h5.45h9.807h5.451v-5.45v-12.816l15.383,16.529l1.617,1.737h2.373h2.604
					h5.45v-5.45v-48.961v-5.45h-5.45h-9.873h-5.45v5.45v13.397l-15.236-17.093L939.024,211.044L939.024,211.044z"/>
			</g>
		</g>
		<g>
			<g>
				<polygon fill="#FFFFFF" points="428.425,251.211 407.515,228.74 407.515,251.211 392.257,251.211 392.257,196.73 
					403.081,196.73 419.616,218.989 419.616,196.799 434.942,196.799 434.942,251.211 				"/>
				<path d="M401.71,199.456l20.632,27.771v-27.703h9.875v48.961h-2.605l-24.822-26.674v26.674h-9.807v-49.029H401.71
					 M404.452,194.006h-2.742h-6.728h-5.45v5.45v49.029v5.45h5.45h9.807h5.45v-5.45v-12.816l15.382,16.529l1.617,1.737h2.373h2.605
					h5.45v-5.45v-48.961v-5.45h-5.45h-9.875h-5.45v5.45v11.227l-10.806-14.545L404.452,194.006L404.452,194.006z"/>
			</g>
			<g>
				<polygon fill="#FFFFFF" points="439.175,251.211 418.265,228.74 418.265,251.211 403.006,251.211 403.006,196.73 409.56,196.73 
					430.368,220.075 430.368,196.799 445.691,196.799 445.691,251.211 				"/>
				<path d="M408.338,199.456l24.757,27.771v-27.703h9.871v48.961h-2.605l-24.821-26.674v26.674h-9.808v-49.029H408.338
					 M410.78,194.006h-2.442h-2.606h-5.451v5.45v49.029v5.45h5.451h9.808h5.45v-5.45v-12.816l15.382,16.529l1.617,1.737h2.372h2.605
					h5.45v-5.45v-48.961v-5.45h-5.45h-9.871h-5.451v5.45v13.397l-15.237-17.093L410.78,194.006L410.78,194.006z"/>
			</g>
		</g>
	</g>
	<g>
		<g>
			<g>
				<rect x="1401.472" y="164.745" fill="#FFFFFF" width="15.256" height="54.48"/>
				<path d="M1414.003,167.471V216.5h-9.807v-49.029H1414.003 M1419.453,162.021h-5.45h-9.807h-5.449v5.45V216.5v5.45h5.449h9.807
					h5.45v-5.45v-49.029V162.021L1419.453,162.021z"/>
			</g>
			<g>
				<rect x="1412.472" y="164.745" fill="#FFFFFF" width="15.256" height="54.48"/>
				<path d="M1425.003,167.471V216.5h-9.807v-49.029H1425.003 M1430.453,162.021h-5.45h-9.807h-5.449v5.45V216.5v5.45h5.449h9.807
					h5.45v-5.45v-49.029V162.021L1430.453,162.021z"/>
			</g>
		</g>
		<g>
			<g>
				<rect x="887.689" y="180.738" fill="#FFFFFF" width="15.257" height="54.48"/>
				<path d="M900.222,183.464v49.029h-9.807v-49.029H900.222 M905.672,178.014h-5.45h-9.807h-5.451v5.45v49.029v5.45h5.451h9.807
					h5.45v-5.45v-49.029V178.014L905.672,178.014z"/>
			</g>
			<g>
				<rect x="898.689" y="180.738" fill="#FFFFFF" width="15.257" height="54.48"/>
				<path d="M911.222,183.464v49.029h-9.807v-49.029H911.222 M916.672,178.014h-5.45h-9.807h-5.451v5.45v49.029v5.45h5.451h9.807
					h5.45v-5.45v-49.029V178.014L916.672,178.014z"/>
			</g>
		</g>
		<g>
			<g>
				<rect x="373.907" y="196.731" fill="#FFFFFF" width="15.258" height="54.48"/>
				<path d="M386.439,199.457v49.029h-9.807v-49.029H386.439 M391.89,194.007h-5.45h-9.807h-5.45v5.45v49.029v5.45h5.45h9.807h5.45
					v-5.45v-49.029V194.007L391.89,194.007z"/>
			</g>
			<g>
				<rect x="384.907" y="196.731" fill="#FFFFFF" width="15.258" height="54.48"/>
				<path d="M397.439,199.457v49.029h-9.807v-49.029H397.439 M402.89,194.007h-5.45h-9.807h-5.45v5.45v49.029v5.45h5.45h9.807h5.45
					v-5.45v-49.029V194.007L402.89,194.007z"/>
			</g>
		</g>
	</g>
	<g>
		<g>
			<g>
				<path fill="#FFFFFF" d="M1355.604,285.746c-6.618,0-12.828-1.716-17.483-4.832c-5.54-3.707-8.468-9.024-8.468-15.379v-34.681
					h18.299v34.612c0,3.275,1.355,4.988,2.697,4.988c1.34,0,2.697-1.713,2.697-4.988v-34.612h28.209v34.681
					c0,6.354-2.93,11.672-8.469,15.379C1368.431,284.03,1362.223,285.746,1355.604,285.746z"/>
				<path d="M1378.829,233.58v31.955c0,11.657-11.611,17.486-23.225,17.486s-23.227-5.829-23.227-17.486V233.58h12.849v31.887
					c0,5.143,2.712,7.714,5.423,7.714s5.423-2.571,5.423-7.714V233.58H1378.829 M1384.28,228.13h-5.451h-22.757h-5.396h-5.45
					h-12.849h-5.449v5.45v31.955c0,15.058,14.426,22.937,28.676,22.937s28.676-7.879,28.676-22.937V233.58V228.13L1384.28,228.13z"
					/>
			</g>
			<g>
				<path fill="#FFFFFF" d="M1361.104,285.746c-10.164,0-20.451-6.942-20.451-20.211v-34.681h15.255v34.612
					c0,3.683,2.817,4.988,5.23,4.988c2.412,0,5.229-1.306,5.229-4.988v-34.612h15.188v34.681
					C1381.556,278.804,1371.268,285.746,1361.104,285.746z"/>
				<path d="M1378.829,233.58v31.955c0,11.657-8.861,17.486-17.725,17.486s-17.727-5.829-17.727-17.486V233.58h9.805v31.887
					c0,5.143,3.978,7.714,7.955,7.714c3.979,0,7.957-2.571,7.957-7.714V233.58H1378.829 M1384.28,228.13h-5.451h-9.734h-5.451v5.45
					v31.887c0,1.502-0.844,2.264-2.506,2.264s-2.505-0.762-2.505-2.264V233.58v-5.45h-5.45h-9.805h-5.449v5.45v31.955
					c0,4.894,1.283,11.853,7.396,17.213c4.209,3.69,9.812,5.724,15.779,5.724s11.57-2.033,15.779-5.724
					c3.375-2.959,7.396-8.347,7.396-17.213V233.58V228.13L1384.28,228.13z"/>
			</g>
		</g>
		<g>
			<g>
				<path fill="#FFFFFF" d="M853.184,268.581c-6.618,0-12.827-1.716-17.483-4.832c-5.539-3.707-8.468-9.024-8.468-15.379v-34.681
					h18.298v34.612c0,3.275,1.357,4.988,2.697,4.988c1.342,0,2.699-1.713,2.699-4.988v-34.612h28.209v34.681
					c0,6.354-2.93,11.672-8.469,15.379C866.011,266.865,859.802,268.581,853.184,268.581z"/>
				<path d="M876.409,216.415v31.955c0,11.657-11.613,17.485-23.226,17.485s-23.226-5.828-23.226-17.485v-31.955h12.848v31.887
					c0,5.143,2.711,7.714,5.422,7.714c2.713,0,5.424-2.571,5.424-7.714v-31.887H876.409 M881.859,210.965h-5.45h-22.758h-5.396
					h-5.45h-12.848h-5.45v5.45v31.955c0,15.058,14.426,22.937,28.676,22.937s28.676-7.879,28.676-22.937v-31.955V210.965
					L881.859,210.965z"/>
			</g>
			<g>
				<path fill="#FFFFFF" d="M858.684,268.581c-10.163,0-20.451-6.942-20.451-20.211v-34.681h15.256v34.612
					c0,3.683,2.817,4.988,5.229,4.988s5.229-1.306,5.229-4.988v-34.612h15.189v34.681
					C879.136,261.639,868.847,268.581,858.684,268.581z"/>
				<path d="M876.409,216.415v31.955c0,11.657-8.863,17.485-17.726,17.485s-17.726-5.828-17.726-17.485v-31.955h9.805v31.887
					c0,5.143,3.978,7.714,7.955,7.714s7.955-2.571,7.955-7.714v-31.887H876.409 M881.859,210.965h-5.45h-9.736h-5.45v5.45v31.887
					c0,1.502-0.843,2.264-2.505,2.264s-2.506-0.762-2.506-2.264v-31.887v-5.45h-5.449h-9.805h-5.45v5.45v31.955
					c0,4.894,1.283,11.853,7.396,17.212c4.209,3.691,9.814,5.725,15.78,5.725s11.57-2.033,15.78-5.725
					c3.373-2.958,7.396-8.346,7.396-17.212v-31.955V210.965L881.859,210.965z"/>
			</g>
		</g>
		<g>
			<g>
				<path fill="#FFFFFF" d="M350.763,251.416c-6.619,0-12.827-1.716-17.483-4.832c-5.539-3.707-8.468-9.024-8.468-15.379v-34.681
					h18.299v34.612c0,3.275,1.356,4.988,2.697,4.988c1.34,0,2.697-1.713,2.697-4.988v-34.612h28.209v34.681
					c0,6.354-2.929,11.672-8.469,15.379C363.59,249.7,357.38,251.416,350.763,251.416z"/>
				<path d="M373.988,199.25v31.955c0,11.657-11.612,17.486-23.226,17.486s-23.226-5.829-23.226-17.486V199.25h12.849v31.887
					c0,5.143,2.711,7.714,5.422,7.714s5.422-2.571,5.422-7.714V199.25H373.988 M379.438,193.8h-5.45h-22.759h-5.395h-5.449h-12.849
					h-5.45v5.45v31.955c0,15.058,14.426,22.937,28.676,22.937s28.676-7.879,28.676-22.937V199.25V193.8L379.438,193.8z"/>
			</g>
			<g>
				<path fill="#FFFFFF" d="M356.263,251.416c-10.163,0-20.451-6.942-20.451-20.211v-34.681h15.256v34.612
					c0,3.683,2.818,4.988,5.229,4.988c2.413,0,5.23-1.306,5.23-4.988v-34.612h15.188v34.681
					C376.714,244.474,366.427,251.416,356.263,251.416z"/>
				<path d="M373.988,199.25v31.955c0,11.657-8.862,17.486-17.726,17.486s-17.726-5.829-17.726-17.486V199.25h9.805v31.887
					c0,5.143,3.978,7.714,7.954,7.714c3.979,0,7.956-2.571,7.956-7.714V199.25H373.988 M379.438,193.8h-5.45h-9.736h-5.45v5.45
					v31.887c0,1.502-0.844,2.264-2.506,2.264c-1.66,0-2.504-0.762-2.504-2.264V199.25v-5.45h-5.45h-9.805h-5.45v5.45v31.955
					c0,4.894,1.283,11.853,7.396,17.213c4.209,3.69,9.812,5.724,15.779,5.724s11.57-2.033,15.779-5.724
					c3.375-2.959,7.396-8.347,7.396-17.213V199.25V193.8L379.438,193.8z"/>
			</g>
		</g>
	</g>
	<g>
		<g>
			<g>
				<polygon fill="#FFFFFF" points="1414.468,407.47 1414.468,387.856 1405.243,387.856 1405.243,407.47 1389.987,407.47 
					1389.987,352.987 1405.243,352.987 1405.243,372.601 1414.468,372.601 1414.468,352.987 1429.724,352.987 1429.724,407.47 				
					"/>
				<path d="M1426.997,355.713v49.031h-9.805v-19.613h-14.675v19.613h-9.805v-49.031h9.805v19.613h14.675v-19.613H1426.997
					 M1432.448,350.263h-5.451h-9.805h-5.449v5.45v14.163h-3.775v-14.163v-5.45h-5.45h-9.805h-5.45v5.45v49.031v5.45h5.45h9.805
					h5.45v-5.45v-14.163h3.775v14.163v5.45h5.449h9.805h5.451v-5.45v-49.031V350.263L1432.448,350.263z"/>
			</g>
			<g>
				<polygon fill="#FFFFFF" points="1425.8,407.47 1425.8,387.856 1416.576,387.856 1416.576,407.47 1401.321,407.47 
					1401.321,352.987 1416.576,352.987 1416.576,372.601 1425.8,372.601 1425.8,352.987 1441.058,352.987 1441.058,407.47 				"/>
				<path d="M1438.332,355.713v49.031h-9.808v-19.613h-14.674v19.613h-9.805v-49.031h9.805v19.613h14.674v-19.613H1438.332
					 M1443.782,350.263h-5.45h-9.808h-5.449v5.45v14.163h-3.774v-14.163v-5.45h-5.45h-9.805h-5.449v5.45v49.031v5.45h5.449h9.805
					h5.45v-5.45v-14.163h3.774v14.163v5.45h5.449h9.808h5.45v-5.45v-49.031V350.263L1443.782,350.263z"/>
			</g>
		</g>
		<g>
			<g>
				<polygon fill="#FFFFFF" points="895.479,384.792 895.479,365.179 886.254,365.179 886.254,384.792 870.997,384.792 
					870.997,330.31 886.254,330.31 886.254,349.923 895.479,349.923 895.479,330.31 910.734,330.31 910.734,384.792 				"/>
				<path d="M908.009,333.035v49.031h-9.805v-19.613h-14.676v19.613h-9.805v-49.031h9.805v19.613h14.676v-19.613H908.009
					 M913.458,327.585h-5.449h-9.805h-5.45v5.45v14.163h-3.775v-14.163v-5.45h-5.45h-9.805h-5.45v5.45v49.031v5.45h5.45h9.805h5.45
					v-5.45v-14.163h3.775v14.163v5.45h5.45h9.805h5.449v-5.45v-49.031V327.585L913.458,327.585z"/>
			</g>
			<g>
				<polygon fill="#FFFFFF" points="906.811,384.792 906.811,365.179 897.588,365.179 897.588,384.792 882.331,384.792 
					882.331,330.31 897.588,330.31 897.588,349.923 906.811,349.923 906.811,330.31 922.068,330.31 922.068,384.792 				"/>
				<path d="M919.343,333.035v49.031h-9.807v-19.613h-14.674v19.613h-9.805v-49.031h9.805v19.613h14.674v-19.613H919.343
					 M924.793,327.585h-5.45h-9.807h-5.45v5.45v14.163h-3.774v-14.163v-5.45h-5.449h-9.805h-5.45v5.45v49.031v5.45h5.45h9.805h5.449
					v-5.45v-14.163h3.774v14.163v5.45h5.45h9.807h5.45v-5.45v-49.031V327.585L924.793,327.585z"/>
			</g>
		</g>
		<g>
			<g>
				<polygon fill="#FFFFFF" points="376.489,362.114 376.489,342.501 367.265,342.501 367.265,362.114 352.009,362.114 
					352.009,307.632 367.265,307.632 367.265,327.245 376.489,327.245 376.489,307.632 391.744,307.632 391.744,362.114 				"/>
				<path d="M389.019,310.357v49.031h-9.805v-19.613h-14.675v19.613h-9.805v-49.031h9.805v19.613h14.675v-19.613H389.019
					 M394.47,304.907h-5.451h-9.805h-5.449v5.45v14.163h-3.775v-14.163v-5.45h-5.45h-9.805h-5.45v5.45v49.031v5.45h5.45h9.805h5.45
					v-5.45v-14.163h3.775v14.163v5.45h5.449h9.805h5.451v-5.45v-49.031V304.907L394.47,304.907z"/>
			</g>
			<g>
				<polygon fill="#FFFFFF" points="387.821,362.114 387.821,342.501 378.599,342.501 378.599,362.114 363.342,362.114 
					363.342,307.632 378.599,307.632 378.599,327.245 387.821,327.245 387.821,307.632 403.079,307.632 403.079,362.114 				"/>
				<path d="M400.354,310.357v49.031h-9.808v-19.613h-14.673v19.613h-9.806v-49.031h9.806v19.613h14.673v-19.613H400.354
					 M405.804,304.907h-5.45h-9.808h-5.449v5.45v14.163h-3.773v-14.163v-5.45h-5.45h-9.806h-5.45v5.45v49.031v5.45h5.45h9.806h5.45
					v-5.45v-14.163h3.773v14.163v5.45h5.449h9.808h5.45v-5.45v-49.031V304.907L405.804,304.907z"/>
			</g>
		</g>
	</g>
	<g>
		<g>
			<path fill="#FFFFFF" d="M1332.003,333.285c2.361,0,5.521,0.35,10.57,2.105l-1.234,9.463c-4.475-1.812-7.359-2.08-9.076-2.08
				c-0.363,0-0.672,0.012-0.935,0.023c-3.496,0.205-5.075,2.742-4.87,5.486c0.275,2.742,2.676,3.977,5.486,4.938
				c7.611,2.811,14.195,7.199,14.195,15.018c0,8.16-5.622,14.4-14.812,14.881c-0.388,0.029-0.843,0.047-1.356,0.047
				c-3.122,0-8.428-0.67-14.143-3.613l1.234-10.287c4.703,3.328,9.74,3.969,12.588,3.969c0.559,0,1.031-0.025,1.403-0.059
				c2.879-0.207,5.348-2.264,5.074-4.938c-0.206-2.812-2.332-4.047-5.074-5.006c-7.682-2.812-14.54-6.721-14.54-14.949
				s5.694-14.537,13.854-14.949C1330.874,333.307,1331.416,333.285,1332.003,333.285"/>
			<g>
				<path d="M1332.003,333.285c2.361,0,5.521,0.35,10.57,2.105l-1.234,9.463c-4.475-1.812-7.359-2.08-9.076-2.08
					c-0.363,0-0.672,0.012-0.935,0.023c-3.496,0.205-5.075,2.742-4.87,5.486c0.275,2.742,2.676,3.977,5.486,4.938
					c7.611,2.811,14.195,7.199,14.195,15.018c0,8.16-5.622,14.4-14.812,14.881c-0.388,0.029-0.843,0.047-1.356,0.047
					c-3.122,0-8.428-0.67-14.143-3.613l1.234-10.287c4.703,3.328,9.74,3.969,12.588,3.969c0.559,0,1.031-0.025,1.403-0.059
					c2.879-0.207,5.348-2.264,5.074-4.938c-0.206-2.812-2.332-4.047-5.074-5.006c-7.682-2.812-14.54-6.721-14.54-14.949
					s5.694-14.537,13.854-14.949C1330.874,333.307,1331.416,333.285,1332.003,333.285 M1330.073,327.891
					c-11.006,0.557-19.007,9.133-19.007,20.393c0,11.85,10.24,16.998,16.054,19.291c-1.932-0.305-4.48-1.039-6.907-2.758
					l-7.469-5.285l-1.093,9.086l-1.232,10.287l-0.453,3.76l3.368,1.734c7.123,3.67,16.638,4.219,16.638,4.219
					c27.86,3.391,21.618-9.045,21.618-20.379c0-8.723-5.602-15.35-16.655-19.711c1.315,0.275,2.771,0.734,4.362,1.377l6.535,2.648
					l0.912-6.994l11.916-8.848l0.574-4.396l-4.188-1.457C1346.832,327.133,1339.625,327.467,1330.073,327.891z"/>
			</g>
			<g>
				<path fill="#FFFFFF" d="M1340.976,386.392c-2.91,0-8.781-0.509-15.395-3.916l-1.683-0.867l2.005-16.71l3.735,2.643
					c4.421,3.13,9.179,3.468,11.018,3.468c0.459,0,0.847-0.02,1.151-0.047c0.965-0.07,1.824-0.457,2.293-1.016
					c0.329-0.393,0.339-0.72,0.317-0.931c-0.068-0.917-0.355-1.694-3.263-2.711c-7.641-2.797-16.366-7.302-16.366-17.521
					c0-9.758,6.915-17.189,16.441-17.671c0.544-0.029,1.132-0.053,1.774-0.053c2.135,0,5.646,0.234,11.465,2.257l2.094,0.729
					l-1.978,15.158l-3.269-1.323c-3.126-1.267-5.762-1.882-8.055-1.882c-0.314,0-0.584,0.011-0.812,0.021
					c-0.789,0.046-1.396,0.29-1.775,0.722c-0.378,0.432-0.555,1.085-0.498,1.838c0.063,0.624,0.409,1.455,3.65,2.562
					c10.812,3.992,16.039,9.741,16.039,17.597c0,9.984-6.992,17.059-17.396,17.603
					C1342.087,386.37,1341.565,386.392,1340.976,386.392z"/>
				<path d="M1343.005,333.785c2.361,0,5.521,0.351,10.568,2.105l-1.234,9.463c-4.473-1.812-7.357-2.08-9.076-2.08
					c-0.362,0-0.672,0.012-0.935,0.023c-3.496,0.205-5.075,2.742-4.87,5.486c0.275,2.742,2.676,3.977,5.486,4.938
					c7.611,2.811,14.195,7.199,14.195,15.018c0,8.16-5.622,14.4-14.812,14.881c-0.386,0.029-0.84,0.047-1.353,0.047
					c-3.121,0-8.431-0.669-14.146-3.613l1.234-10.287c4.705,3.328,9.746,3.968,12.594,3.968c0.556,0,1.027-0.024,1.397-0.058
					c2.879-0.207,5.348-2.264,5.074-4.938c-0.206-2.812-2.332-4.047-5.074-5.006c-7.682-2.812-14.54-6.721-14.54-14.949
					s5.694-14.537,13.854-14.949C1341.874,333.807,1342.415,333.785,1343.005,333.785 M1343.005,328.334
					c-0.771,0-1.438,0.031-1.93,0.058c-11.008,0.556-19.012,9.132-19.012,20.392c0,11.852,10.244,16.998,16.059,19.292
					c-1.932-0.306-4.482-1.041-6.909-2.759l-7.47-5.286l-1.09,9.086l-1.234,10.287l-0.451,3.76l3.365,1.734
					c7.124,3.671,13.485,4.219,16.643,4.219c0.594,0,1.164-0.02,1.697-0.058c11.73-0.641,19.918-8.988,19.918-20.32
					c0-8.722-5.603-15.349-16.657-19.711c1.315,0.275,2.772,0.735,4.36,1.378l6.538,2.647l0.913-6.994l1.234-9.463l0.572-4.396
					l-4.188-1.457C1349.155,328.584,1345.337,328.334,1343.005,328.334L1343.005,328.334z"/>
			</g>
		</g>
		<g>
			<path fill="#FFFFFF" d="M830.749,321.609c2.362,0,5.522,0.35,10.571,2.105l-1.234,9.463c-4.475-1.812-7.359-2.08-9.078-2.08
				c-0.362,0-0.67,0.012-0.934,0.023c-3.497,0.205-5.075,2.742-4.869,5.486c0.274,2.742,2.675,3.977,5.486,4.938
				c7.612,2.811,14.196,7.199,14.196,15.018c0,8.16-5.625,14.4-14.813,14.881c-0.387,0.029-0.842,0.047-1.354,0.047
				c-3.123,0-8.43-0.67-14.144-3.613l1.234-10.287c4.702,3.328,9.74,3.969,12.587,3.969c0.56,0,1.031-0.025,1.403-0.059
				c2.878-0.207,5.347-2.264,5.074-4.938c-0.205-2.812-2.333-4.047-5.074-5.006c-7.682-2.812-14.54-6.721-14.54-14.949
				s5.694-14.537,13.854-14.949C829.621,321.631,830.161,321.609,830.749,321.609"/>
			<g>
				<path d="M830.749,321.609c2.362,0,5.522,0.35,10.571,2.105l-1.234,9.463c-4.475-1.812-7.359-2.08-9.078-2.08
					c-0.362,0-0.67,0.012-0.934,0.023c-3.497,0.205-5.075,2.742-4.869,5.486c0.274,2.742,2.675,3.977,5.486,4.938
					c7.612,2.811,14.196,7.199,14.196,15.018c0,8.16-5.625,14.4-14.813,14.881c-0.387,0.029-0.842,0.047-1.354,0.047
					c-3.123,0-8.43-0.67-14.144-3.613l1.234-10.287c4.702,3.328,9.74,3.969,12.587,3.969c0.56,0,1.031-0.025,1.403-0.059
					c2.878-0.207,5.347-2.264,5.074-4.938c-0.205-2.812-2.333-4.047-5.074-5.006c-7.682-2.812-14.54-6.721-14.54-14.949
					s5.694-14.537,13.854-14.949C829.621,321.631,830.161,321.609,830.749,321.609 M828.82,316.215
					c-11.007,0.557-19.009,9.133-19.009,20.393c0,11.85,10.242,16.998,16.055,19.291c-1.931-0.305-4.479-1.039-6.908-2.758
					l-7.468-5.285l-1.093,9.086l-1.232,10.287l-0.453,3.76l3.367,1.734c7.124,3.67,16.641,4.219,16.641,4.219
					c27.857,3.391,21.616-9.045,21.616-20.379c0-8.723-5.602-15.35-16.655-19.711c1.315,0.275,2.772,0.734,4.361,1.377l6.535,2.648
					l0.913-6.994l11.915-8.848l0.574-4.396l-4.187-1.457C845.577,315.457,838.371,315.791,828.82,316.215z"/>
			</g>
			<g>
				<path fill="#FFFFFF" d="M839.821,374.706c-2.955,0-8.896-0.508-15.493-3.906l-1.685-0.867l2.006-16.71l3.736,2.643
					c4.253,3.011,8.762,3.46,11.069,3.46c0.446,0,0.825-0.018,1.126-0.041c0.918-0.075,1.779-0.465,2.246-1.019
					c0.339-0.401,0.352-0.743,0.333-0.966c-0.077-0.88-0.367-1.637-3.277-2.677c-7.611-2.725-16.348-7.178-16.348-17.516
					c0-9.758,6.915-17.189,16.44-17.671c0.545-0.029,1.133-0.053,1.775-0.053c2.135,0,5.645,0.234,11.463,2.257l2.096,0.729
					l-1.979,15.158l-3.268-1.323c-3.089-1.251-5.789-1.885-8.026-1.885c-0.319,0-0.593,0.012-0.823,0.023
					c-0.822,0.043-1.434,0.285-1.812,0.722c-0.375,0.432-0.547,1.072-0.482,1.805c0.072,0.827,0.714,1.553,3.685,2.608
					c10.622,3.775,16.008,9.692,16.008,17.585c0,9.867-6.979,16.94-17.365,17.601C840.835,374.689,840.357,374.706,839.821,374.706z
					"/>
				<path d="M841.751,322.109c2.361,0,5.521,0.351,10.569,2.105l-1.234,9.463c-4.448-1.802-7.327-2.084-9.048-2.084
					c-0.375,0-0.693,0.014-0.964,0.027c-3.497,0.182-5.11,2.745-4.869,5.486c0.241,2.745,2.687,3.942,5.486,4.938
					c7.646,2.718,14.196,7.199,14.196,15.018c0,8.16-5.63,14.297-14.813,14.881c-0.362,0.023-0.781,0.037-1.253,0.037
					c-3.109,0-8.469-0.627-14.245-3.604l1.234-10.287c4.733,3.35,9.807,3.961,12.646,3.961c0.533,0,0.986-0.021,1.345-0.051
					c2.878-0.233,5.308-2.26,5.074-4.938c-0.246-2.81-2.339-4.027-5.074-5.006c-7.702-2.757-14.54-6.721-14.54-14.949
					s5.694-14.537,13.854-14.949C840.621,322.131,841.161,322.109,841.751,322.109 M841.751,316.658
					c-0.771,0-1.438,0.031-1.93,0.058c-11.008,0.556-19.011,9.132-19.011,20.392c0,11.88,10.089,16.98,15.94,19.262
					c-1.932-0.318-4.43-1.057-6.793-2.729l-7.469-5.286l-1.09,9.086l-1.234,10.287l-0.451,3.76l3.365,1.734
					c7.108,3.663,13.541,4.21,16.742,4.21c0.555,0,1.092-0.017,1.598-0.049c11.729-0.746,19.918-9.102,19.918-20.32
					c0-6.127-2.92-14.435-16.604-19.703c1.296,0.276,2.737,0.734,4.308,1.37l6.537,2.647l0.914-6.994l1.234-9.463l0.572-4.396
					l-4.188-1.457C847.901,316.908,844.083,316.658,841.751,316.658L841.751,316.658z"/>
			</g>
		</g>
		<g>
			<path fill="#FFFFFF" d="M329.496,309.933c2.361,0,5.521,0.35,10.57,2.105l-1.234,9.463c-4.475-1.812-7.359-2.08-9.078-2.08
				c-0.362,0-0.67,0.012-0.934,0.023c-3.496,0.205-5.075,2.742-4.869,5.486c0.275,2.742,2.675,3.977,5.486,4.938
				c7.611,2.811,14.195,7.199,14.195,15.018c0,8.16-5.622,14.4-14.812,14.881c-0.387,0.029-0.842,0.047-1.356,0.047
				c-3.122,0-8.429-0.67-14.142-3.613l1.234-10.287c4.704,3.328,9.739,3.969,12.587,3.969c0.56,0,1.032-0.025,1.402-0.059
				c2.88-0.207,5.349-2.264,5.075-4.938c-0.205-2.812-2.332-4.047-5.075-5.006c-7.681-2.812-14.538-6.721-14.538-14.949
				s5.693-14.537,13.853-14.949C328.367,309.954,328.908,309.933,329.496,309.933"/>
			<g>
				<path d="M329.496,309.933c2.361,0,5.521,0.35,10.57,2.105l-1.234,9.463c-4.475-1.812-7.359-2.08-9.078-2.08
					c-0.362,0-0.67,0.012-0.934,0.023c-3.496,0.205-5.075,2.742-4.869,5.486c0.275,2.742,2.675,3.977,5.486,4.938
					c7.611,2.811,14.195,7.199,14.195,15.018c0,8.16-5.622,14.4-14.812,14.881c-0.387,0.029-0.842,0.047-1.356,0.047
					c-3.122,0-8.429-0.67-14.142-3.613l1.234-10.287c4.704,3.328,9.739,3.969,12.587,3.969c0.56,0,1.032-0.025,1.402-0.059
					c2.88-0.207,5.349-2.264,5.075-4.938c-0.205-2.812-2.332-4.047-5.075-5.006c-7.681-2.812-14.538-6.721-14.538-14.949
					s5.693-14.537,13.853-14.949C328.367,309.954,328.908,309.933,329.496,309.933 M327.566,304.538
					c-11.007,0.557-19.008,9.133-19.008,20.393c0,11.85,10.24,16.998,16.054,19.291c-1.932-0.305-4.479-1.039-6.907-2.758
					l-7.469-5.285l-1.093,9.086l-1.234,10.287l-0.451,3.76l3.367,1.734c7.124,3.67,16.639,4.219,16.639,4.219
					c27.86,3.391,21.618-9.045,21.618-20.379c0-8.723-5.603-15.35-16.653-19.711c1.312,0.275,2.771,0.734,4.36,1.377l6.535,2.648
					l0.912-6.994l11.915-8.848l0.575-4.396l-4.188-1.457C344.324,303.78,337.117,304.114,327.566,304.538z"/>
			</g>
			<g>
				<path fill="#FFFFFF" d="M338.47,363.039c-2.912,0-8.783-0.509-15.396-3.916l-1.684-0.867l2.005-16.71l3.734,2.643
					c4.424,3.13,9.18,3.468,11.018,3.468c0.46,0,0.849-0.02,1.153-0.047c0.964-0.07,1.823-0.457,2.292-1.016
					c0.329-0.393,0.338-0.72,0.316-0.931c-0.067-0.917-0.354-1.694-3.262-2.711c-7.64-2.797-16.365-7.302-16.365-17.521
					c0-9.758,6.914-17.189,16.441-17.671c0.543-0.029,1.132-0.053,1.773-0.053c2.135,0,5.646,0.234,11.464,2.257l2.095,0.729
					l-1.979,15.158l-3.268-1.323c-3.126-1.267-5.761-1.882-8.055-1.882c-0.314,0-0.583,0.011-0.812,0.021
					c-0.788,0.046-1.398,0.289-1.775,0.721c-0.378,0.433-0.556,1.086-0.499,1.84c0.063,0.623,0.408,1.454,3.65,2.562
					c10.812,3.992,16.039,9.741,16.039,17.597c0,9.984-6.991,17.059-17.396,17.603C339.579,363.018,339.058,363.039,338.47,363.039z
					"/>
				<path d="M340.497,310.433c2.361,0,5.521,0.351,10.569,2.105l-1.234,9.463c-4.474-1.812-7.358-2.08-9.077-2.08
					c-0.363,0-0.672,0.012-0.935,0.023c-3.496,0.205-5.075,2.742-4.869,5.486c0.275,2.742,2.675,3.977,5.486,4.938
					c7.611,2.811,14.195,7.199,14.195,15.018c0,8.16-5.622,14.4-14.812,14.881c-0.386,0.029-0.841,0.047-1.353,0.047
					c-3.121,0-8.431-0.669-14.146-3.613l1.234-10.287c4.704,3.328,9.745,3.968,12.593,3.968c0.556,0,1.027-0.024,1.396-0.058
					c2.88-0.207,5.349-2.264,5.075-4.938c-0.205-2.812-2.332-4.047-5.075-5.006c-7.681-2.812-14.538-6.721-14.538-14.949
					s5.693-14.537,13.853-14.949C339.368,310.454,339.908,310.433,340.497,310.433 M340.497,304.981
					c-0.771,0-1.436,0.031-1.93,0.058c-11.008,0.556-19.01,9.132-19.01,20.392c0,11.852,10.242,16.998,16.057,19.292
					c-1.934-0.307-4.482-1.041-6.91-2.759l-7.469-5.285l-1.09,9.085l-1.234,10.287l-0.451,3.76l3.365,1.734
					c7.124,3.671,13.485,4.219,16.643,4.219c0.594,0,1.164-0.02,1.697-0.058c11.73-0.64,19.918-8.988,19.918-20.32
					c0-8.722-5.604-15.349-16.657-19.711c1.315,0.275,2.773,0.735,4.36,1.378l6.538,2.647l0.913-6.994l1.234-9.463l0.572-4.397
					l-4.188-1.456C346.647,305.231,342.829,304.981,340.497,304.981L340.497,304.981z"/>
			</g>
		</g>
	</g>
	<g>
		<g>
			<g>
				<path fill="#FFFFFF" d="M1278.495,230.419l-9.875-18.721h-0.362v18.721h-15.257v-54.48h22.062
					c10.293,0,15.96,7.452,17.012,14.838c0.948,6.667-1.672,14.444-8.328,18.033l12.162,21.609H1278.495z M1274.171,196.716
					c0.721,0,1.236-0.223,1.623-0.702c0.408-0.504,0.642-1.254,0.642-2.058c0-0.461-0.108-2.76-2.265-2.76h-5.913v5.52H1274.171z"/>
				<path d="M1275.063,178.664c17.486,0,19.199,24.617,4.8,28.801l11.385,20.229h-11.109l-9.876-18.721h-4.73v18.721h-9.806v-49.029
					H1275.063 M1265.532,199.441h8.639c6.653,0,6.653-10.971,0-10.971h-8.639V199.441 M1275.063,173.214h-19.337h-5.45v5.45v49.029
					v5.45h5.45h9.806h5.45v-5.45v-5.676l4.335,8.219l1.534,2.907h3.287h11.109h9.321l-4.572-8.123l-8.616-15.311
					c6.028-4.579,8.367-12.464,7.392-19.317C1293.556,181.842,1286.989,173.214,1275.063,173.214L1275.063,173.214z
					 M1270.982,193.921h2.728c0.002,0.023,0.002,0.046,0,0.069h-2.728V193.921L1270.982,193.921z"/>
			</g>
			<g>
				<path fill="#FFFFFF" d="M1284.922,196.717c0.721,0,1.235-0.223,1.624-0.703c0.406-0.504,0.639-1.254,0.639-2.059
					c0-0.461-0.107-2.76-2.263-2.76h-5.915v5.521H1284.922z M1289.244,230.42l-9.876-18.721h-0.361v18.721h-15.254v-54.48h22.062
					c10.293,0,15.958,7.451,17.011,14.838c0.947,6.666-1.674,14.443-8.328,18.031l12.16,21.611H1289.244z"/>
				<path d="M1276.283,199.441h8.639c6.651,0,6.651-10.971,0-10.971h-8.639V199.441 M1285.814,178.664
					c17.486,0,19.199,24.617,4.798,28.801l11.385,20.229h-11.111l-9.872-18.721h-4.73v18.721h-9.808v-49.029H1285.814
					 M1285.814,173.213h-19.339h-5.448v5.451v49.029v5.451h5.448h9.808h5.448v-5.451v-5.674l4.336,8.217l1.531,2.908h3.287h11.111
					h9.32l-4.569-8.123l-8.618-15.312c6.03-4.578,8.367-12.463,7.394-19.316C1304.307,181.842,1297.74,173.213,1285.814,173.213
					L1285.814,173.213z"/>
			</g>
		</g>
		<g>
			<g>
				<path fill="#FFFFFF" d="M790.595,240.815l-9.875-18.721h-0.362v18.721H765.1v-54.48h22.063c10.292,0,15.96,7.452,17.011,14.838
					c0.948,6.666-1.672,14.444-8.327,18.033l12.161,21.609H790.595z M786.271,207.112c0.72,0,1.235-0.223,1.623-0.702
					c0.407-0.504,0.641-1.254,0.641-2.058c0-0.461-0.107-2.76-2.264-2.76h-5.913v5.52H786.271z"/>
				<path d="M787.163,189.061c17.486,0,19.199,24.617,4.799,28.801l11.385,20.229h-11.109l-9.875-18.721h-4.73v18.721h-9.807
					v-49.029H787.163 M777.632,209.838h8.639c6.652,0,6.652-10.971,0-10.971h-8.639V209.838 M787.163,183.61h-19.338h-5.45v5.45
					v49.029v5.45h5.45h9.807h5.449v-5.45v-5.674l4.336,8.217l1.533,2.907h3.287h11.109h9.322l-4.572-8.123l-8.617-15.311
					c6.029-4.579,8.367-12.464,7.393-19.317C805.655,192.238,799.089,183.61,787.163,183.61L787.163,183.61z M783.081,204.317h2.729
					c0,0.023,0,0.046,0,0.069h-2.729V204.317L783.081,204.317z"/>
			</g>
			<g>
				<path fill="#FFFFFF" d="M797.021,207.113c0.721,0,1.236-0.223,1.625-0.703c0.406-0.504,0.639-1.254,0.639-2.059
					c0-0.461-0.107-2.76-2.264-2.76h-5.914v5.521H797.021z M801.343,240.816l-9.875-18.721h-0.361v18.721h-15.256v-54.48h22.062
					c10.293,0,15.959,7.451,17.012,14.838c0.947,6.666-1.674,14.443-8.328,18.031l12.16,21.611H801.343z"/>
				<path d="M788.382,209.838h8.639c6.652,0,6.652-10.971,0-10.971h-8.639V209.838 M797.913,189.061
					c17.486,0,19.199,24.617,4.799,28.801l11.385,20.229h-11.111l-9.873-18.721h-4.73v18.721h-9.807v-49.029H797.913
					 M797.913,183.609h-19.338h-5.449v5.451v49.029v5.451h5.449h9.807h5.449v-5.451v-5.674l4.336,8.217l1.531,2.908h3.287h11.111
					h9.32l-4.57-8.123l-8.617-15.312c6.029-4.578,8.367-12.463,7.393-19.316C816.405,192.238,809.839,183.609,797.913,183.609
					L797.913,183.609z"/>
			</g>
		</g>
		<g>
			<g>
				<path fill="#FFFFFF" d="M302.692,251.211l-9.875-18.721h-0.361v18.721h-15.258v-54.48h22.064
					c10.291,0,15.959,7.452,17.01,14.838c0.948,6.666-1.672,14.444-8.328,18.033l12.162,21.609H302.692z M298.369,217.508
					c0.72,0,1.235-0.223,1.623-0.702c0.407-0.504,0.641-1.254,0.641-2.058c0-0.461-0.108-2.76-2.264-2.76h-5.913v5.52H298.369z"/>
				<path d="M299.263,199.456c17.484,0,19.198,24.617,4.797,28.801l11.385,20.229h-11.108l-9.875-18.721h-4.731v18.721h-9.806
					v-49.029H299.263 M289.729,220.233h8.64c6.652,0,6.652-10.971,0-10.971h-8.64V220.233 M299.263,194.006h-19.339h-5.45v5.45
					v49.029v5.45h5.45h9.806h5.451v-5.45v-5.674l4.334,8.217l1.534,2.907h3.287h11.108h9.322l-4.571-8.123l-8.618-15.311
					c6.03-4.579,8.369-12.464,7.393-19.317C317.753,202.634,311.188,194.006,299.263,194.006L299.263,194.006z M295.181,214.713
					h2.728c0.001,0.023,0.001,0.047,0,0.069h-2.728V214.713L295.181,214.713z"/>
			</g>
			<g>
				<path fill="#FFFFFF" d="M309.119,217.509c0.721,0,1.236-0.223,1.625-0.703c0.406-0.504,0.639-1.254,0.639-2.059
					c0-0.461-0.107-2.76-2.264-2.76h-5.914v5.521H309.119z M313.441,251.212l-9.875-18.721h-0.361v18.721h-15.256v-54.48h22.063
					c10.292,0,15.958,7.451,17.011,14.838c0.947,6.666-1.674,14.443-8.328,18.031l12.16,21.611H313.441z"/>
				<path d="M300.479,220.233h8.64c6.652,0,6.652-10.971,0-10.971h-8.64V220.233 M310.013,199.456
					c17.484,0,19.197,24.617,4.798,28.801l11.385,20.229h-11.111l-9.874-18.721h-4.73v18.721h-9.806v-49.029H310.013
					 M310.013,194.005h-19.339h-5.449v5.451v49.029v5.451h5.449h9.806h5.449v-5.451v-5.674l4.337,8.217l1.53,2.908h3.288h11.111
					h9.32l-4.571-8.123l-8.616-15.312c6.029-4.578,8.367-12.463,7.393-19.316C328.504,202.634,321.938,194.005,310.013,194.005
					L310.013,194.005z"/>
			</g>
		</g>
	</g>
	<g>
		<g>
			<g>
				<path fill="#FFFFFF" d="M1257.607,386.318l-0.656-1.881l-0.679,1.881H1257.607z M1257.378,406.236l3.013-5.281h-9.653
					l-1.919,5.281h-17.065l22.854-54.609h4.696l22.854,54.609H1257.378z"/>
				<path d="M1252.395,389.043h9.05l-4.455-12.756L1252.395,389.043 M1262.217,354.352l15.892,49.16h-16.039l3.011-5.281h-16.251
					l-1.92,5.281h-11.108l20.64-49.16h1.029 M1261.139,348.902h-3.669h-1.029h-3.669l-1.381,3.398l-20.641,49.16l-3.048,7.502h8.099
					h11.108h3.818l1.304-3.588l0.615-1.693h3.053l-3.013,5.281h9.383h16.039h8.098l-3.046-7.502l-18.811-52.559H1261.139
					L1261.139,348.902z"/>
			</g>
			<g>
				<path fill="#FFFFFF" d="M1269.185,386.318l-0.657-1.881l-0.678,1.881H1269.185z M1276.761,406.236l-1.988-5.281h-12.457
					l-1.92,5.281h-17.067l22.854-54.609h4.699l22.854,54.609H1276.761z"/>
				<path d="M1263.972,389.043h9.052l-4.457-12.756L1263.972,389.043 M1269.046,354.352l20.641,49.16h-11.04l-1.989-5.281h-16.252
					l-1.92,5.281h-11.107l20.639-49.16H1269.046 M1272.717,348.902h-3.671h-1.029h-3.667l-1.38,3.398l-20.642,49.16l-3.049,7.502
					h8.099h11.107h3.818l1.305-3.588l0.615-1.693h8.662l0.66,1.75l1.328,3.531h3.772h11.04h8.097l-3.048-7.502l-20.639-49.16
					L1272.717,348.902L1272.717,348.902z"/>
			</g>
		</g>
		<g>
			<g>
				<path fill="#FFFFFF" d="M773.502,364.383l-0.655-1.881l-0.679,1.881H773.502z M773.273,384.301l3.012-5.281h-9.652l-1.921,5.281
					h-17.064l22.854-54.609h4.697l22.854,54.609H773.273z"/>
				<path d="M768.289,367.107h9.051l-4.454-12.756L768.289,367.107 M778.111,332.416l15.893,49.16h-16.04l3.011-5.281h-16.25
					l-1.92,5.281h-11.109l20.641-49.16h1.028 M777.033,326.967h-3.669h-1.028h-3.67l-1.381,3.398l-20.642,49.16l-3.047,7.502h8.099
					h11.109h3.818l1.304-3.588l0.614-1.693h3.054l-3.014,5.281h9.383h16.04h8.098l-3.047-7.502l-18.811-52.559H777.033
					L777.033,326.967z"/>
			</g>
			<g>
				<path fill="#FFFFFF" d="M785.079,364.383l-0.657-1.881l-0.678,1.881H785.079z M792.654,384.301l-1.986-5.281H778.21
					l-1.919,5.281h-17.068l22.854-54.609h4.699l22.854,54.609H792.654z"/>
				<path d="M779.867,367.107h9.051l-4.457-12.756L779.867,367.107 M784.941,332.416l20.64,49.16h-11.04l-1.987-5.281h-16.253
					l-1.921,5.281h-11.107l20.64-49.16H784.941 M788.611,326.967h-3.67h-1.029h-3.668l-1.382,3.398l-20.64,49.16l-3.049,7.502h8.099
					h11.107h3.819l1.305-3.588l0.615-1.693h8.661l0.661,1.75l1.328,3.531h3.771h11.04h8.098l-3.049-7.502l-20.64-49.16
					L788.611,326.967L788.611,326.967z"/>
			</g>
		</g>
		<g>
			<g>
				<path fill="#FFFFFF" d="M289.396,342.446l-0.655-1.881l-0.678,1.881H289.396z M289.168,362.364l3.011-5.281h-9.651l-1.92,5.281
					h-17.066l22.854-54.609h4.699l22.852,54.609H289.168z"/>
				<path d="M284.184,345.171h9.051l-4.455-12.756L284.184,345.171 M294.006,310.479l15.892,49.16h-16.038l3.01-5.281h-16.25
					l-1.92,5.281H267.59l20.64-49.16h1.031 M292.929,305.03h-3.668h-1.031h-3.67l-1.381,3.398l-20.64,49.16l-3.047,7.502h8.098
					h11.109h3.818l1.303-3.588l0.615-1.693h3.053l-3.013,5.281h9.384h16.038h8.099l-3.047-7.502l-18.811-52.559H292.929
					L292.929,305.03z"/>
			</g>
			<g>
				<path fill="#FFFFFF" d="M300.975,342.446l-0.658-1.881l-0.678,1.881H300.975z M308.549,362.364l-1.986-5.281h-12.457
					l-1.92,5.281h-17.068l22.855-54.609h4.699l22.853,54.609H308.549z"/>
				<path d="M295.763,345.171h9.049l-4.456-12.756L295.763,345.171 M300.836,310.479l20.64,49.16h-11.04l-1.989-5.281h-16.251
					l-1.92,5.281h-11.109l20.641-49.16H300.836 M304.506,305.03h-3.67h-1.029h-3.668l-1.381,3.398l-20.641,49.16l-3.049,7.502h8.098
					h11.109h3.819l1.303-3.588l0.615-1.693h8.663l0.66,1.75l1.327,3.531h3.772h11.04h8.097l-3.048-7.502l-20.639-49.16
					L304.506,305.03L304.506,305.03z"/>
			</g>
		</g>
	</g>
	<g>
		<g>
			<g>
				<path fill="#FFFFFF" d="M1175.159,251.245v-54.549h22.131c4.814,0,8.957,1.637,11.979,4.732
					c3.131,3.206,4.788,7.801,4.666,12.938c-0.14,3.78-1.286,7.096-3.231,9.53c2.382,2.649,3.781,6.21,3.781,9.88
					c0,9.632-7.714,17.468-17.195,17.468H1175.159z M1196.466,235.987c1.282,0,2.213-0.93,2.213-2.21
					c0-1.263-0.91-2.144-2.213-2.144h-5.98v4.354H1196.466z M1196.466,216.376c1.716,0,1.803-1.843,1.803-2.212
					c0-0.665-0.176-2.212-1.803-2.212h-5.98v4.424H1196.466z"/>
				<path d="M1197.29,199.422c8.71,0,14.126,6.24,13.92,14.881c-0.137,3.701-1.438,7.543-4.527,9.668
					c3.226,2.193,5.078,5.965,5.078,9.807c0,8.229-6.516,14.742-14.471,14.742h-19.404v-49.098H1197.29 M1187.761,219.102h5.896
					h2.81c2.813,0,4.527-2.262,4.527-4.938c0-2.742-1.714-4.938-4.527-4.938h-8.705V219.102 M1187.761,238.713h5.896h2.81
					c2.813,0,4.938-2.193,4.938-4.936c0-2.744-2.124-4.869-4.938-4.869h-8.705V238.713 M1197.29,193.972h-19.404h-5.451v5.45v49.098
					v5.45h5.451h19.404c10.984,0,19.92-9.058,19.92-20.192c0-3.657-1.115-7.141-3.115-10.012c1.538-2.607,2.434-5.779,2.562-9.262
					l0.002-0.036v-0.036c0.141-5.877-1.793-11.172-5.439-14.907C1207.671,195.892,1202.855,193.972,1197.29,193.972L1197.29,193.972
					z"/>
			</g>
			<g>
				<path fill="#FFFFFF" d="M1186.116,251.246v-54.549h22.134c4.812,0,8.955,1.635,11.978,4.732
					c3.132,3.205,4.789,7.799,4.667,12.938c-0.142,3.779-1.287,7.096-3.23,9.529c2.382,2.65,3.78,6.211,3.78,9.881
					c0,9.631-7.714,17.469-17.194,17.469H1186.116z"/>
				<path d="M1198.718,219.102h5.897h2.813c2.809,0,4.523-2.262,4.523-4.938c0-2.742-1.715-4.938-4.523-4.938h-8.711V219.102
					 M1198.718,238.713h5.897h2.813c2.809,0,4.936-2.193,4.936-4.936c0-2.744-2.127-4.869-4.936-4.869h-8.711V238.713
					 M1208.25,199.422c8.708,0,14.124,6.24,13.921,14.881c-0.139,3.701-1.44,7.543-4.527,9.668c3.223,2.193,5.074,5.965,5.074,9.807
					c0,8.229-6.513,14.742-14.468,14.742h-19.405v-49.098H1208.25 M1208.25,193.971h-19.405h-5.453v5.451v49.098v5.451h5.453h19.405
					c10.981,0,19.919-9.059,19.919-20.193c0-3.656-1.114-7.141-3.114-10.012c1.536-2.607,2.434-5.779,2.562-9.262v-0.035
					l0.002-0.037c0.14-5.877-1.793-11.172-5.439-14.906C1218.63,195.893,1213.814,193.971,1208.25,193.971L1208.25,193.971z"/>
			</g>
		</g>
		<g>
			<g>
				<path fill="#FFFFFF" d="M702.712,251.245v-54.549h22.133c4.847,0,9.014,1.654,12.049,4.783c3.119,3.216,4.75,7.8,4.595,12.906
					c-0.113,3.755-1.259,7.071-3.226,9.517c2.379,2.648,3.776,6.207,3.776,9.875c0,9.632-7.714,17.468-17.194,17.468H702.712z
					 M724.021,235.987c1.283,0,2.212-0.93,2.212-2.21c0-1.263-0.909-2.144-2.212-2.144h-5.982v4.354H724.021z M724.021,216.376
					c1.714,0,1.801-1.843,1.801-2.212c0-0.665-0.176-2.212-1.801-2.212h-5.982v4.424H724.021z"/>
				<path d="M724.845,199.422c8.709,0,14.184,6.242,13.92,14.881c-0.112,3.702-1.44,7.543-4.527,9.668
					c3.225,2.193,5.076,5.965,5.076,9.807c0,8.229-6.516,14.742-14.469,14.742h-19.407v-49.098H724.845 M715.312,219.102h5.898
					h2.811c2.811,0,4.525-2.262,4.525-4.938c0-2.742-1.715-4.938-4.525-4.938h-8.709V219.102 M715.312,238.713h5.898h2.811
					c2.811,0,4.938-2.193,4.938-4.936c0-2.744-2.127-4.869-4.938-4.869h-8.709V238.713 M724.845,193.972h-19.407h-5.45v5.45v49.098
					v5.45h5.45h19.407c10.982,0,19.918-9.058,19.918-20.192c0-3.652-1.111-7.132-3.106-10.001c1.556-2.624,2.45-5.812,2.556-9.309
					c0.18-5.849-1.726-11.136-5.362-14.886C735.34,195.964,730.366,193.972,724.845,193.972L724.845,193.972z"/>
			</g>
			<g>
				<path fill="#FFFFFF" d="M713.671,251.246v-54.549h22.133c4.811,0,8.955,1.635,11.979,4.732c3.13,3.205,4.821,7.8,4.664,12.938
					c-0.115,3.78-1.285,7.096-3.229,9.529c2.383,2.65,3.78,6.211,3.78,9.881c0,9.631-7.714,17.469-17.193,17.469H713.671z"/>
				<path d="M726.271,219.102h5.898h2.811c2.812,0,4.525-2.262,4.525-4.938c0-2.742-1.713-4.938-4.525-4.938h-8.709V219.102
					 M726.271,238.713h5.898h2.811c2.812,0,4.938-2.193,4.938-4.936c0-2.744-2.126-4.869-4.938-4.869h-8.709V238.713
					 M735.804,199.422c8.709,0,14.125,6.24,13.921,14.881c-0.14,3.701-1.441,7.543-4.528,9.668c3.225,2.193,5.076,5.965,5.076,9.807
					c0,8.229-6.515,14.742-14.469,14.742h-19.408v-49.098H735.804 M735.804,193.971h-19.408h-5.449v5.451v49.098v5.451h5.449h19.408
					c10.982,0,19.918-9.059,19.918-20.193c0-3.656-1.114-7.141-3.114-10.012c1.536-2.607,2.434-5.779,2.562-9.262l0.002-0.035
					l0.002-0.037c0.139-5.877-1.793-11.172-5.44-14.906C746.185,195.893,741.367,193.971,735.804,193.971L735.804,193.971z"/>
			</g>
		</g>
		<g>
			<g>
				<path fill="#FFFFFF" d="M230.265,251.245v-54.549h22.131c4.814,0,8.958,1.637,11.981,4.733
					c3.131,3.206,4.788,7.801,4.665,12.938c-0.141,3.78-1.287,7.095-3.23,9.529c2.381,2.649,3.781,6.211,3.781,9.881
					c0,9.632-7.715,17.468-17.197,17.468H230.265z M251.574,235.987c1.282,0,2.212-0.93,2.212-2.21c0-1.242-0.93-2.144-2.212-2.144
					h-5.983v4.354H251.574z M251.574,216.376c1.714,0,1.8-1.843,1.8-2.212c0-0.665-0.175-2.212-1.8-2.212h-5.983v4.424H251.574z"/>
				<path d="M252.396,199.422c8.71,0,14.128,6.24,13.923,14.881c-0.14,3.701-1.441,7.543-4.527,9.668
					c3.225,2.193,5.076,5.965,5.076,9.807c0,8.229-6.516,14.742-14.472,14.742H232.99v-49.098H252.396 M242.865,219.102h5.897h2.812
					c2.812,0,4.525-2.262,4.525-4.938c0-2.742-1.714-4.938-4.525-4.938h-8.709V219.102 M242.865,238.713h5.897h2.812
					c2.812,0,4.938-2.193,4.938-4.936c0-2.744-2.127-4.869-4.938-4.869h-8.709V238.713 M252.396,193.972H232.99h-5.45v5.45v49.098
					v5.45h5.45h19.405c10.984,0,19.922-9.058,19.922-20.192c0-3.657-1.115-7.142-3.115-10.013c1.537-2.607,2.434-5.777,2.562-9.258
					l0.002-0.037v-0.038c0.141-5.877-1.792-11.171-5.439-14.906C262.778,195.892,257.962,193.972,252.396,193.972L252.396,193.972z"
					/>
			</g>
			<g>
				<path fill="#FFFFFF" d="M241.225,251.246v-54.549h22.131c4.812,0,8.956,1.635,11.98,4.732c3.128,3.205,4.787,7.799,4.664,12.938
					c-0.14,3.779-1.286,7.096-3.23,9.529c2.383,2.65,3.781,6.211,3.781,9.881c0,9.631-7.715,17.469-17.195,17.469H241.225z"/>
				<path d="M253.824,219.102h5.898h2.811c2.813,0,4.525-2.262,4.525-4.938c0-2.742-1.712-4.938-4.525-4.938h-8.709V219.102
					 M253.824,238.713h5.898h2.811c2.813,0,4.938-2.193,4.938-4.936c0-2.744-2.124-4.869-4.938-4.869h-8.709V238.713
					 M263.355,199.422c8.708,0,14.127,6.24,13.921,14.881c-0.138,3.701-1.44,7.543-4.526,9.668c3.225,2.193,5.075,5.965,5.075,9.807
					c0,8.229-6.515,14.742-14.47,14.742h-19.406v-49.098H263.355 M263.355,193.971h-19.406H238.5v5.451v49.098v5.451h5.449h19.406
					c10.984,0,19.92-9.059,19.92-20.193c0-3.656-1.115-7.141-3.115-10.012c1.536-2.607,2.435-5.779,2.562-9.262l0.002-0.035
					l0.002-0.037c0.139-5.877-1.793-11.172-5.441-14.906C273.738,195.893,268.92,193.971,263.355,193.971L263.355,193.971z"/>
			</g>
		</g>
	</g>
	<g>
		<g>
			<g>
				<path fill="#FFFFFF" d="M1175.069,362.335v-54.549h22.131c4.814,0,8.957,1.637,11.98,4.732c3.13,3.206,4.787,7.8,4.666,12.937
					c-0.142,3.78-1.287,7.096-3.231,9.531c2.382,2.649,3.782,6.21,3.782,9.879c0,9.633-7.715,17.47-17.197,17.47H1175.069z
					 M1196.378,347.077c1.282,0,2.212-0.93,2.212-2.212c0-1.241-0.93-2.142-2.212-2.142h-5.983v4.354H1196.378z M1196.378,327.466
					c1.713,0,1.801-1.843,1.801-2.212c0-0.665-0.176-2.212-1.801-2.212h-5.983v4.424H1196.378z"/>
				<path d="M1197.2,310.512c8.709,0,14.125,6.24,13.921,14.879c-0.138,3.703-1.439,7.543-4.524,9.67
					c3.222,2.193,5.074,5.965,5.074,9.805c0,8.229-6.515,14.744-14.471,14.744h-19.406v-49.098H1197.2 M1187.669,330.191h5.897
					h2.812c2.811,0,4.525-2.264,4.525-4.938c0-2.742-1.715-4.938-4.525-4.938h-8.709V330.191 M1187.669,349.803h5.897h2.812
					c2.811,0,4.938-2.193,4.938-4.938c0-2.742-2.127-4.867-4.938-4.867h-8.709V349.803 M1197.2,305.062h-19.406h-5.449v5.45v49.098
					v5.45h5.449h19.406c10.984,0,19.922-9.06,19.922-20.194c0-3.656-1.115-7.141-3.117-10.012c1.537-2.607,2.434-5.779,2.562-9.261
					l0.002-0.036v-0.037c0.141-5.876-1.791-11.17-5.439-14.904C1207.581,306.981,1202.765,305.062,1197.2,305.062L1197.2,305.062z"
					/>
			</g>
			<g>
				<path fill="#FFFFFF" d="M1186.027,362.336v-54.551h22.133c4.812,0,8.955,1.637,11.979,4.732
					c3.131,3.207,4.79,7.801,4.665,12.938c-0.14,3.781-1.286,7.096-3.23,9.531c2.381,2.65,3.782,6.211,3.782,9.879
					c0,9.633-7.716,17.471-17.195,17.471H1186.027z"/>
				<path d="M1198.629,330.191h5.896h2.813c2.81,0,4.525-2.264,4.525-4.938c0-2.742-1.716-4.938-4.525-4.938h-8.709V330.191
					 M1198.629,349.803h5.896h2.813c2.81,0,4.938-2.193,4.938-4.938c0-2.742-2.128-4.867-4.938-4.867h-8.709V349.803
					 M1208.16,310.512c8.708,0,14.124,6.24,13.92,14.879c-0.137,3.703-1.44,7.543-4.525,9.67c3.222,2.193,5.075,5.965,5.075,9.805
					c0,8.229-6.515,14.744-14.47,14.744h-19.407v-49.098H1208.16 M1208.16,305.061h-19.407h-5.451v5.451v49.098v5.451h5.451h19.407
					c10.982,0,19.92-9.059,19.92-20.195c0-3.656-1.115-7.139-3.115-10.01c1.538-2.609,2.434-5.781,2.562-9.262l0.001-0.037v-0.035
					c0.14-5.879-1.793-11.172-5.438-14.908C1218.541,306.98,1213.724,305.061,1208.16,305.061L1208.16,305.061z"/>
			</g>
		</g>
		<g>
			<g>
				<path fill="#FFFFFF" d="M702.577,362.335v-54.549h22.131c4.848,0,9.014,1.654,12.049,4.782
					c3.119,3.216,4.751,7.799,4.596,12.905c-0.114,3.755-1.26,7.072-3.225,9.518c2.379,2.649,3.777,6.208,3.777,9.874
					c0,9.633-7.715,17.47-17.197,17.47H702.577z M723.888,347.077c1.28,0,2.209-0.93,2.209-2.212c0-1.241-0.929-2.142-2.209-2.142
					h-5.985v4.354H723.888z M723.888,327.466c1.712,0,1.798-1.843,1.798-2.212c0-0.665-0.175-2.212-1.798-2.212h-5.985v4.424
					H723.888z"/>
				<path d="M724.708,310.512c8.71,0,14.184,6.242,13.921,14.879c-0.113,3.704-1.439,7.543-4.525,9.67
					c3.222,2.193,5.075,5.965,5.075,9.805c0,8.229-6.516,14.744-14.471,14.744h-19.404v-49.098H724.708 M715.177,330.191h5.897
					h2.813c2.809,0,4.523-2.264,4.523-4.938c0-2.742-1.715-4.938-4.523-4.938h-8.711V330.191 M715.177,349.803h5.897h2.813
					c2.809,0,4.936-2.193,4.936-4.938c0-2.742-2.127-4.867-4.936-4.867h-8.711V349.803 M724.708,305.062h-19.404h-5.451v5.45v49.098
					v5.45h5.451h19.404c10.984,0,19.922-9.06,19.922-20.194c0-3.652-1.112-7.131-3.109-10.001c1.555-2.624,2.449-5.812,2.557-9.307
					c0.178-5.851-1.728-11.138-5.365-14.887C735.204,307.054,730.229,305.062,724.708,305.062L724.708,305.062z"/>
			</g>
			<g>
				<path fill="#FFFFFF" d="M713.535,362.336v-54.551h22.133c4.812,0,8.955,1.637,11.978,4.732
					c3.131,3.207,4.824,7.802,4.666,12.938c-0.115,3.782-1.287,7.096-3.23,9.531c2.381,2.65,3.781,6.211,3.781,9.879
					c0,9.633-7.715,17.471-17.194,17.471H713.535z"/>
				<path d="M726.138,330.191h5.896h2.813c2.81,0,4.524-2.264,4.524-4.938c0-2.742-1.715-4.938-4.524-4.938h-8.709V330.191
					 M726.138,349.803h5.896h2.813c2.81,0,4.937-2.193,4.937-4.938c0-2.742-2.127-4.867-4.937-4.867h-8.709V349.803
					 M735.668,310.512c8.708,0,14.124,6.24,13.92,14.879c-0.137,3.703-1.44,7.543-4.525,9.67c3.223,2.193,5.076,5.965,5.076,9.805
					c0,8.229-6.516,14.744-14.471,14.744h-19.407v-49.098H735.668 M735.668,305.061h-19.407h-5.451v5.451v49.098v5.451h5.451h19.407
					c10.982,0,19.92-9.059,19.92-20.195c0-3.656-1.115-7.139-3.115-10.01c1.538-2.609,2.434-5.781,2.562-9.262l0.002-0.037v-0.035
					c0.14-5.879-1.794-11.172-5.44-14.908C746.048,306.98,741.232,305.061,735.668,305.061L735.668,305.061z"/>
			</g>
		</g>
		<g>
			<g>
				<path fill="#FFFFFF" d="M230.085,362.335v-54.549h22.132c4.813,0,8.956,1.637,11.979,4.732c3.129,3.206,4.787,7.8,4.664,12.937
					c-0.139,3.78-1.284,7.096-3.23,9.531c2.383,2.649,3.783,6.21,3.783,9.879c0,9.633-7.715,17.47-17.196,17.47H230.085z
					 M251.395,347.077c1.282,0,2.212-0.93,2.212-2.212c0-1.241-0.93-2.142-2.212-2.142h-5.983v4.354H251.395z M251.395,327.466
					c1.714,0,1.8-1.843,1.8-2.212c0-0.665-0.175-2.212-1.8-2.212h-5.983v4.424H251.395z"/>
				<path d="M252.217,310.512c8.709,0,14.125,6.24,13.921,14.879c-0.138,3.703-1.441,7.543-4.526,9.67
					c3.223,2.193,5.076,5.965,5.076,9.805c0,8.229-6.516,14.744-14.471,14.744h-19.406v-49.098H252.217 M242.686,330.191h5.896
					h2.812c2.811,0,4.525-2.264,4.525-4.938c0-2.742-1.715-4.938-4.525-4.938h-8.709V330.191 M242.686,349.803h5.896h2.812
					c2.811,0,4.938-2.193,4.938-4.938c0-2.742-2.127-4.867-4.938-4.867h-8.709V349.803 M252.217,305.062h-19.406h-5.45v5.45v49.098
					v5.45h5.45h19.406c10.984,0,19.921-9.06,19.921-20.194c0-3.656-1.115-7.14-3.116-10.011c1.538-2.609,2.434-5.781,2.562-9.263
					l0.002-0.036v-0.036c0.141-5.876-1.792-11.17-5.439-14.905C262.599,306.981,257.78,305.062,252.217,305.062L252.217,305.062z"/>
			</g>
			<g>
				<path fill="#FFFFFF" d="M241.042,362.336v-54.551h22.134c4.812,0,8.954,1.637,11.979,4.732
					c3.131,3.207,4.789,7.801,4.666,12.938c-0.142,3.781-1.287,7.096-3.23,9.531c2.381,2.65,3.781,6.211,3.781,9.879
					c0,9.633-7.715,17.471-17.195,17.471H241.042z"/>
				<path d="M253.644,330.191h5.897h2.812c2.81,0,4.524-2.264,4.524-4.938c0-2.742-1.715-4.938-4.524-4.938h-8.71V330.191
					 M253.644,349.803h5.897h2.812c2.81,0,4.938-2.193,4.938-4.938c0-2.742-2.128-4.867-4.938-4.867h-8.71V349.803 M263.176,310.512
					c8.71,0,14.125,6.24,13.921,14.879c-0.139,3.703-1.44,7.543-4.526,9.67c3.223,2.193,5.075,5.965,5.075,9.805
					c0,8.229-6.516,14.744-14.47,14.744H243.77v-49.098H263.176 M263.176,305.061H243.77h-5.451v5.451v49.098v5.451h5.451h19.406
					c10.982,0,19.921-9.059,19.921-20.195c0-3.656-1.117-7.139-3.117-10.01c1.538-2.609,2.434-5.781,2.562-9.262l0.003-0.037v-0.035
					c0.139-5.879-1.793-11.172-5.439-14.908C273.557,306.98,268.74,305.061,263.176,305.061L263.176,305.061z"/>
			</g>
		</g>
	</g>
</g>
</svg>
