<?xml version="1.0" encoding="utf-8"?>
<!-- Generator: Adobe Illustrator 16.0.1, SVG Export Plug-In . SVG Version: 6.00 Build 0)  -->
<!DOCTYPE svg PUBLIC "-//W3C//DTD SVG 1.1//EN" "http://www.w3.org/Graphics/SVG/1.1/DTD/svg11.dtd">
<svg version="1.1" id="Layer_1" xmlns="http://www.w3.org/2000/svg" xmlns:xlink="http://www.w3.org/1999/xlink" x="0px" y="0px"
	 width="100px" height="100px" viewBox="0 0 100 100" enable-background="new 0 0 100 100" xml:space="preserve">
<g>
	<rect x="0.1" y="0.1" width="99.801" height="99.802"/>
	<polygon fill="#221F1F" points="0.1,99.901 0.1,100 99.999,100 99.999,0 0,0 0,100 0.1,100 0.1,99.901 0.199,99.901 0.199,0.199 
		99.8,0.199 99.8,99.801 0.1,99.801 0.1,99.901 0.199,99.901 	"/>
	<path fill="#FFFFFF" d="M25.574,17.137H74.43c4.642,0,8.437,3.795,8.437,8.437V74.43c0,4.641-3.795,8.435-8.437,8.435H25.574
		c-4.642,0-8.439-3.794-8.439-8.435V25.574C17.135,20.933,20.933,17.137,25.574,17.137z M65.019,24.438
		c-1.629,0-2.959,1.334-2.959,2.963v7.081c0,1.629,1.33,2.96,2.959,2.96h7.429c1.627,0,2.959-1.331,2.959-2.96V27.4
		c0-1.628-1.332-2.963-2.959-2.963H65.019z M75.435,44.932h-5.783c0.548,1.791,0.846,3.681,0.846,5.645
		c0,10.928-9.151,19.793-20.435,19.793c-11.281,0-20.432-8.865-20.432-19.793c0-1.964,0.3-3.854,0.846-5.645h-6.033v27.768
		c0,1.438,1.173,2.608,2.61,2.608h45.772c1.438,0,2.609-1.17,2.609-2.608V44.932z M50.062,37.069
		c-7.287,0-13.199,5.724-13.199,12.793c0,7.061,5.912,12.791,13.199,12.791c7.292,0,13.203-5.729,13.203-12.791
		C63.265,42.792,57.354,37.069,50.062,37.069z"/>
</g>
</svg>
