<?xml version="1.0" encoding="utf-8"?>
<!-- Generator: Adobe Illustrator 16.0.1, SVG Export Plug-In . SVG Version: 6.00 Build 0)  -->
<!DOCTYPE svg PUBLIC "-//W3C//DTD SVG 1.1//EN" "http://www.w3.org/Graphics/SVG/1.1/DTD/svg11.dtd">
<svg version="1.1" id="Layer_1" xmlns="http://www.w3.org/2000/svg" xmlns:xlink="http://www.w3.org/1999/xlink" x="0px" y="0px"
	 width="100px" height="100px" viewBox="0 0 100 100" enable-background="new 0 0 100 100" xml:space="preserve">
<g>
	<rect x="-0.081" y="-0.08" width="100.162" height="100.16"/>
	<path fill="#FFFFFF" d="M17.058,38.586h14.132v45.399H17.058V38.586z M24.128,16.017c4.518,0,8.181,3.669,8.181,8.18
		c0,4.516-3.663,8.184-8.181,8.184c-4.535,0-8.191-3.668-8.191-8.184C15.938,19.686,19.594,16.017,24.128,16.017"/>
	<path fill="#FFFFFF" d="M40.049,38.586h13.533v6.205h0.192c1.882-3.572,6.491-7.333,13.359-7.333
		c14.285,0,16.928,9.398,16.928,21.625v24.902H69.956V61.912c0-5.27-0.104-12.042-7.339-12.042c-7.348,0-8.468,5.734-8.468,11.653
		v22.462H40.049V38.586z"/>
</g>
</svg>
