<?xml version="1.0" encoding="utf-8"?>
<!-- Generator: Adobe Illustrator 16.0.1, SVG Export Plug-In . SVG Version: 6.00 Build 0)  -->
<!DOCTYPE svg PUBLIC "-//W3C//DTD SVG 1.1//EN" "http://www.w3.org/Graphics/SVG/1.1/DTD/svg11.dtd">
<svg version="1.1" id="Layer_1" xmlns="http://www.w3.org/2000/svg" xmlns:xlink="http://www.w3.org/1999/xlink" x="0px" y="0px"
	 width="481px" height="216px" viewBox="17 -9.951 481 216" enable-background="new 17 -9.951 481 216" xml:space="preserve">
<g display="none">
	<polygon display="inline" points="208.824,98.048 118.611,98.048 208.824,7.832 	"/>
	<polygon display="inline" points="208.824,98.048 208.824,188.266 299.039,98.048 	"/>
	<polygon display="inline" points="299.039,98.048 389.252,7.832 389.252,98.048 479.471,98.048 389.252,188.266 	"/>
	<polygon display="inline" points="118.611,7.832 118.611,188.266 28.393,98.048 	"/>
</g>
<g>
	<g>
		<path d="M216.324,105.548H111.111V94.942L216.324-10.275V105.548z M136.717,90.548h64.607V25.939L136.717,90.548z"/>
	</g>
	<g>
		<path d="M201.324,206.373V90.548h115.822L201.324,206.373z M216.324,105.548v64.61l64.609-64.61H216.324z"/>
	</g>
	<g>
		<path d="M389.252,198.872L288.433,98.048L396.752-10.275V90.548h100.825L389.252,198.872z M309.646,98.048l79.606,79.611
			l72.112-72.111h-79.612V25.939L309.646,98.048z"/>
	</g>
	<g>
		<path d="M126.111,206.372L17.786,98.048L126.111-10.274V206.372z M39,98.048l72.111,72.111V25.939L39,98.048z"/>
	</g>
</g>
</svg>
