<?xml version="1.0" encoding="utf-8"?>
<!-- Generator: Adobe Illustrator 16.0.1, SVG Export Plug-In . SVG Version: 6.00 Build 0)  -->
<!DOCTYPE svg PUBLIC "-//W3C//DTD SVG 1.1//EN" "http://www.w3.org/Graphics/SVG/1.1/DTD/svg11.dtd">
<svg version="1.1" id="Layer_1" xmlns="http://www.w3.org/2000/svg" xmlns:xlink="http://www.w3.org/1999/xlink" x="0px" y="0px"
	 width="481px" height="216px" viewBox="0 0 481 216" enable-background="new 0 0 481 216" xml:space="preserve">
<g>
	<polygon id="G" points="285.607,107.999 375.82,17.783 375.82,107.999 466.039,107.999 375.82,198.217 	"/>
	<g id="S">
		<polygon points="195.393,107.999 105.179,107.999 195.393,17.783 		"/>
		<polygon points="195.393,107.999 195.393,198.217 285.607,107.999 		"/>
	</g>
	<polygon id="C" points="105.179,17.783 105.179,198.217 14.961,107.999 	"/>
</g>
<g display="none">
	<g display="inline">
		<path d="M199.143,115.499H93.929v-10.606L199.143-0.324V115.499z M119.535,100.499h64.607V35.89L119.535,100.499z"/>
	</g>
	<g display="inline">
		<path d="M184.143,216.324V100.499h115.822L184.143,216.324z M199.143,115.499v64.61l64.609-64.61H199.143L199.143,115.499z"/>
	</g>
	<g display="inline">
		<path d="M372.07,208.823L271.252,107.999L379.57-0.324v100.823h100.825L372.07,208.823z M292.465,107.999l79.605,79.611
			l72.112-72.111H364.57V35.89L292.465,107.999z"/>
	</g>
	<g display="inline">
		<path d="M108.929,216.323L0.604,107.999L108.929-0.323V216.323z M21.818,107.999l72.111,72.111V35.89L21.818,107.999z"/>
	</g>
</g>
</svg>
