<?xml version="1.0" encoding="utf-8"?>
<!-- Generator: Adobe Illustrator 16.0.1, SVG Export Plug-In . SVG Version: 6.00 Build 0)  -->
<!DOCTYPE svg PUBLIC "-//W3C//DTD SVG 1.1//EN" "http://www.w3.org/Graphics/SVG/1.1/DTD/svg11.dtd">
<svg version="1.1" id="Layer_1" xmlns="http://www.w3.org/2000/svg" xmlns:xlink="http://www.w3.org/1999/xlink" x="0px" y="0px"
	 width="100px" height="100px" viewBox="0 0 100 100" enable-background="new 0 0 100 100" xml:space="preserve">
<g>
	<rect display="none" width="100" height="100"/>
	<g>
		<path fill="#FFFFFF" d="M74.432,25.673c6.698,6.699,10.162,15.099,10.396,25.204c-0.138,7.973-2.435,14.975-6.884,20.998
			s-10.268,10.29-17.451,12.793c-0.881,0.141-1.506,0.012-1.879-0.383c-0.371-0.393-0.555-0.846-0.555-1.355l0.068-9.734
			c-0.045-1.668-0.303-3.047-0.766-4.137c-0.463-1.088-1.021-1.912-1.668-2.469c4.125-0.277,7.822-1.609,11.091-3.998
			c3.268-2.387,4.993-6.917,5.18-13.593c-0.047-1.947-0.383-3.708-1.008-5.284c-0.626-1.575-1.521-2.99-2.679-4.241
			c0.279-0.462,0.511-1.53,0.695-3.199c0.186-1.668-0.162-3.754-1.041-6.257c0-0.14-0.791-0.105-2.365,0.104
			c-1.576,0.209-4.058,1.402-7.439,3.581c-2.875-0.788-5.84-1.182-8.899-1.182s-6.026,0.394-8.899,1.182
			c-3.384-2.179-5.865-3.372-7.439-3.581c-1.576-0.209-2.365-0.243-2.365-0.104c-0.88,2.503-1.228,4.588-1.043,6.257
			s0.418,2.736,0.696,3.199c-1.159,1.251-2.052,2.666-2.678,4.241c-0.625,1.576-0.962,3.336-1.008,5.284
			c0.185,6.676,1.901,11.206,5.146,13.593c3.243,2.389,6.952,3.721,11.124,3.998c-0.557,0.465-1.032,1.09-1.425,1.877
			c-0.395,0.79-0.686,1.764-0.869,2.922c-1.112,0.604-2.688,0.895-4.728,0.869c-2.041-0.023-3.919-1.31-5.632-3.859
			c-0.325-0.602-0.965-1.344-1.912-2.225c-0.951-0.88-2.121-1.345-3.512-1.392c-1.391,0.047-1.912,0.348-1.564,0.903
			c0.348,0.557,0.893,1.021,1.634,1.392c0.788,0.511,1.53,1.321,2.225,2.433c0.696,1.113,1.158,1.973,1.391,2.573
			c0.278,1.158,1.252,2.317,2.921,3.478c1.669,1.157,4.681,1.412,9.039,0.766l0.069,6.604c0,0.51-0.186,0.963-0.557,1.355
			c-0.372,0.395-0.997,0.521-1.877,0.383c-7.187-2.503-13.002-6.77-17.452-12.793c-4.45-6.023-6.745-13.025-6.883-20.998
			c0.231-10.105,3.695-18.505,10.394-25.204c6.698-6.699,15.1-10.163,25.205-10.395C59.332,15.51,67.732,18.974,74.432,25.673z"/>
	</g>
</g>
</svg>
