<?xml version="1.0" encoding="utf-8"?>
<!-- Generator: Adobe Illustrator 16.0.1, SVG Export Plug-In . SVG Version: 6.00 Build 0)  -->
<!DOCTYPE svg PUBLIC "-//W3C//DTD SVG 1.1//EN" "http://www.w3.org/Graphics/SVG/1.1/DTD/svg11.dtd">
<svg version="1.1" id="Layer_1" xmlns="http://www.w3.org/2000/svg" xmlns:xlink="http://www.w3.org/1999/xlink" x="0px" y="0px"
	 width="100px" height="100px" viewBox="0 0 100 100" enable-background="new 0 0 100 100" xml:space="preserve">
<g>
	<rect display="none" width="100" height="100"/>
	<path fill="#FFFFFF" d="M26.773,18.751h46.456c4.416,0,8.023,3.608,8.023,8.022v46.456c0,4.414-3.607,8.021-8.023,8.021H26.773
		c-4.415,0-8.025-3.607-8.025-8.021V26.773C18.748,22.36,22.359,18.751,26.773,18.751z M64.279,25.694
		c-1.549,0-2.812,1.269-2.812,2.818v6.731c0,1.549,1.266,2.815,2.812,2.815h7.063c1.548,0,2.813-1.267,2.813-2.815v-6.734
		c0-1.546-1.268-2.817-2.813-2.817h-7.063V25.694z M74.186,45.182h-5.498c0.521,1.703,0.806,3.499,0.806,5.368
		c0,10.392-8.702,18.82-19.433,18.82c-10.727,0-19.429-8.431-19.429-18.82c0-1.87,0.286-3.666,0.805-5.368h-5.737v26.404
		c0,1.367,1.116,2.48,2.483,2.48h43.524c1.367,0,2.479-1.113,2.479-2.48V45.182z M50.058,37.705c-6.93,0-12.552,5.442-12.552,12.165
		c0,6.714,5.622,12.162,12.552,12.162c6.933,0,12.555-5.447,12.555-12.162C62.613,43.146,56.991,37.705,50.058,37.705z"/>
</g>
</svg>
