<?xml version="1.0" encoding="utf-8"?>
<!-- Generator: Adobe Illustrator 16.0.1, SVG Export Plug-In . SVG Version: 6.00 Build 0)  -->
<!DOCTYPE svg PUBLIC "-//W3C//DTD SVG 1.1//EN" "http://www.w3.org/Graphics/SVG/1.1/DTD/svg11.dtd">
<svg version="1.1" id="Layer_1" xmlns="http://www.w3.org/2000/svg" xmlns:xlink="http://www.w3.org/1999/xlink" x="0px" y="0px"
	 width="100px" height="100px" viewBox="0 0 100 100" enable-background="new 0 0 100 100" xml:space="preserve">
<g>
	<rect display="none" width="100" height="100"/>
	<g>
		<path fill="#FFFFFF" d="M19.708,39.505h12.995v41.746H19.708V39.505z M26.209,18.75c4.154,0,7.522,3.374,7.522,7.522
			c0,4.153-3.368,7.525-7.522,7.525c-4.171,0-7.531-3.373-7.531-7.525C18.678,22.125,22.039,18.75,26.209,18.75"/>
		<path fill="#FFFFFF" d="M40.849,39.505h12.444v5.705h0.178c1.73-3.285,5.971-6.743,12.283-6.743
			c13.137,0,15.564,8.643,15.564,19.885V81.25H68.352V60.954c0-4.847-0.098-11.073-6.75-11.073c-6.756,0-7.787,5.271-7.787,10.717
			v20.653H40.849V39.505z"/>
	</g>
</g>
</svg>
