<?xml version="1.0" encoding="utf-8"?>
<!-- Generator: Adobe Illustrator 16.0.1, SVG Export Plug-In . SVG Version: 6.00 Build 0)  -->
<!DOCTYPE svg PUBLIC "-//W3C//DTD SVG 1.1//EN" "http://www.w3.org/Graphics/SVG/1.1/DTD/svg11.dtd">
<svg version="1.1" id="Layer_1" xmlns="http://www.w3.org/2000/svg" xmlns:xlink="http://www.w3.org/1999/xlink" x="0px" y="0px"
	 width="100px" height="100px" viewBox="0 0 100 100" enable-background="new 0 0 100 100" xml:space="preserve">
<g>
	<rect display="none" width="100" height="100"/>
	<path fill="#FFFFFF" d="M55.141,18.75v15.796h14.826v9.812H55.141v16.031c0,3.622,0.188,5.945,0.57,6.977
		c0.387,1.023,1.096,1.846,2.145,2.462c1.386,0.83,2.961,1.247,4.744,1.247c3.164,0,6.31-1.033,9.438-3.09v9.857
		c-2.668,1.262-5.088,2.143-7.252,2.65c-2.162,0.506-4.507,0.758-7.022,0.758c-2.854,0-5.377-0.357-7.576-1.084
		c-2.196-0.725-4.069-1.752-5.62-3.085c-1.55-1.332-2.625-2.754-3.224-4.265c-0.598-1.498-0.897-3.678-0.897-6.534V44.357h-6.909
		v-8.846c2.457-0.795,4.563-1.939,6.306-3.428c1.756-1.49,3.159-3.278,4.216-5.366c1.062-2.088,1.79-4.741,2.19-7.968L55.141,18.75
		L55.141,18.75z"/>
</g>
</svg>
